<?xml version="1.0" encoding="utf-8" standalone="no"?>
<!DOCTYPE svg PUBLIC "-//W3C//DTD SVG 1.1//EN"
  "http://www.w3.org/Graphics/SVG/1.1/DTD/svg11.dtd">
<!-- Created with matplotlib (https://matplotlib.org/) -->
<svg height="335.469844pt" version="1.1" viewBox="0 0 1167.416094 335.469844" width="1167.416094pt" xmlns="http://www.w3.org/2000/svg" xmlns:xlink="http://www.w3.org/1999/xlink">
 <defs>
  <style type="text/css">
*{stroke-linecap:butt;stroke-linejoin:round;}
  </style>
 </defs>
 <g id="figure_1">
  <g id="patch_1">
   <path d="M 0 335.469844 
L 1167.416094 335.469844 
L 1167.416094 0 
L 0 0 
z
" style="fill:#ffffff;"/>
  </g>
  <g id="axes_1">
   <g id="patch_2">
    <path d="M 44.216094 293.735625 
L 271.971196 293.735625 
L 271.971196 21.935625 
L 44.216094 21.935625 
z
" style="fill:#ffffff;"/>
   </g>
   <g id="matplotlib.axis_1">
    <g id="xtick_1">
     <g id="line2d_1">
      <path clip-path="url(#p5beeffe1c8)" d="M 60.004088 293.735625 
L 60.004088 21.935625 
" style="fill:none;stroke:#cccccc;stroke-dasharray:1,1.65;stroke-dashoffset:0;"/>
     </g>
     <g id="text_1">
      <!-- −1 -->
      <defs>
       <path d="M 52.828125 31.203125 
L 5.5625 31.203125 
L 5.5625 39.40625 
L 52.828125 39.40625 
z
" id="ArialMT-8722"/>
       <path d="M 37.25 0 
L 28.46875 0 
L 28.46875 56 
Q 25.296875 52.984375 20.140625 49.953125 
Q 14.984375 46.921875 10.890625 45.40625 
L 10.890625 53.90625 
Q 18.265625 57.375 23.78125 62.296875 
Q 29.296875 67.234375 31.59375 71.875 
L 37.25 71.875 
z
" id="ArialMT-49"/>
      </defs>
      <g style="fill:#262626;" transform="translate(53.733228 311.109219)scale(0.11 -0.11)">
       <use xlink:href="#ArialMT-8722"/>
       <use x="58.398438" xlink:href="#ArialMT-49"/>
      </g>
     </g>
    </g>
    <g id="xtick_2">
     <g id="line2d_2">
      <path clip-path="url(#p5beeffe1c8)" d="M 122.85131 293.735625 
L 122.85131 21.935625 
" style="fill:none;stroke:#cccccc;stroke-dasharray:1,1.65;stroke-dashoffset:0;"/>
     </g>
     <g id="text_2">
      <!-- 0 -->
      <defs>
       <path d="M 4.15625 35.296875 
Q 4.15625 48 6.765625 55.734375 
Q 9.375 63.484375 14.515625 67.671875 
Q 19.671875 71.875 27.484375 71.875 
Q 33.25 71.875 37.59375 69.546875 
Q 41.9375 67.234375 44.765625 62.859375 
Q 47.609375 58.5 49.21875 52.21875 
Q 50.828125 45.953125 50.828125 35.296875 
Q 50.828125 22.703125 48.234375 14.96875 
Q 45.65625 7.234375 40.5 3 
Q 35.359375 -1.21875 27.484375 -1.21875 
Q 17.140625 -1.21875 11.234375 6.203125 
Q 4.15625 15.140625 4.15625 35.296875 
z
M 13.1875 35.296875 
Q 13.1875 17.671875 17.3125 11.828125 
Q 21.4375 6 27.484375 6 
Q 33.546875 6 37.671875 11.859375 
Q 41.796875 17.71875 41.796875 35.296875 
Q 41.796875 52.984375 37.671875 58.78125 
Q 33.546875 64.59375 27.390625 64.59375 
Q 21.34375 64.59375 17.71875 59.46875 
Q 13.1875 52.9375 13.1875 35.296875 
z
" id="ArialMT-48"/>
      </defs>
      <g style="fill:#262626;" transform="translate(119.792794 311.109219)scale(0.11 -0.11)">
       <use xlink:href="#ArialMT-48"/>
      </g>
     </g>
    </g>
    <g id="xtick_3">
     <g id="line2d_3">
      <path clip-path="url(#p5beeffe1c8)" d="M 185.698531 293.735625 
L 185.698531 21.935625 
" style="fill:none;stroke:#cccccc;stroke-dasharray:1,1.65;stroke-dashoffset:0;"/>
     </g>
     <g id="text_3">
      <!-- 1 -->
      <g style="fill:#262626;" transform="translate(182.640016 311.109219)scale(0.11 -0.11)">
       <use xlink:href="#ArialMT-49"/>
      </g>
     </g>
    </g>
    <g id="xtick_4">
     <g id="line2d_4">
      <path clip-path="url(#p5beeffe1c8)" d="M 248.545753 293.735625 
L 248.545753 21.935625 
" style="fill:none;stroke:#cccccc;stroke-dasharray:1,1.65;stroke-dashoffset:0;"/>
     </g>
     <g id="text_4">
      <!-- 2 -->
      <defs>
       <path d="M 50.34375 8.453125 
L 50.34375 0 
L 3.03125 0 
Q 2.9375 3.171875 4.046875 6.109375 
Q 5.859375 10.9375 9.828125 15.625 
Q 13.8125 20.3125 21.34375 26.46875 
Q 33.015625 36.03125 37.109375 41.625 
Q 41.21875 47.21875 41.21875 52.203125 
Q 41.21875 57.421875 37.46875 61 
Q 33.734375 64.59375 27.734375 64.59375 
Q 21.390625 64.59375 17.578125 60.78125 
Q 13.765625 56.984375 13.71875 50.25 
L 4.6875 51.171875 
Q 5.609375 61.28125 11.65625 66.578125 
Q 17.71875 71.875 27.9375 71.875 
Q 38.234375 71.875 44.234375 66.15625 
Q 50.25 60.453125 50.25 52 
Q 50.25 47.703125 48.484375 43.546875 
Q 46.734375 39.40625 42.65625 34.8125 
Q 38.578125 30.21875 29.109375 22.21875 
Q 21.1875 15.578125 18.9375 13.203125 
Q 16.703125 10.84375 15.234375 8.453125 
z
" id="ArialMT-50"/>
      </defs>
      <g style="fill:#262626;" transform="translate(245.487238 311.109219)scale(0.11 -0.11)">
       <use xlink:href="#ArialMT-50"/>
      </g>
     </g>
    </g>
    <g id="text_5">
     <!-- Actual -->
     <defs>
      <path d="M -0.140625 0 
L 27.34375 71.578125 
L 37.546875 71.578125 
L 66.84375 0 
L 56.0625 0 
L 47.703125 21.6875 
L 17.78125 21.6875 
L 9.90625 0 
z
M 20.515625 29.390625 
L 44.78125 29.390625 
L 37.3125 49.21875 
Q 33.890625 58.25 32.234375 64.0625 
Q 30.859375 57.171875 28.375 50.390625 
z
" id="ArialMT-65"/>
      <path d="M 40.4375 19 
L 49.078125 17.875 
Q 47.65625 8.9375 41.8125 3.875 
Q 35.984375 -1.171875 27.484375 -1.171875 
Q 16.84375 -1.171875 10.375 5.78125 
Q 3.90625 12.75 3.90625 25.734375 
Q 3.90625 34.125 6.6875 40.421875 
Q 9.46875 46.734375 15.15625 49.875 
Q 20.84375 53.03125 27.546875 53.03125 
Q 35.984375 53.03125 41.359375 48.75 
Q 46.734375 44.484375 48.25 36.625 
L 39.703125 35.296875 
Q 38.484375 40.53125 35.375 43.15625 
Q 32.28125 45.796875 27.875 45.796875 
Q 21.234375 45.796875 17.078125 41.03125 
Q 12.9375 36.28125 12.9375 25.984375 
Q 12.9375 15.53125 16.9375 10.796875 
Q 20.953125 6.0625 27.390625 6.0625 
Q 32.5625 6.0625 36.03125 9.234375 
Q 39.5 12.40625 40.4375 19 
z
" id="ArialMT-99"/>
      <path d="M 25.78125 7.859375 
L 27.046875 0.09375 
Q 23.34375 -0.6875 20.40625 -0.6875 
Q 15.625 -0.6875 12.984375 0.828125 
Q 10.359375 2.34375 9.28125 4.8125 
Q 8.203125 7.28125 8.203125 15.1875 
L 8.203125 45.015625 
L 1.765625 45.015625 
L 1.765625 51.859375 
L 8.203125 51.859375 
L 8.203125 64.703125 
L 16.9375 69.96875 
L 16.9375 51.859375 
L 25.78125 51.859375 
L 25.78125 45.015625 
L 16.9375 45.015625 
L 16.9375 14.703125 
Q 16.9375 10.9375 17.40625 9.859375 
Q 17.875 8.796875 18.921875 8.15625 
Q 19.96875 7.515625 21.921875 7.515625 
Q 23.390625 7.515625 25.78125 7.859375 
z
" id="ArialMT-116"/>
      <path d="M 40.578125 0 
L 40.578125 7.625 
Q 34.515625 -1.171875 24.125 -1.171875 
Q 19.53125 -1.171875 15.546875 0.578125 
Q 11.578125 2.34375 9.640625 5 
Q 7.71875 7.671875 6.9375 11.53125 
Q 6.390625 14.109375 6.390625 19.734375 
L 6.390625 51.859375 
L 15.1875 51.859375 
L 15.1875 23.09375 
Q 15.1875 16.21875 15.71875 13.8125 
Q 16.546875 10.359375 19.234375 8.375 
Q 21.921875 6.390625 25.875 6.390625 
Q 29.828125 6.390625 33.296875 8.421875 
Q 36.765625 10.453125 38.203125 13.9375 
Q 39.65625 17.4375 39.65625 24.078125 
L 39.65625 51.859375 
L 48.4375 51.859375 
L 48.4375 0 
z
" id="ArialMT-117"/>
      <path d="M 40.4375 6.390625 
Q 35.546875 2.25 31.03125 0.53125 
Q 26.515625 -1.171875 21.34375 -1.171875 
Q 12.796875 -1.171875 8.203125 3 
Q 3.609375 7.171875 3.609375 13.671875 
Q 3.609375 17.484375 5.34375 20.625 
Q 7.078125 23.78125 9.890625 25.6875 
Q 12.703125 27.59375 16.21875 28.5625 
Q 18.796875 29.25 24.03125 29.890625 
Q 34.671875 31.15625 39.703125 32.90625 
Q 39.75 34.71875 39.75 35.203125 
Q 39.75 40.578125 37.25 42.78125 
Q 33.890625 45.75 27.25 45.75 
Q 21.046875 45.75 18.09375 43.578125 
Q 15.140625 41.40625 13.71875 35.890625 
L 5.125 37.0625 
Q 6.296875 42.578125 8.984375 45.96875 
Q 11.671875 49.359375 16.75 51.1875 
Q 21.828125 53.03125 28.515625 53.03125 
Q 35.15625 53.03125 39.296875 51.46875 
Q 43.453125 49.90625 45.40625 47.53125 
Q 47.359375 45.171875 48.140625 41.546875 
Q 48.578125 39.3125 48.578125 33.453125 
L 48.578125 21.734375 
Q 48.578125 9.46875 49.140625 6.21875 
Q 49.703125 2.984375 51.375 0 
L 42.1875 0 
Q 40.828125 2.734375 40.4375 6.390625 
z
M 39.703125 26.03125 
Q 34.90625 24.078125 25.34375 22.703125 
Q 19.921875 21.921875 17.671875 20.9375 
Q 15.4375 19.96875 14.203125 18.09375 
Q 12.984375 16.21875 12.984375 13.921875 
Q 12.984375 10.40625 15.640625 8.0625 
Q 18.3125 5.71875 23.4375 5.71875 
Q 28.515625 5.71875 32.46875 7.9375 
Q 36.421875 10.15625 38.28125 14.015625 
Q 39.703125 17 39.703125 22.796875 
z
" id="ArialMT-97"/>
      <path d="M 6.390625 0 
L 6.390625 71.578125 
L 15.1875 71.578125 
L 15.1875 0 
z
" id="ArialMT-108"/>
     </defs>
     <g style="fill:#262626;" transform="translate(141.418332 325.884844)scale(0.12 -0.12)">
      <use xlink:href="#ArialMT-65"/>
      <use x="66.699219" xlink:href="#ArialMT-99"/>
      <use x="116.699219" xlink:href="#ArialMT-116"/>
      <use x="144.482422" xlink:href="#ArialMT-117"/>
      <use x="200.097656" xlink:href="#ArialMT-97"/>
      <use x="255.712891" xlink:href="#ArialMT-108"/>
     </g>
    </g>
   </g>
   <g id="matplotlib.axis_2">
    <g id="ytick_1">
     <g id="line2d_5">
      <path clip-path="url(#p5beeffe1c8)" d="M 44.216094 285.320755 
L 271.971196 285.320755 
" style="fill:none;stroke:#cccccc;stroke-dasharray:1,1.65;stroke-dashoffset:0;"/>
     </g>
     <g id="text_6">
      <!-- −4 -->
      <defs>
       <path d="M 32.328125 0 
L 32.328125 17.140625 
L 1.265625 17.140625 
L 1.265625 25.203125 
L 33.9375 71.578125 
L 41.109375 71.578125 
L 41.109375 25.203125 
L 50.78125 25.203125 
L 50.78125 17.140625 
L 41.109375 17.140625 
L 41.109375 0 
z
M 32.328125 25.203125 
L 32.328125 57.46875 
L 9.90625 25.203125 
z
" id="ArialMT-52"/>
      </defs>
      <g style="fill:#262626;" transform="translate(22.174375 289.257552)scale(0.11 -0.11)">
       <use xlink:href="#ArialMT-8722"/>
       <use x="58.398438" xlink:href="#ArialMT-52"/>
      </g>
     </g>
    </g>
    <g id="ytick_2">
     <g id="line2d_6">
      <path clip-path="url(#p5beeffe1c8)" d="M 44.216094 252.53177 
L 271.971196 252.53177 
" style="fill:none;stroke:#cccccc;stroke-dasharray:1,1.65;stroke-dashoffset:0;"/>
     </g>
     <g id="text_7">
      <!-- −3 -->
      <defs>
       <path d="M 4.203125 18.890625 
L 12.984375 20.0625 
Q 14.5 12.59375 18.140625 9.296875 
Q 21.78125 6 27 6 
Q 33.203125 6 37.46875 10.296875 
Q 41.75 14.59375 41.75 20.953125 
Q 41.75 27 37.796875 30.921875 
Q 33.84375 34.859375 27.734375 34.859375 
Q 25.25 34.859375 21.53125 33.890625 
L 22.515625 41.609375 
Q 23.390625 41.5 23.921875 41.5 
Q 29.546875 41.5 34.03125 44.421875 
Q 38.53125 47.359375 38.53125 53.46875 
Q 38.53125 58.296875 35.25 61.46875 
Q 31.984375 64.65625 26.8125 64.65625 
Q 21.6875 64.65625 18.265625 61.421875 
Q 14.84375 58.203125 13.875 51.765625 
L 5.078125 53.328125 
Q 6.6875 62.15625 12.390625 67.015625 
Q 18.109375 71.875 26.609375 71.875 
Q 32.46875 71.875 37.390625 69.359375 
Q 42.328125 66.84375 44.9375 62.5 
Q 47.5625 58.15625 47.5625 53.265625 
Q 47.5625 48.640625 45.0625 44.828125 
Q 42.578125 41.015625 37.703125 38.765625 
Q 44.046875 37.3125 47.5625 32.6875 
Q 51.078125 28.078125 51.078125 21.140625 
Q 51.078125 11.765625 44.234375 5.25 
Q 37.40625 -1.265625 26.953125 -1.265625 
Q 17.53125 -1.265625 11.296875 4.34375 
Q 5.078125 9.96875 4.203125 18.890625 
z
" id="ArialMT-51"/>
      </defs>
      <g style="fill:#262626;" transform="translate(22.174375 256.468566)scale(0.11 -0.11)">
       <use xlink:href="#ArialMT-8722"/>
       <use x="58.398438" xlink:href="#ArialMT-51"/>
      </g>
     </g>
    </g>
    <g id="ytick_3">
     <g id="line2d_7">
      <path clip-path="url(#p5beeffe1c8)" d="M 44.216094 219.742784 
L 271.971196 219.742784 
" style="fill:none;stroke:#cccccc;stroke-dasharray:1,1.65;stroke-dashoffset:0;"/>
     </g>
     <g id="text_8">
      <!-- −2 -->
      <g style="fill:#262626;" transform="translate(22.174375 223.679581)scale(0.11 -0.11)">
       <use xlink:href="#ArialMT-8722"/>
       <use x="58.398438" xlink:href="#ArialMT-50"/>
      </g>
     </g>
    </g>
    <g id="ytick_4">
     <g id="line2d_8">
      <path clip-path="url(#p5beeffe1c8)" d="M 44.216094 186.953799 
L 271.971196 186.953799 
" style="fill:none;stroke:#cccccc;stroke-dasharray:1,1.65;stroke-dashoffset:0;"/>
     </g>
     <g id="text_9">
      <!-- −1 -->
      <g style="fill:#262626;" transform="translate(22.174375 190.890596)scale(0.11 -0.11)">
       <use xlink:href="#ArialMT-8722"/>
       <use x="58.398438" xlink:href="#ArialMT-49"/>
      </g>
     </g>
    </g>
    <g id="ytick_5">
     <g id="line2d_9">
      <path clip-path="url(#p5beeffe1c8)" d="M 44.216094 154.164814 
L 271.971196 154.164814 
" style="fill:none;stroke:#cccccc;stroke-dasharray:1,1.65;stroke-dashoffset:0;"/>
     </g>
     <g id="text_10">
      <!-- 0 -->
      <g style="fill:#262626;" transform="translate(28.599063 158.101611)scale(0.11 -0.11)">
       <use xlink:href="#ArialMT-48"/>
      </g>
     </g>
    </g>
    <g id="ytick_6">
     <g id="line2d_10">
      <path clip-path="url(#p5beeffe1c8)" d="M 44.216094 121.375829 
L 271.971196 121.375829 
" style="fill:none;stroke:#cccccc;stroke-dasharray:1,1.65;stroke-dashoffset:0;"/>
     </g>
     <g id="text_11">
      <!-- 1 -->
      <g style="fill:#262626;" transform="translate(28.599063 125.312626)scale(0.11 -0.11)">
       <use xlink:href="#ArialMT-49"/>
      </g>
     </g>
    </g>
    <g id="ytick_7">
     <g id="line2d_11">
      <path clip-path="url(#p5beeffe1c8)" d="M 44.216094 88.586844 
L 271.971196 88.586844 
" style="fill:none;stroke:#cccccc;stroke-dasharray:1,1.65;stroke-dashoffset:0;"/>
     </g>
     <g id="text_12">
      <!-- 2 -->
      <g style="fill:#262626;" transform="translate(28.599063 92.523641)scale(0.11 -0.11)">
       <use xlink:href="#ArialMT-50"/>
      </g>
     </g>
    </g>
    <g id="ytick_8">
     <g id="line2d_12">
      <path clip-path="url(#p5beeffe1c8)" d="M 44.216094 55.797859 
L 271.971196 55.797859 
" style="fill:none;stroke:#cccccc;stroke-dasharray:1,1.65;stroke-dashoffset:0;"/>
     </g>
     <g id="text_13">
      <!-- 3 -->
      <g style="fill:#262626;" transform="translate(28.599063 59.734656)scale(0.11 -0.11)">
       <use xlink:href="#ArialMT-51"/>
      </g>
     </g>
    </g>
    <g id="ytick_9">
     <g id="line2d_13">
      <path clip-path="url(#p5beeffe1c8)" d="M 44.216094 23.008874 
L 271.971196 23.008874 
" style="fill:none;stroke:#cccccc;stroke-dasharray:1,1.65;stroke-dashoffset:0;"/>
     </g>
     <g id="text_14">
      <!-- 4 -->
      <g style="fill:#262626;" transform="translate(28.599063 26.945671)scale(0.11 -0.11)">
       <use xlink:href="#ArialMT-52"/>
      </g>
     </g>
    </g>
    <g id="text_15">
     <!-- Predicted -->
     <defs>
      <path d="M 7.71875 0 
L 7.71875 71.578125 
L 34.71875 71.578125 
Q 41.84375 71.578125 45.609375 70.90625 
Q 50.875 70.015625 54.4375 67.546875 
Q 58.015625 65.09375 60.1875 60.640625 
Q 62.359375 56.203125 62.359375 50.875 
Q 62.359375 41.75 56.546875 35.421875 
Q 50.734375 29.109375 35.546875 29.109375 
L 17.1875 29.109375 
L 17.1875 0 
z
M 17.1875 37.546875 
L 35.6875 37.546875 
Q 44.875 37.546875 48.734375 40.96875 
Q 52.59375 44.390625 52.59375 50.59375 
Q 52.59375 55.078125 50.3125 58.265625 
Q 48.046875 61.46875 44.34375 62.5 
Q 41.9375 63.140625 35.5 63.140625 
L 17.1875 63.140625 
z
" id="ArialMT-80"/>
      <path d="M 6.5 0 
L 6.5 51.859375 
L 14.40625 51.859375 
L 14.40625 44 
Q 17.4375 49.515625 20 51.265625 
Q 22.5625 53.03125 25.640625 53.03125 
Q 30.078125 53.03125 34.671875 50.203125 
L 31.640625 42.046875 
Q 28.421875 43.953125 25.203125 43.953125 
Q 22.3125 43.953125 20.015625 42.21875 
Q 17.71875 40.484375 16.75 37.40625 
Q 15.28125 32.71875 15.28125 27.15625 
L 15.28125 0 
z
" id="ArialMT-114"/>
      <path d="M 42.09375 16.703125 
L 51.171875 15.578125 
Q 49.03125 7.625 43.21875 3.21875 
Q 37.40625 -1.171875 28.375 -1.171875 
Q 17 -1.171875 10.328125 5.828125 
Q 3.65625 12.84375 3.65625 25.484375 
Q 3.65625 38.578125 10.390625 45.796875 
Q 17.140625 53.03125 27.875 53.03125 
Q 38.28125 53.03125 44.875 45.953125 
Q 51.46875 38.875 51.46875 26.03125 
Q 51.46875 25.25 51.421875 23.6875 
L 12.75 23.6875 
Q 13.234375 15.140625 17.578125 10.59375 
Q 21.921875 6.0625 28.421875 6.0625 
Q 33.25 6.0625 36.671875 8.59375 
Q 40.09375 11.140625 42.09375 16.703125 
z
M 13.234375 30.90625 
L 42.1875 30.90625 
Q 41.609375 37.453125 38.875 40.71875 
Q 34.671875 45.796875 27.984375 45.796875 
Q 21.921875 45.796875 17.796875 41.75 
Q 13.671875 37.703125 13.234375 30.90625 
z
" id="ArialMT-101"/>
      <path d="M 40.234375 0 
L 40.234375 6.546875 
Q 35.296875 -1.171875 25.734375 -1.171875 
Q 19.53125 -1.171875 14.328125 2.25 
Q 9.125 5.671875 6.265625 11.796875 
Q 3.421875 17.921875 3.421875 25.875 
Q 3.421875 33.640625 6 39.96875 
Q 8.59375 46.296875 13.765625 49.65625 
Q 18.953125 53.03125 25.34375 53.03125 
Q 30.03125 53.03125 33.6875 51.046875 
Q 37.359375 49.078125 39.65625 45.90625 
L 39.65625 71.578125 
L 48.390625 71.578125 
L 48.390625 0 
z
M 12.453125 25.875 
Q 12.453125 15.921875 16.640625 10.984375 
Q 20.84375 6.0625 26.5625 6.0625 
Q 32.328125 6.0625 36.34375 10.765625 
Q 40.375 15.484375 40.375 25.140625 
Q 40.375 35.796875 36.265625 40.765625 
Q 32.171875 45.75 26.171875 45.75 
Q 20.3125 45.75 16.375 40.96875 
Q 12.453125 36.1875 12.453125 25.875 
z
" id="ArialMT-100"/>
      <path d="M 6.640625 61.46875 
L 6.640625 71.578125 
L 15.4375 71.578125 
L 15.4375 61.46875 
z
M 6.640625 0 
L 6.640625 51.859375 
L 15.4375 51.859375 
L 15.4375 0 
z
" id="ArialMT-105"/>
     </defs>
     <g style="fill:#262626;" transform="translate(15.789375 183.181875)rotate(-90)scale(0.12 -0.12)">
      <use xlink:href="#ArialMT-80"/>
      <use x="66.699219" xlink:href="#ArialMT-114"/>
      <use x="100" xlink:href="#ArialMT-101"/>
      <use x="155.615234" xlink:href="#ArialMT-100"/>
      <use x="211.230469" xlink:href="#ArialMT-105"/>
      <use x="233.447266" xlink:href="#ArialMT-99"/>
      <use x="283.447266" xlink:href="#ArialMT-116"/>
      <use x="311.230469" xlink:href="#ArialMT-101"/>
      <use x="366.845703" xlink:href="#ArialMT-100"/>
     </g>
    </g>
   </g>
   <g id="PathCollection_1">
    <defs>
     <path d="M 0 3 
C 0.795609 3 1.55874 2.683901 2.12132 2.12132 
C 2.683901 1.55874 3 0.795609 3 0 
C 3 -0.795609 2.683901 -1.55874 2.12132 -2.12132 
C 1.55874 -2.683901 0.795609 -3 0 -3 
C -0.795609 -3 -1.55874 -2.683901 -2.12132 -2.12132 
C -2.683901 -1.55874 -3 -0.795609 -3 0 
C -3 0.795609 -2.683901 1.55874 -2.12132 2.12132 
C -1.55874 2.683901 -0.795609 3 0 3 
z
" id="mbab24dbefa" style="stroke:#0173b2;"/>
    </defs>
    <g clip-path="url(#p5beeffe1c8)">
     <use style="fill:#0173b2;stroke:#0173b2;" x="261.618691" xlink:href="#mbab24dbefa" y="142.493654"/>
     <use style="fill:#0173b2;stroke:#0173b2;" x="100.062958" xlink:href="#mbab24dbefa" y="108.819401"/>
     <use style="fill:#0173b2;stroke:#0173b2;" x="106.357005" xlink:href="#mbab24dbefa" y="139.054387"/>
     <use style="fill:#0173b2;stroke:#0173b2;" x="61.176108" xlink:href="#mbab24dbefa" y="162.24675"/>
     <use style="fill:#0173b2;stroke:#0173b2;" x="154.684923" xlink:href="#mbab24dbefa" y="127.602698"/>
     <use style="fill:#0173b2;stroke:#0173b2;" x="204.950588" xlink:href="#mbab24dbefa" y="166.617538"/>
     <use style="fill:#0173b2;stroke:#0173b2;" x="115.717432" xlink:href="#mbab24dbefa" y="137.051888"/>
     <use style="fill:#0173b2;stroke:#0173b2;" x="73.150676" xlink:href="#mbab24dbefa" y="161.953105"/>
     <use style="fill:#0173b2;stroke:#0173b2;" x="96.226116" xlink:href="#mbab24dbefa" y="180.846251"/>
     <use style="fill:#0173b2;stroke:#0173b2;" x="54.568598" xlink:href="#mbab24dbefa" y="202.560992"/>
    </g>
   </g>
   <g id="line2d_14">
    <path clip-path="url(#p5beeffe1c8)" d="M 54.568598 161.462533 
L 61.176108 160.63635 
L 73.150676 159.139085 
L 96.226116 156.253801 
L 100.062958 155.774054 
L 106.357005 154.987065 
L 115.717432 153.816665 
L 154.684923 148.944286 
L 204.950588 142.659217 
L 261.618691 135.573607 
" style="fill:none;stroke:#d55e00;stroke-linecap:round;stroke-width:1.5;"/>
   </g>
   <g id="patch_3">
    <path d="M 44.216094 293.735625 
L 44.216094 21.935625 
" style="fill:none;stroke:#cccccc;stroke-linecap:square;stroke-linejoin:miter;stroke-width:0.6;"/>
   </g>
   <g id="patch_4">
    <path d="M 271.971196 293.735625 
L 271.971196 21.935625 
" style="fill:none;stroke:#cccccc;stroke-linecap:square;stroke-linejoin:miter;stroke-width:0.6;"/>
   </g>
   <g id="patch_5">
    <path d="M 44.216094 293.735625 
L 271.971196 293.735625 
" style="fill:none;stroke:#cccccc;stroke-linecap:square;stroke-linejoin:miter;stroke-width:0.6;"/>
   </g>
   <g id="patch_6">
    <path d="M 44.216094 21.935625 
L 271.971196 21.935625 
" style="fill:none;stroke:#cccccc;stroke-linecap:square;stroke-linejoin:miter;stroke-width:0.6;"/>
   </g>
   <g id="text_16">
    <g id="patch_7">
     <path d="M 211.43242 281.13 
L 273.95242 281.13 
L 273.95242 262.955625 
L 211.43242 262.955625 
z
" style="fill:none;opacity:0.5;stroke:#000000;stroke-linejoin:miter;"/>
    </g>
    <!-- $r$ = 0.3027 -->
    <defs>
     <path d="M 44.578125 46.390625 
Q 43.21875 47.125 41.453125 47.515625 
Q 39.703125 47.90625 37.703125 47.90625 
Q 30.515625 47.90625 25.140625 42.453125 
Q 19.78125 37.015625 18.015625 27.875 
L 12.5 0 
L 3.515625 0 
L 14.203125 54.6875 
L 23.1875 54.6875 
L 21.484375 46.1875 
Q 25.046875 50.921875 30 53.453125 
Q 34.96875 56 40.578125 56 
Q 42.046875 56 43.453125 55.828125 
Q 44.875 55.671875 46.296875 55.28125 
z
" id="DejaVuSans-Oblique-114"/>
     <path id="ArialMT-32"/>
     <path d="M 52.828125 42.09375 
L 5.5625 42.09375 
L 5.5625 50.296875 
L 52.828125 50.296875 
z
M 52.828125 20.359375 
L 5.5625 20.359375 
L 5.5625 28.5625 
L 52.828125 28.5625 
z
" id="ArialMT-61"/>
     <path d="M 9.078125 0 
L 9.078125 10.015625 
L 19.09375 10.015625 
L 19.09375 0 
z
" id="ArialMT-46"/>
     <path d="M 4.734375 62.203125 
L 4.734375 70.65625 
L 51.078125 70.65625 
L 51.078125 63.8125 
Q 44.234375 56.546875 37.515625 44.484375 
Q 30.8125 32.421875 27.15625 19.671875 
Q 24.515625 10.6875 23.78125 0 
L 14.75 0 
Q 14.890625 8.453125 18.0625 20.40625 
Q 21.234375 32.375 27.171875 43.484375 
Q 33.109375 54.59375 39.796875 62.203125 
z
" id="ArialMT-55"/>
    </defs>
    <g style="fill:#262626;" transform="translate(215.03242 275.145)scale(0.12 -0.12)">
     <use transform="translate(0 0.125)" xlink:href="#DejaVuSans-Oblique-114"/>
     <use transform="translate(41.113281 0.125)" xlink:href="#ArialMT-32"/>
     <use transform="translate(68.896484 0.125)" xlink:href="#ArialMT-61"/>
     <use transform="translate(127.294922 0.125)" xlink:href="#ArialMT-32"/>
     <use transform="translate(155.078125 0.125)" xlink:href="#ArialMT-48"/>
     <use transform="translate(210.693359 0.125)" xlink:href="#ArialMT-46"/>
     <use transform="translate(238.476562 0.125)" xlink:href="#ArialMT-51"/>
     <use transform="translate(294.091797 0.125)" xlink:href="#ArialMT-48"/>
     <use transform="translate(349.707031 0.125)" xlink:href="#ArialMT-50"/>
     <use transform="translate(405.322266 0.125)" xlink:href="#ArialMT-55"/>
    </g>
   </g>
   <g id="text_17">
    <!-- Cell Viability -->
    <defs>
     <path d="M 58.796875 25.09375 
L 68.265625 22.703125 
Q 65.28125 11.03125 57.546875 4.90625 
Q 49.8125 -1.21875 38.625 -1.21875 
Q 27.046875 -1.21875 19.796875 3.484375 
Q 12.546875 8.203125 8.765625 17.140625 
Q 4.984375 26.078125 4.984375 36.328125 
Q 4.984375 47.515625 9.25 55.828125 
Q 13.53125 64.15625 21.40625 68.46875 
Q 29.296875 72.796875 38.765625 72.796875 
Q 49.515625 72.796875 56.828125 67.328125 
Q 64.15625 61.859375 67.046875 51.953125 
L 57.71875 49.75 
Q 55.21875 57.5625 50.484375 61.125 
Q 45.75 64.703125 38.578125 64.703125 
Q 30.328125 64.703125 24.78125 60.734375 
Q 19.234375 56.78125 16.984375 50.109375 
Q 14.75 43.453125 14.75 36.375 
Q 14.75 27.25 17.40625 20.4375 
Q 20.0625 13.625 25.671875 10.25 
Q 31.296875 6.890625 37.84375 6.890625 
Q 45.796875 6.890625 51.3125 11.46875 
Q 56.84375 16.0625 58.796875 25.09375 
z
" id="ArialMT-67"/>
     <path d="M 28.171875 0 
L 0.4375 71.578125 
L 10.6875 71.578125 
L 29.296875 19.578125 
Q 31.546875 13.328125 33.0625 7.859375 
Q 34.71875 13.71875 36.921875 19.578125 
L 56.25 71.578125 
L 65.921875 71.578125 
L 37.890625 0 
z
" id="ArialMT-86"/>
     <path d="M 14.703125 0 
L 6.546875 0 
L 6.546875 71.578125 
L 15.328125 71.578125 
L 15.328125 46.046875 
Q 20.90625 53.03125 29.546875 53.03125 
Q 34.328125 53.03125 38.59375 51.09375 
Q 42.875 49.171875 45.625 45.671875 
Q 48.390625 42.1875 49.953125 37.25 
Q 51.515625 32.328125 51.515625 26.703125 
Q 51.515625 13.375 44.921875 6.09375 
Q 38.328125 -1.171875 29.109375 -1.171875 
Q 19.921875 -1.171875 14.703125 6.5 
z
M 14.59375 26.3125 
Q 14.59375 17 17.140625 12.84375 
Q 21.296875 6.0625 28.375 6.0625 
Q 34.125 6.0625 38.328125 11.0625 
Q 42.53125 16.0625 42.53125 25.984375 
Q 42.53125 36.140625 38.5 40.96875 
Q 34.46875 45.796875 28.765625 45.796875 
Q 23 45.796875 18.796875 40.796875 
Q 14.59375 35.796875 14.59375 26.3125 
z
" id="ArialMT-98"/>
     <path d="M 6.203125 -19.96875 
L 5.21875 -11.71875 
Q 8.109375 -12.5 10.25 -12.5 
Q 13.1875 -12.5 14.9375 -11.515625 
Q 16.703125 -10.546875 17.828125 -8.796875 
Q 18.65625 -7.46875 20.515625 -2.25 
Q 20.75 -1.515625 21.296875 -0.09375 
L 1.609375 51.859375 
L 11.078125 51.859375 
L 21.875 21.828125 
Q 23.96875 16.109375 25.640625 9.8125 
Q 27.15625 15.875 29.25 21.625 
L 40.328125 51.859375 
L 49.125 51.859375 
L 29.390625 -0.875 
Q 26.21875 -9.421875 24.46875 -12.640625 
Q 22.125 -17 19.09375 -19.015625 
Q 16.0625 -21.046875 11.859375 -21.046875 
Q 9.328125 -21.046875 6.203125 -19.96875 
z
" id="ArialMT-121"/>
    </defs>
    <g style="fill:#262626;" transform="translate(125.521145 15.935625)scale(0.12 -0.12)">
     <use xlink:href="#ArialMT-67"/>
     <use x="72.216797" xlink:href="#ArialMT-101"/>
     <use x="127.832031" xlink:href="#ArialMT-108"/>
     <use x="150.048828" xlink:href="#ArialMT-108"/>
     <use x="172.265625" xlink:href="#ArialMT-32"/>
     <use x="200.048828" xlink:href="#ArialMT-86"/>
     <use x="264.998047" xlink:href="#ArialMT-105"/>
     <use x="287.214844" xlink:href="#ArialMT-97"/>
     <use x="342.830078" xlink:href="#ArialMT-98"/>
     <use x="398.445312" xlink:href="#ArialMT-105"/>
     <use x="420.662109" xlink:href="#ArialMT-108"/>
     <use x="442.878906" xlink:href="#ArialMT-105"/>
     <use x="465.095703" xlink:href="#ArialMT-116"/>
     <use x="492.878906" xlink:href="#ArialMT-121"/>
    </g>
   </g>
  </g>
  <g id="axes_2">
   <g id="patch_8">
    <path d="M 340.297726 293.735625 
L 568.052828 293.735625 
L 568.052828 21.935625 
L 340.297726 21.935625 
z
" style="fill:#ffffff;"/>
   </g>
   <g id="matplotlib.axis_3">
    <g id="xtick_5">
     <g id="line2d_15">
      <path clip-path="url(#p6701e79614)" d="M 356.08572 293.735625 
L 356.08572 21.935625 
" style="fill:none;stroke:#cccccc;stroke-dasharray:1,1.65;stroke-dashoffset:0;"/>
     </g>
     <g id="text_18">
      <!-- −1 -->
      <g style="fill:#262626;" transform="translate(349.814861 311.109219)scale(0.11 -0.11)">
       <use xlink:href="#ArialMT-8722"/>
       <use x="58.398438" xlink:href="#ArialMT-49"/>
      </g>
     </g>
    </g>
    <g id="xtick_6">
     <g id="line2d_16">
      <path clip-path="url(#p6701e79614)" d="M 418.932942 293.735625 
L 418.932942 21.935625 
" style="fill:none;stroke:#cccccc;stroke-dasharray:1,1.65;stroke-dashoffset:0;"/>
     </g>
     <g id="text_19">
      <!-- 0 -->
      <g style="fill:#262626;" transform="translate(415.874427 311.109219)scale(0.11 -0.11)">
       <use xlink:href="#ArialMT-48"/>
      </g>
     </g>
    </g>
    <g id="xtick_7">
     <g id="line2d_17">
      <path clip-path="url(#p6701e79614)" d="M 481.780164 293.735625 
L 481.780164 21.935625 
" style="fill:none;stroke:#cccccc;stroke-dasharray:1,1.65;stroke-dashoffset:0;"/>
     </g>
     <g id="text_20">
      <!-- 1 -->
      <g style="fill:#262626;" transform="translate(478.721648 311.109219)scale(0.11 -0.11)">
       <use xlink:href="#ArialMT-49"/>
      </g>
     </g>
    </g>
    <g id="xtick_8">
     <g id="line2d_18">
      <path clip-path="url(#p6701e79614)" d="M 544.627386 293.735625 
L 544.627386 21.935625 
" style="fill:none;stroke:#cccccc;stroke-dasharray:1,1.65;stroke-dashoffset:0;"/>
     </g>
     <g id="text_21">
      <!-- 2 -->
      <g style="fill:#262626;" transform="translate(541.56887 311.109219)scale(0.11 -0.11)">
       <use xlink:href="#ArialMT-50"/>
      </g>
     </g>
    </g>
    <g id="text_22">
     <!-- Actual -->
     <g style="fill:#262626;" transform="translate(437.499965 325.884844)scale(0.12 -0.12)">
      <use xlink:href="#ArialMT-65"/>
      <use x="66.699219" xlink:href="#ArialMT-99"/>
      <use x="116.699219" xlink:href="#ArialMT-116"/>
      <use x="144.482422" xlink:href="#ArialMT-117"/>
      <use x="200.097656" xlink:href="#ArialMT-97"/>
      <use x="255.712891" xlink:href="#ArialMT-108"/>
     </g>
    </g>
   </g>
   <g id="matplotlib.axis_4">
    <g id="ytick_10">
     <g id="line2d_19">
      <path clip-path="url(#p6701e79614)" d="M 340.297726 285.320755 
L 568.052828 285.320755 
" style="fill:none;stroke:#cccccc;stroke-dasharray:1,1.65;stroke-dashoffset:0;"/>
     </g>
     <g id="text_23">
      <!-- −4 -->
      <g style="fill:#262626;" transform="translate(318.256008 289.257552)scale(0.11 -0.11)">
       <use xlink:href="#ArialMT-8722"/>
       <use x="58.398438" xlink:href="#ArialMT-52"/>
      </g>
     </g>
    </g>
    <g id="ytick_11">
     <g id="line2d_20">
      <path clip-path="url(#p6701e79614)" d="M 340.297726 252.53177 
L 568.052828 252.53177 
" style="fill:none;stroke:#cccccc;stroke-dasharray:1,1.65;stroke-dashoffset:0;"/>
     </g>
     <g id="text_24">
      <!-- −3 -->
      <g style="fill:#262626;" transform="translate(318.256008 256.468566)scale(0.11 -0.11)">
       <use xlink:href="#ArialMT-8722"/>
       <use x="58.398438" xlink:href="#ArialMT-51"/>
      </g>
     </g>
    </g>
    <g id="ytick_12">
     <g id="line2d_21">
      <path clip-path="url(#p6701e79614)" d="M 340.297726 219.742784 
L 568.052828 219.742784 
" style="fill:none;stroke:#cccccc;stroke-dasharray:1,1.65;stroke-dashoffset:0;"/>
     </g>
     <g id="text_25">
      <!-- −2 -->
      <g style="fill:#262626;" transform="translate(318.256008 223.679581)scale(0.11 -0.11)">
       <use xlink:href="#ArialMT-8722"/>
       <use x="58.398438" xlink:href="#ArialMT-50"/>
      </g>
     </g>
    </g>
    <g id="ytick_13">
     <g id="line2d_22">
      <path clip-path="url(#p6701e79614)" d="M 340.297726 186.953799 
L 568.052828 186.953799 
" style="fill:none;stroke:#cccccc;stroke-dasharray:1,1.65;stroke-dashoffset:0;"/>
     </g>
     <g id="text_26">
      <!-- −1 -->
      <g style="fill:#262626;" transform="translate(318.256008 190.890596)scale(0.11 -0.11)">
       <use xlink:href="#ArialMT-8722"/>
       <use x="58.398438" xlink:href="#ArialMT-49"/>
      </g>
     </g>
    </g>
    <g id="ytick_14">
     <g id="line2d_23">
      <path clip-path="url(#p6701e79614)" d="M 340.297726 154.164814 
L 568.052828 154.164814 
" style="fill:none;stroke:#cccccc;stroke-dasharray:1,1.65;stroke-dashoffset:0;"/>
     </g>
     <g id="text_27">
      <!-- 0 -->
      <g style="fill:#262626;" transform="translate(324.680695 158.101611)scale(0.11 -0.11)">
       <use xlink:href="#ArialMT-48"/>
      </g>
     </g>
    </g>
    <g id="ytick_15">
     <g id="line2d_24">
      <path clip-path="url(#p6701e79614)" d="M 340.297726 121.375829 
L 568.052828 121.375829 
" style="fill:none;stroke:#cccccc;stroke-dasharray:1,1.65;stroke-dashoffset:0;"/>
     </g>
     <g id="text_28">
      <!-- 1 -->
      <g style="fill:#262626;" transform="translate(324.680695 125.312626)scale(0.11 -0.11)">
       <use xlink:href="#ArialMT-49"/>
      </g>
     </g>
    </g>
    <g id="ytick_16">
     <g id="line2d_25">
      <path clip-path="url(#p6701e79614)" d="M 340.297726 88.586844 
L 568.052828 88.586844 
" style="fill:none;stroke:#cccccc;stroke-dasharray:1,1.65;stroke-dashoffset:0;"/>
     </g>
     <g id="text_29">
      <!-- 2 -->
      <g style="fill:#262626;" transform="translate(324.680695 92.523641)scale(0.11 -0.11)">
       <use xlink:href="#ArialMT-50"/>
      </g>
     </g>
    </g>
    <g id="ytick_17">
     <g id="line2d_26">
      <path clip-path="url(#p6701e79614)" d="M 340.297726 55.797859 
L 568.052828 55.797859 
" style="fill:none;stroke:#cccccc;stroke-dasharray:1,1.65;stroke-dashoffset:0;"/>
     </g>
     <g id="text_30">
      <!-- 3 -->
      <g style="fill:#262626;" transform="translate(324.680695 59.734656)scale(0.11 -0.11)">
       <use xlink:href="#ArialMT-51"/>
      </g>
     </g>
    </g>
    <g id="ytick_18">
     <g id="line2d_27">
      <path clip-path="url(#p6701e79614)" d="M 340.297726 23.008874 
L 568.052828 23.008874 
" style="fill:none;stroke:#cccccc;stroke-dasharray:1,1.65;stroke-dashoffset:0;"/>
     </g>
     <g id="text_31">
      <!-- 4 -->
      <g style="fill:#262626;" transform="translate(324.680695 26.945671)scale(0.11 -0.11)">
       <use xlink:href="#ArialMT-52"/>
      </g>
     </g>
    </g>
    <g id="text_32">
     <!-- Predicted -->
     <g style="fill:#262626;" transform="translate(311.871008 183.181875)rotate(-90)scale(0.12 -0.12)">
      <use xlink:href="#ArialMT-80"/>
      <use x="66.699219" xlink:href="#ArialMT-114"/>
      <use x="100" xlink:href="#ArialMT-101"/>
      <use x="155.615234" xlink:href="#ArialMT-100"/>
      <use x="211.230469" xlink:href="#ArialMT-105"/>
      <use x="233.447266" xlink:href="#ArialMT-99"/>
      <use x="283.447266" xlink:href="#ArialMT-116"/>
      <use x="311.230469" xlink:href="#ArialMT-101"/>
      <use x="366.845703" xlink:href="#ArialMT-100"/>
     </g>
    </g>
   </g>
   <g id="PathCollection_2">
    <g clip-path="url(#p6701e79614)">
     <use style="fill:#0173b2;stroke:#0173b2;" x="557.700324" xlink:href="#mbab24dbefa" y="127.145199"/>
     <use style="fill:#0173b2;stroke:#0173b2;" x="396.14459" xlink:href="#mbab24dbefa" y="91.880809"/>
     <use style="fill:#0173b2;stroke:#0173b2;" x="402.438637" xlink:href="#mbab24dbefa" y="137.673383"/>
     <use style="fill:#0173b2;stroke:#0173b2;" x="357.257741" xlink:href="#mbab24dbefa" y="169.57499"/>
     <use style="fill:#0173b2;stroke:#0173b2;" x="450.766556" xlink:href="#mbab24dbefa" y="134.481788"/>
     <use style="fill:#0173b2;stroke:#0173b2;" x="501.032221" xlink:href="#mbab24dbefa" y="165.108228"/>
     <use style="fill:#0173b2;stroke:#0173b2;" x="411.799065" xlink:href="#mbab24dbefa" y="132.952412"/>
     <use style="fill:#0173b2;stroke:#0173b2;" x="369.232308" xlink:href="#mbab24dbefa" y="149.933616"/>
     <use style="fill:#0173b2;stroke:#0173b2;" x="392.307749" xlink:href="#mbab24dbefa" y="186.445913"/>
     <use style="fill:#0173b2;stroke:#0173b2;" x="350.650231" xlink:href="#mbab24dbefa" y="212.330477"/>
    </g>
   </g>
   <g id="line2d_28">
    <path clip-path="url(#p6701e79614)" d="M 350.650231 163.210614 
L 357.257741 162.005098 
L 369.232308 159.820381 
L 392.307749 155.610351 
L 396.14459 154.910333 
L 402.438637 153.762007 
L 411.799065 152.054232 
L 450.766556 144.944755 
L 501.032221 135.773967 
L 557.700324 125.435078 
" style="fill:none;stroke:#d55e00;stroke-linecap:round;stroke-width:1.5;"/>
   </g>
   <g id="patch_9">
    <path d="M 340.297726 293.735625 
L 340.297726 21.935625 
" style="fill:none;stroke:#cccccc;stroke-linecap:square;stroke-linejoin:miter;stroke-width:0.6;"/>
   </g>
   <g id="patch_10">
    <path d="M 568.052828 293.735625 
L 568.052828 21.935625 
" style="fill:none;stroke:#cccccc;stroke-linecap:square;stroke-linejoin:miter;stroke-width:0.6;"/>
   </g>
   <g id="patch_11">
    <path d="M 340.297726 293.735625 
L 568.052828 293.735625 
" style="fill:none;stroke:#cccccc;stroke-linecap:square;stroke-linejoin:miter;stroke-width:0.6;"/>
   </g>
   <g id="patch_12">
    <path d="M 340.297726 21.935625 
L 568.052828 21.935625 
" style="fill:none;stroke:#cccccc;stroke-linecap:square;stroke-linejoin:miter;stroke-width:0.6;"/>
   </g>
   <g id="text_33">
    <g id="patch_13">
     <path d="M 507.514053 281.13 
L 570.034053 281.13 
L 570.034053 262.955625 
L 507.514053 262.955625 
z
" style="fill:none;opacity:0.5;stroke:#000000;stroke-linejoin:miter;"/>
    </g>
    <!-- $r$ = 0.3555 -->
    <defs>
     <path d="M 4.15625 18.75 
L 13.375 19.53125 
Q 14.40625 12.796875 18.140625 9.390625 
Q 21.875 6 27.15625 6 
Q 33.5 6 37.890625 10.78125 
Q 42.28125 15.578125 42.28125 23.484375 
Q 42.28125 31 38.0625 35.34375 
Q 33.84375 39.703125 27 39.703125 
Q 22.75 39.703125 19.328125 37.765625 
Q 15.921875 35.84375 13.96875 32.765625 
L 5.71875 33.84375 
L 12.640625 70.609375 
L 48.25 70.609375 
L 48.25 62.203125 
L 19.671875 62.203125 
L 15.828125 42.96875 
Q 22.265625 47.46875 29.34375 47.46875 
Q 38.71875 47.46875 45.15625 40.96875 
Q 51.609375 34.46875 51.609375 24.265625 
Q 51.609375 14.546875 45.953125 7.46875 
Q 39.0625 -1.21875 27.15625 -1.21875 
Q 17.390625 -1.21875 11.203125 4.25 
Q 5.03125 9.71875 4.15625 18.75 
z
" id="ArialMT-53"/>
    </defs>
    <g style="fill:#262626;" transform="translate(511.114053 275.145)scale(0.12 -0.12)">
     <use transform="translate(0 0.125)" xlink:href="#DejaVuSans-Oblique-114"/>
     <use transform="translate(41.113281 0.125)" xlink:href="#ArialMT-32"/>
     <use transform="translate(68.896484 0.125)" xlink:href="#ArialMT-61"/>
     <use transform="translate(127.294922 0.125)" xlink:href="#ArialMT-32"/>
     <use transform="translate(155.078125 0.125)" xlink:href="#ArialMT-48"/>
     <use transform="translate(210.693359 0.125)" xlink:href="#ArialMT-46"/>
     <use transform="translate(238.476562 0.125)" xlink:href="#ArialMT-51"/>
     <use transform="translate(294.091797 0.125)" xlink:href="#ArialMT-53"/>
     <use transform="translate(349.707031 0.125)" xlink:href="#ArialMT-53"/>
     <use transform="translate(405.322266 0.125)" xlink:href="#ArialMT-53"/>
    </g>
   </g>
   <g id="text_34">
    <!-- Cell Viability -->
    <g style="fill:#262626;" transform="translate(421.602777 15.935625)scale(0.12 -0.12)">
     <use xlink:href="#ArialMT-67"/>
     <use x="72.216797" xlink:href="#ArialMT-101"/>
     <use x="127.832031" xlink:href="#ArialMT-108"/>
     <use x="150.048828" xlink:href="#ArialMT-108"/>
     <use x="172.265625" xlink:href="#ArialMT-32"/>
     <use x="200.048828" xlink:href="#ArialMT-86"/>
     <use x="264.998047" xlink:href="#ArialMT-105"/>
     <use x="287.214844" xlink:href="#ArialMT-97"/>
     <use x="342.830078" xlink:href="#ArialMT-98"/>
     <use x="398.445312" xlink:href="#ArialMT-105"/>
     <use x="420.662109" xlink:href="#ArialMT-108"/>
     <use x="442.878906" xlink:href="#ArialMT-105"/>
     <use x="465.095703" xlink:href="#ArialMT-116"/>
     <use x="492.878906" xlink:href="#ArialMT-121"/>
    </g>
   </g>
  </g>
  <g id="axes_3">
   <g id="patch_14">
    <path d="M 636.379359 293.735625 
L 864.134461 293.735625 
L 864.134461 21.935625 
L 636.379359 21.935625 
z
" style="fill:#ffffff;"/>
   </g>
   <g id="matplotlib.axis_5">
    <g id="xtick_9">
     <g id="line2d_29">
      <path clip-path="url(#pacfc3e856a)" d="M 652.167353 293.735625 
L 652.167353 21.935625 
" style="fill:none;stroke:#cccccc;stroke-dasharray:1,1.65;stroke-dashoffset:0;"/>
     </g>
     <g id="text_35">
      <!-- −1 -->
      <g style="fill:#262626;" transform="translate(645.896494 311.109219)scale(0.11 -0.11)">
       <use xlink:href="#ArialMT-8722"/>
       <use x="58.398438" xlink:href="#ArialMT-49"/>
      </g>
     </g>
    </g>
    <g id="xtick_10">
     <g id="line2d_30">
      <path clip-path="url(#pacfc3e856a)" d="M 715.014575 293.735625 
L 715.014575 21.935625 
" style="fill:none;stroke:#cccccc;stroke-dasharray:1,1.65;stroke-dashoffset:0;"/>
     </g>
     <g id="text_36">
      <!-- 0 -->
      <g style="fill:#262626;" transform="translate(711.956059 311.109219)scale(0.11 -0.11)">
       <use xlink:href="#ArialMT-48"/>
      </g>
     </g>
    </g>
    <g id="xtick_11">
     <g id="line2d_31">
      <path clip-path="url(#pacfc3e856a)" d="M 777.861797 293.735625 
L 777.861797 21.935625 
" style="fill:none;stroke:#cccccc;stroke-dasharray:1,1.65;stroke-dashoffset:0;"/>
     </g>
     <g id="text_37">
      <!-- 1 -->
      <g style="fill:#262626;" transform="translate(774.803281 311.109219)scale(0.11 -0.11)">
       <use xlink:href="#ArialMT-49"/>
      </g>
     </g>
    </g>
    <g id="xtick_12">
     <g id="line2d_32">
      <path clip-path="url(#pacfc3e856a)" d="M 840.709019 293.735625 
L 840.709019 21.935625 
" style="fill:none;stroke:#cccccc;stroke-dasharray:1,1.65;stroke-dashoffset:0;"/>
     </g>
     <g id="text_38">
      <!-- 2 -->
      <g style="fill:#262626;" transform="translate(837.650503 311.109219)scale(0.11 -0.11)">
       <use xlink:href="#ArialMT-50"/>
      </g>
     </g>
    </g>
    <g id="text_39">
     <!-- Actual -->
     <g style="fill:#262626;" transform="translate(733.581598 325.884844)scale(0.12 -0.12)">
      <use xlink:href="#ArialMT-65"/>
      <use x="66.699219" xlink:href="#ArialMT-99"/>
      <use x="116.699219" xlink:href="#ArialMT-116"/>
      <use x="144.482422" xlink:href="#ArialMT-117"/>
      <use x="200.097656" xlink:href="#ArialMT-97"/>
      <use x="255.712891" xlink:href="#ArialMT-108"/>
     </g>
    </g>
   </g>
   <g id="matplotlib.axis_6">
    <g id="ytick_19">
     <g id="line2d_33">
      <path clip-path="url(#pacfc3e856a)" d="M 636.379359 285.320755 
L 864.134461 285.320755 
" style="fill:none;stroke:#cccccc;stroke-dasharray:1,1.65;stroke-dashoffset:0;"/>
     </g>
     <g id="text_40">
      <!-- −4 -->
      <g style="fill:#262626;" transform="translate(614.33764 289.257552)scale(0.11 -0.11)">
       <use xlink:href="#ArialMT-8722"/>
       <use x="58.398438" xlink:href="#ArialMT-52"/>
      </g>
     </g>
    </g>
    <g id="ytick_20">
     <g id="line2d_34">
      <path clip-path="url(#pacfc3e856a)" d="M 636.379359 252.53177 
L 864.134461 252.53177 
" style="fill:none;stroke:#cccccc;stroke-dasharray:1,1.65;stroke-dashoffset:0;"/>
     </g>
     <g id="text_41">
      <!-- −3 -->
      <g style="fill:#262626;" transform="translate(614.33764 256.468566)scale(0.11 -0.11)">
       <use xlink:href="#ArialMT-8722"/>
       <use x="58.398438" xlink:href="#ArialMT-51"/>
      </g>
     </g>
    </g>
    <g id="ytick_21">
     <g id="line2d_35">
      <path clip-path="url(#pacfc3e856a)" d="M 636.379359 219.742784 
L 864.134461 219.742784 
" style="fill:none;stroke:#cccccc;stroke-dasharray:1,1.65;stroke-dashoffset:0;"/>
     </g>
     <g id="text_42">
      <!-- −2 -->
      <g style="fill:#262626;" transform="translate(614.33764 223.679581)scale(0.11 -0.11)">
       <use xlink:href="#ArialMT-8722"/>
       <use x="58.398438" xlink:href="#ArialMT-50"/>
      </g>
     </g>
    </g>
    <g id="ytick_22">
     <g id="line2d_36">
      <path clip-path="url(#pacfc3e856a)" d="M 636.379359 186.953799 
L 864.134461 186.953799 
" style="fill:none;stroke:#cccccc;stroke-dasharray:1,1.65;stroke-dashoffset:0;"/>
     </g>
     <g id="text_43">
      <!-- −1 -->
      <g style="fill:#262626;" transform="translate(614.33764 190.890596)scale(0.11 -0.11)">
       <use xlink:href="#ArialMT-8722"/>
       <use x="58.398438" xlink:href="#ArialMT-49"/>
      </g>
     </g>
    </g>
    <g id="ytick_23">
     <g id="line2d_37">
      <path clip-path="url(#pacfc3e856a)" d="M 636.379359 154.164814 
L 864.134461 154.164814 
" style="fill:none;stroke:#cccccc;stroke-dasharray:1,1.65;stroke-dashoffset:0;"/>
     </g>
     <g id="text_44">
      <!-- 0 -->
      <g style="fill:#262626;" transform="translate(620.762328 158.101611)scale(0.11 -0.11)">
       <use xlink:href="#ArialMT-48"/>
      </g>
     </g>
    </g>
    <g id="ytick_24">
     <g id="line2d_38">
      <path clip-path="url(#pacfc3e856a)" d="M 636.379359 121.375829 
L 864.134461 121.375829 
" style="fill:none;stroke:#cccccc;stroke-dasharray:1,1.65;stroke-dashoffset:0;"/>
     </g>
     <g id="text_45">
      <!-- 1 -->
      <g style="fill:#262626;" transform="translate(620.762328 125.312626)scale(0.11 -0.11)">
       <use xlink:href="#ArialMT-49"/>
      </g>
     </g>
    </g>
    <g id="ytick_25">
     <g id="line2d_39">
      <path clip-path="url(#pacfc3e856a)" d="M 636.379359 88.586844 
L 864.134461 88.586844 
" style="fill:none;stroke:#cccccc;stroke-dasharray:1,1.65;stroke-dashoffset:0;"/>
     </g>
     <g id="text_46">
      <!-- 2 -->
      <g style="fill:#262626;" transform="translate(620.762328 92.523641)scale(0.11 -0.11)">
       <use xlink:href="#ArialMT-50"/>
      </g>
     </g>
    </g>
    <g id="ytick_26">
     <g id="line2d_40">
      <path clip-path="url(#pacfc3e856a)" d="M 636.379359 55.797859 
L 864.134461 55.797859 
" style="fill:none;stroke:#cccccc;stroke-dasharray:1,1.65;stroke-dashoffset:0;"/>
     </g>
     <g id="text_47">
      <!-- 3 -->
      <g style="fill:#262626;" transform="translate(620.762328 59.734656)scale(0.11 -0.11)">
       <use xlink:href="#ArialMT-51"/>
      </g>
     </g>
    </g>
    <g id="ytick_27">
     <g id="line2d_41">
      <path clip-path="url(#pacfc3e856a)" d="M 636.379359 23.008874 
L 864.134461 23.008874 
" style="fill:none;stroke:#cccccc;stroke-dasharray:1,1.65;stroke-dashoffset:0;"/>
     </g>
     <g id="text_48">
      <!-- 4 -->
      <g style="fill:#262626;" transform="translate(620.762328 26.945671)scale(0.11 -0.11)">
       <use xlink:href="#ArialMT-52"/>
      </g>
     </g>
    </g>
    <g id="text_49">
     <!-- Predicted -->
     <g style="fill:#262626;" transform="translate(607.95264 183.181875)rotate(-90)scale(0.12 -0.12)">
      <use xlink:href="#ArialMT-80"/>
      <use x="66.699219" xlink:href="#ArialMT-114"/>
      <use x="100" xlink:href="#ArialMT-101"/>
      <use x="155.615234" xlink:href="#ArialMT-100"/>
      <use x="211.230469" xlink:href="#ArialMT-105"/>
      <use x="233.447266" xlink:href="#ArialMT-99"/>
      <use x="283.447266" xlink:href="#ArialMT-116"/>
      <use x="311.230469" xlink:href="#ArialMT-101"/>
      <use x="366.845703" xlink:href="#ArialMT-100"/>
     </g>
    </g>
   </g>
   <g id="PathCollection_3">
    <g clip-path="url(#pacfc3e856a)">
     <use style="fill:#0173b2;stroke:#0173b2;" x="853.781956" xlink:href="#mbab24dbefa" y="196.519867"/>
     <use style="fill:#0173b2;stroke:#0173b2;" x="692.226223" xlink:href="#mbab24dbefa" y="79.008294"/>
     <use style="fill:#0173b2;stroke:#0173b2;" x="698.52027" xlink:href="#mbab24dbefa" y="99.942994"/>
     <use style="fill:#0173b2;stroke:#0173b2;" x="653.339374" xlink:href="#mbab24dbefa" y="177.884325"/>
     <use style="fill:#0173b2;stroke:#0173b2;" x="746.848188" xlink:href="#mbab24dbefa" y="124.657595"/>
     <use style="fill:#0173b2;stroke:#0173b2;" x="797.113853" xlink:href="#mbab24dbefa" y="164.446829"/>
     <use style="fill:#0173b2;stroke:#0173b2;" x="707.880698" xlink:href="#mbab24dbefa" y="157.988888"/>
     <use style="fill:#0173b2;stroke:#0173b2;" x="665.313941" xlink:href="#mbab24dbefa" y="34.29017"/>
     <use style="fill:#0173b2;stroke:#0173b2;" x="688.389382" xlink:href="#mbab24dbefa" y="182.502961"/>
     <use style="fill:#0173b2;stroke:#0173b2;" x="646.731864" xlink:href="#mbab24dbefa" y="281.38108"/>
    </g>
   </g>
   <g id="line2d_42">
    <path clip-path="url(#pacfc3e856a)" d="M 646.731864 143.957066 
L 653.339374 144.528497 
L 665.313941 145.564083 
L 688.389382 147.559697 
L 692.226223 147.891515 
L 698.52027 148.435838 
L 707.880698 149.245347 
L 746.848188 152.615339 
L 797.113853 156.962421 
L 853.781956 161.8632 
" style="fill:none;stroke:#d55e00;stroke-linecap:round;stroke-width:1.5;"/>
   </g>
   <g id="patch_15">
    <path d="M 636.379359 293.735625 
L 636.379359 21.935625 
" style="fill:none;stroke:#cccccc;stroke-linecap:square;stroke-linejoin:miter;stroke-width:0.6;"/>
   </g>
   <g id="patch_16">
    <path d="M 864.134461 293.735625 
L 864.134461 21.935625 
" style="fill:none;stroke:#cccccc;stroke-linecap:square;stroke-linejoin:miter;stroke-width:0.6;"/>
   </g>
   <g id="patch_17">
    <path d="M 636.379359 293.735625 
L 864.134461 293.735625 
" style="fill:none;stroke:#cccccc;stroke-linecap:square;stroke-linejoin:miter;stroke-width:0.6;"/>
   </g>
   <g id="patch_18">
    <path d="M 636.379359 21.935625 
L 864.134461 21.935625 
" style="fill:none;stroke:#cccccc;stroke-linecap:square;stroke-linejoin:miter;stroke-width:0.6;"/>
   </g>
   <g id="text_50">
    <g id="patch_19">
     <path d="M 803.595686 281.13 
L 870.195686 281.13 
L 870.195686 262.955625 
L 803.595686 262.955625 
z
" style="fill:none;opacity:0.5;stroke:#000000;stroke-linejoin:miter;"/>
    </g>
    <!-- $r$ = -0.0828 -->
    <defs>
     <path d="M 3.171875 21.484375 
L 3.171875 30.328125 
L 30.171875 30.328125 
L 30.171875 21.484375 
z
" id="ArialMT-45"/>
     <path d="M 17.671875 38.8125 
Q 12.203125 40.828125 9.5625 44.53125 
Q 6.9375 48.25 6.9375 53.421875 
Q 6.9375 61.234375 12.546875 66.546875 
Q 18.171875 71.875 27.484375 71.875 
Q 36.859375 71.875 42.578125 66.421875 
Q 48.296875 60.984375 48.296875 53.171875 
Q 48.296875 48.1875 45.671875 44.5 
Q 43.0625 40.828125 37.75 38.8125 
Q 44.34375 36.671875 47.78125 31.875 
Q 51.21875 27.09375 51.21875 20.453125 
Q 51.21875 11.28125 44.71875 5.03125 
Q 38.234375 -1.21875 27.640625 -1.21875 
Q 17.046875 -1.21875 10.546875 5.046875 
Q 4.046875 11.328125 4.046875 20.703125 
Q 4.046875 27.6875 7.59375 32.390625 
Q 11.140625 37.109375 17.671875 38.8125 
z
M 15.921875 53.71875 
Q 15.921875 48.640625 19.1875 45.40625 
Q 22.46875 42.1875 27.6875 42.1875 
Q 32.765625 42.1875 36.015625 45.375 
Q 39.265625 48.578125 39.265625 53.21875 
Q 39.265625 58.0625 35.90625 61.359375 
Q 32.5625 64.65625 27.59375 64.65625 
Q 22.5625 64.65625 19.234375 61.421875 
Q 15.921875 58.203125 15.921875 53.71875 
z
M 13.09375 20.65625 
Q 13.09375 16.890625 14.875 13.375 
Q 16.65625 9.859375 20.171875 7.921875 
Q 23.6875 6 27.734375 6 
Q 34.03125 6 38.125 10.046875 
Q 42.234375 14.109375 42.234375 20.359375 
Q 42.234375 26.703125 38.015625 30.859375 
Q 33.796875 35.015625 27.4375 35.015625 
Q 21.234375 35.015625 17.15625 30.90625 
Q 13.09375 26.8125 13.09375 20.65625 
z
" id="ArialMT-56"/>
    </defs>
    <g style="fill:#262626;" transform="translate(807.195686 275.145)scale(0.12 -0.12)">
     <use transform="translate(0 0.125)" xlink:href="#DejaVuSans-Oblique-114"/>
     <use transform="translate(41.113281 0.125)" xlink:href="#ArialMT-32"/>
     <use transform="translate(68.896484 0.125)" xlink:href="#ArialMT-61"/>
     <use transform="translate(127.294922 0.125)" xlink:href="#ArialMT-32"/>
     <use transform="translate(155.078125 0.125)" xlink:href="#ArialMT-45"/>
     <use transform="translate(188.378906 0.125)" xlink:href="#ArialMT-48"/>
     <use transform="translate(243.994141 0.125)" xlink:href="#ArialMT-46"/>
     <use transform="translate(271.777344 0.125)" xlink:href="#ArialMT-48"/>
     <use transform="translate(327.392578 0.125)" xlink:href="#ArialMT-56"/>
     <use transform="translate(383.007812 0.125)" xlink:href="#ArialMT-50"/>
     <use transform="translate(438.623047 0.125)" xlink:href="#ArialMT-56"/>
    </g>
   </g>
   <g id="text_51">
    <!-- Cell Viability -->
    <g style="fill:#262626;" transform="translate(717.68441 15.935625)scale(0.12 -0.12)">
     <use xlink:href="#ArialMT-67"/>
     <use x="72.216797" xlink:href="#ArialMT-101"/>
     <use x="127.832031" xlink:href="#ArialMT-108"/>
     <use x="150.048828" xlink:href="#ArialMT-108"/>
     <use x="172.265625" xlink:href="#ArialMT-32"/>
     <use x="200.048828" xlink:href="#ArialMT-86"/>
     <use x="264.998047" xlink:href="#ArialMT-105"/>
     <use x="287.214844" xlink:href="#ArialMT-97"/>
     <use x="342.830078" xlink:href="#ArialMT-98"/>
     <use x="398.445312" xlink:href="#ArialMT-105"/>
     <use x="420.662109" xlink:href="#ArialMT-108"/>
     <use x="442.878906" xlink:href="#ArialMT-105"/>
     <use x="465.095703" xlink:href="#ArialMT-116"/>
     <use x="492.878906" xlink:href="#ArialMT-121"/>
    </g>
   </g>
  </g>
  <g id="axes_4">
   <g id="patch_20">
    <path d="M 932.460992 293.735625 
L 1160.216094 293.735625 
L 1160.216094 21.935625 
L 932.460992 21.935625 
z
" style="fill:#ffffff;"/>
   </g>
   <g id="matplotlib.axis_7">
    <g id="xtick_13">
     <g id="line2d_43">
      <path clip-path="url(#pd79c16b43a)" d="M 948.248986 293.735625 
L 948.248986 21.935625 
" style="fill:none;stroke:#cccccc;stroke-dasharray:1,1.65;stroke-dashoffset:0;"/>
     </g>
     <g id="text_52">
      <!-- −1 -->
      <g style="fill:#262626;" transform="translate(941.978126 311.109219)scale(0.11 -0.11)">
       <use xlink:href="#ArialMT-8722"/>
       <use x="58.398438" xlink:href="#ArialMT-49"/>
      </g>
     </g>
    </g>
    <g id="xtick_14">
     <g id="line2d_44">
      <path clip-path="url(#pd79c16b43a)" d="M 1011.096208 293.735625 
L 1011.096208 21.935625 
" style="fill:none;stroke:#cccccc;stroke-dasharray:1,1.65;stroke-dashoffset:0;"/>
     </g>
     <g id="text_53">
      <!-- 0 -->
      <g style="fill:#262626;" transform="translate(1008.037692 311.109219)scale(0.11 -0.11)">
       <use xlink:href="#ArialMT-48"/>
      </g>
     </g>
    </g>
    <g id="xtick_15">
     <g id="line2d_45">
      <path clip-path="url(#pd79c16b43a)" d="M 1073.943429 293.735625 
L 1073.943429 21.935625 
" style="fill:none;stroke:#cccccc;stroke-dasharray:1,1.65;stroke-dashoffset:0;"/>
     </g>
     <g id="text_54">
      <!-- 1 -->
      <g style="fill:#262626;" transform="translate(1070.884914 311.109219)scale(0.11 -0.11)">
       <use xlink:href="#ArialMT-49"/>
      </g>
     </g>
    </g>
    <g id="xtick_16">
     <g id="line2d_46">
      <path clip-path="url(#pd79c16b43a)" d="M 1136.790651 293.735625 
L 1136.790651 21.935625 
" style="fill:none;stroke:#cccccc;stroke-dasharray:1,1.65;stroke-dashoffset:0;"/>
     </g>
     <g id="text_55">
      <!-- 2 -->
      <g style="fill:#262626;" transform="translate(1133.732136 311.109219)scale(0.11 -0.11)">
       <use xlink:href="#ArialMT-50"/>
      </g>
     </g>
    </g>
    <g id="text_56">
     <!-- Actual -->
     <g style="fill:#262626;" transform="translate(1029.66323 325.884844)scale(0.12 -0.12)">
      <use xlink:href="#ArialMT-65"/>
      <use x="66.699219" xlink:href="#ArialMT-99"/>
      <use x="116.699219" xlink:href="#ArialMT-116"/>
      <use x="144.482422" xlink:href="#ArialMT-117"/>
      <use x="200.097656" xlink:href="#ArialMT-97"/>
      <use x="255.712891" xlink:href="#ArialMT-108"/>
     </g>
    </g>
   </g>
   <g id="matplotlib.axis_8">
    <g id="ytick_28">
     <g id="line2d_47">
      <path clip-path="url(#pd79c16b43a)" d="M 932.460992 285.320755 
L 1160.216094 285.320755 
" style="fill:none;stroke:#cccccc;stroke-dasharray:1,1.65;stroke-dashoffset:0;"/>
     </g>
    </g>
    <g id="ytick_29">
     <g id="line2d_48">
      <path clip-path="url(#pd79c16b43a)" d="M 932.460992 252.53177 
L 1160.216094 252.53177 
" style="fill:none;stroke:#cccccc;stroke-dasharray:1,1.65;stroke-dashoffset:0;"/>
     </g>
    </g>
    <g id="ytick_30">
     <g id="line2d_49">
      <path clip-path="url(#pd79c16b43a)" d="M 932.460992 219.742784 
L 1160.216094 219.742784 
" style="fill:none;stroke:#cccccc;stroke-dasharray:1,1.65;stroke-dashoffset:0;"/>
     </g>
    </g>
    <g id="ytick_31">
     <g id="line2d_50">
      <path clip-path="url(#pd79c16b43a)" d="M 932.460992 186.953799 
L 1160.216094 186.953799 
" style="fill:none;stroke:#cccccc;stroke-dasharray:1,1.65;stroke-dashoffset:0;"/>
     </g>
    </g>
    <g id="ytick_32">
     <g id="line2d_51">
      <path clip-path="url(#pd79c16b43a)" d="M 932.460992 154.164814 
L 1160.216094 154.164814 
" style="fill:none;stroke:#cccccc;stroke-dasharray:1,1.65;stroke-dashoffset:0;"/>
     </g>
    </g>
    <g id="ytick_33">
     <g id="line2d_52">
      <path clip-path="url(#pd79c16b43a)" d="M 932.460992 121.375829 
L 1160.216094 121.375829 
" style="fill:none;stroke:#cccccc;stroke-dasharray:1,1.65;stroke-dashoffset:0;"/>
     </g>
    </g>
    <g id="ytick_34">
     <g id="line2d_53">
      <path clip-path="url(#pd79c16b43a)" d="M 932.460992 88.586844 
L 1160.216094 88.586844 
" style="fill:none;stroke:#cccccc;stroke-dasharray:1,1.65;stroke-dashoffset:0;"/>
     </g>
    </g>
    <g id="ytick_35">
     <g id="line2d_54">
      <path clip-path="url(#pd79c16b43a)" d="M 932.460992 55.797859 
L 1160.216094 55.797859 
" style="fill:none;stroke:#cccccc;stroke-dasharray:1,1.65;stroke-dashoffset:0;"/>
     </g>
    </g>
    <g id="ytick_36">
     <g id="line2d_55">
      <path clip-path="url(#pd79c16b43a)" d="M 932.460992 23.008874 
L 1160.216094 23.008874 
" style="fill:none;stroke:#cccccc;stroke-dasharray:1,1.65;stroke-dashoffset:0;"/>
     </g>
    </g>
    <g id="text_57">
     <!-- Predicted -->
     <g style="fill:#262626;" transform="translate(926.075992 183.181875)rotate(-90)scale(0.12 -0.12)">
      <use xlink:href="#ArialMT-80"/>
      <use x="66.699219" xlink:href="#ArialMT-114"/>
      <use x="100" xlink:href="#ArialMT-101"/>
      <use x="155.615234" xlink:href="#ArialMT-100"/>
      <use x="211.230469" xlink:href="#ArialMT-105"/>
      <use x="233.447266" xlink:href="#ArialMT-99"/>
      <use x="283.447266" xlink:href="#ArialMT-116"/>
      <use x="311.230469" xlink:href="#ArialMT-101"/>
      <use x="366.845703" xlink:href="#ArialMT-100"/>
     </g>
    </g>
   </g>
   <g id="PathCollection_4">
    <g clip-path="url(#pd79c16b43a)">
     <use style="fill:#0173b2;stroke:#0173b2;" x="1149.863589" xlink:href="#mbab24dbefa" y="93.409303"/>
     <use style="fill:#0173b2;stroke:#0173b2;" x="988.307856" xlink:href="#mbab24dbefa" y="112.644829"/>
     <use style="fill:#0173b2;stroke:#0173b2;" x="994.601903" xlink:href="#mbab24dbefa" y="160.425598"/>
     <use style="fill:#0173b2;stroke:#0173b2;" x="949.421006" xlink:href="#mbab24dbefa" y="182.239408"/>
     <use style="fill:#0173b2;stroke:#0173b2;" x="1042.929821" xlink:href="#mbab24dbefa" y="138.005323"/>
     <use style="fill:#0173b2;stroke:#0173b2;" x="1093.195486" xlink:href="#mbab24dbefa" y="166.117384"/>
     <use style="fill:#0173b2;stroke:#0173b2;" x="1003.96233" xlink:href="#mbab24dbefa" y="136.698849"/>
     <use style="fill:#0173b2;stroke:#0173b2;" x="961.395573" xlink:href="#mbab24dbefa" y="155.839736"/>
     <use style="fill:#0173b2;stroke:#0173b2;" x="984.471014" xlink:href="#mbab24dbefa" y="99.144427"/>
     <use style="fill:#0173b2;stroke:#0173b2;" x="942.813496" xlink:href="#mbab24dbefa" y="182.951612"/>
    </g>
   </g>
   <g id="line2d_56">
    <path clip-path="url(#pd79c16b43a)" d="M 942.813496 158.845933 
L 949.421006 157.288151 
L 961.395573 154.465035 
L 984.471014 149.024785 
L 988.307856 148.120214 
L 994.601903 146.636333 
L 1003.96233 144.429525 
L 1042.929821 135.242576 
L 1093.195486 123.391976 
L 1149.863589 110.031942 
" style="fill:none;stroke:#d55e00;stroke-linecap:round;stroke-width:1.5;"/>
   </g>
   <g id="patch_21">
    <path d="M 932.460992 293.735625 
L 932.460992 21.935625 
" style="fill:none;stroke:#cccccc;stroke-linecap:square;stroke-linejoin:miter;stroke-width:0.6;"/>
   </g>
   <g id="patch_22">
    <path d="M 1160.216094 293.735625 
L 1160.216094 21.935625 
" style="fill:none;stroke:#cccccc;stroke-linecap:square;stroke-linejoin:miter;stroke-width:0.6;"/>
   </g>
   <g id="patch_23">
    <path d="M 932.460992 293.735625 
L 1160.216094 293.735625 
" style="fill:none;stroke:#cccccc;stroke-linecap:square;stroke-linejoin:miter;stroke-width:0.6;"/>
   </g>
   <g id="patch_24">
    <path d="M 932.460992 21.935625 
L 1160.216094 21.935625 
" style="fill:none;stroke:#cccccc;stroke-linecap:square;stroke-linejoin:miter;stroke-width:0.6;"/>
   </g>
   <g id="text_58">
    <g id="patch_25">
     <path d="M 1099.677318 281.13 
L 1162.197318 281.13 
L 1162.197318 262.955625 
L 1099.677318 262.955625 
z
" style="fill:none;opacity:0.5;stroke:#000000;stroke-linejoin:miter;"/>
    </g>
    <!-- $r$ = 0.4805 -->
    <g style="fill:#262626;" transform="translate(1103.277318 275.145)scale(0.12 -0.12)">
     <use transform="translate(0 0.125)" xlink:href="#DejaVuSans-Oblique-114"/>
     <use transform="translate(41.113281 0.125)" xlink:href="#ArialMT-32"/>
     <use transform="translate(68.896484 0.125)" xlink:href="#ArialMT-61"/>
     <use transform="translate(127.294922 0.125)" xlink:href="#ArialMT-32"/>
     <use transform="translate(155.078125 0.125)" xlink:href="#ArialMT-48"/>
     <use transform="translate(210.693359 0.125)" xlink:href="#ArialMT-46"/>
     <use transform="translate(238.476562 0.125)" xlink:href="#ArialMT-52"/>
     <use transform="translate(294.091797 0.125)" xlink:href="#ArialMT-56"/>
     <use transform="translate(349.707031 0.125)" xlink:href="#ArialMT-48"/>
     <use transform="translate(405.322266 0.125)" xlink:href="#ArialMT-53"/>
    </g>
   </g>
   <g id="text_59">
    <!-- Cell Viability -->
    <g style="fill:#262626;" transform="translate(1013.766043 15.935625)scale(0.12 -0.12)">
     <use xlink:href="#ArialMT-67"/>
     <use x="72.216797" xlink:href="#ArialMT-101"/>
     <use x="127.832031" xlink:href="#ArialMT-108"/>
     <use x="150.048828" xlink:href="#ArialMT-108"/>
     <use x="172.265625" xlink:href="#ArialMT-32"/>
     <use x="200.048828" xlink:href="#ArialMT-86"/>
     <use x="264.998047" xlink:href="#ArialMT-105"/>
     <use x="287.214844" xlink:href="#ArialMT-97"/>
     <use x="342.830078" xlink:href="#ArialMT-98"/>
     <use x="398.445312" xlink:href="#ArialMT-105"/>
     <use x="420.662109" xlink:href="#ArialMT-108"/>
     <use x="442.878906" xlink:href="#ArialMT-105"/>
     <use x="465.095703" xlink:href="#ArialMT-116"/>
     <use x="492.878906" xlink:href="#ArialMT-121"/>
    </g>
   </g>
  </g>
 </g>
 <defs>
  <clipPath id="p5beeffe1c8">
   <rect height="271.8" width="227.755102" x="44.216094" y="21.935625"/>
  </clipPath>
  <clipPath id="p6701e79614">
   <rect height="271.8" width="227.755102" x="340.297726" y="21.935625"/>
  </clipPath>
  <clipPath id="pacfc3e856a">
   <rect height="271.8" width="227.755102" x="636.379359" y="21.935625"/>
  </clipPath>
  <clipPath id="pd79c16b43a">
   <rect height="271.8" width="227.755102" x="932.460992" y="21.935625"/>
  </clipPath>
 </defs>
</svg>
