<?xml version="1.0" encoding="UTF-8" standalone="no"?>
<!DOCTYPE svg PUBLIC "-//W3C//DTD SVG 1.1//EN"
 "http://www.w3.org/Graphics/SVG/1.1/DTD/svg11.dtd">
<!-- Generated by graphviz version 2.40.1 (20161225.0304)
 -->
<!-- Title: %3 Pages: 1 -->
<svg width="558pt" height="2206pt"
 viewBox="0.00 0.00 557.50 2206.00" xmlns="http://www.w3.org/2000/svg" xmlns:xlink="http://www.w3.org/1999/xlink">
<g id="graph0" class="graph" transform="scale(1 1) rotate(0) translate(4 2202)">
<title>%3</title>
<polygon fill="#ffffff" stroke="transparent" points="-4,4 -4,-2202 553.5,-2202 553.5,4 -4,4"/>
<!-- 1479 -->
<g id="node1" class="node">
<title>1479</title>
<g id="a_node1"><a xlink:title="/usr/lib/python3.7/concurrent/futures/thread.py">
<polygon fill="#0c6f8c" stroke="#0c6f8c" points="316,-420 158,-420 158,-368 316,-368 316,-420"/>
<text text-anchor="middle" x="237" y="-408" font-family="Arial" font-size="10.00" fill="#ffffff">thread:176:_adjust_thread_count</text>
<text text-anchor="middle" x="237" y="-397" font-family="Arial" font-size="10.00" fill="#ffffff">19.41%</text>
<text text-anchor="middle" x="237" y="-386" font-family="Arial" font-size="10.00" fill="#ffffff">(0.02%)</text>
<text text-anchor="middle" x="237" y="-375" font-family="Arial" font-size="10.00" fill="#ffffff">7917×</text>
</a>
</g>
</g>
<!-- 2176 -->
<g id="node2" class="node">
<title>2176</title>
<g id="a_node2"><a xlink:title="/usr/lib/python3.7/threading.py">
<polygon fill="#0c6f8c" stroke="#0c6f8c" points="306,-328 208,-328 208,-276 306,-276 306,-328"/>
<text text-anchor="middle" x="257" y="-316" font-family="Arial" font-size="10.00" fill="#ffffff">threading:834:start</text>
<text text-anchor="middle" x="257" y="-305" font-family="Arial" font-size="10.00" fill="#ffffff">19.36%</text>
<text text-anchor="middle" x="257" y="-294" font-family="Arial" font-size="10.00" fill="#ffffff">(0.00%)</text>
<text text-anchor="middle" x="257" y="-283" font-family="Arial" font-size="10.00" fill="#ffffff">1920×</text>
</a>
</g>
</g>
<!-- 1479&#45;&gt;2176 -->
<g id="edge1" class="edge">
<title>1479&#45;&gt;2176</title>
<path fill="none" stroke="#0c6f8c" stroke-width=".77" d="M242.6777,-367.8826C245.0634,-356.9084 247.8555,-344.0648 250.3377,-332.6467"/>
<polygon fill="#0c6f8c" stroke="#0c6f8c" stroke-width=".77" points="251.8782,-332.8095 251.3081,-328.1827 248.8685,-332.1551 251.8782,-332.8095"/>
<text text-anchor="middle" x="267" y="-351" font-family="Arial" font-size="10.00" fill="#0c6f8c">19.36%</text>
<text text-anchor="middle" x="267" y="-340" font-family="Arial" font-size="10.00" fill="#0c6f8c">1920×</text>
</g>
<!-- 12495 -->
<g id="node17" class="node">
<title>12495</title>
<g id="a_node17"><a xlink:title="/usr/lib/python3.7/threading.py">
<polygon fill="#0c6f8c" stroke="#0c6f8c" points="313.5,-236 218.5,-236 218.5,-184 313.5,-184 313.5,-236"/>
<text text-anchor="middle" x="266" y="-224" font-family="Arial" font-size="10.00" fill="#ffffff">threading:534:wait</text>
<text text-anchor="middle" x="266" y="-213" font-family="Arial" font-size="10.00" fill="#ffffff">19.29%</text>
<text text-anchor="middle" x="266" y="-202" font-family="Arial" font-size="10.00" fill="#ffffff">(0.01%)</text>
<text text-anchor="middle" x="266" y="-191" font-family="Arial" font-size="10.00" fill="#ffffff">1920×</text>
</a>
</g>
</g>
<!-- 2176&#45;&gt;12495 -->
<g id="edge11" class="edge">
<title>2176&#45;&gt;12495</title>
<path fill="none" stroke="#0c6f8c" stroke-width=".77" d="M259.555,-275.8826C260.6285,-264.9084 261.885,-252.0648 263.002,-240.6467"/>
<polygon fill="#0c6f8c" stroke="#0c6f8c" stroke-width=".77" points="264.5429,-240.7118 263.4386,-236.1827 261.4775,-240.4119 264.5429,-240.7118"/>
<text text-anchor="middle" x="279" y="-259" font-family="Arial" font-size="10.00" fill="#0c6f8c">19.29%</text>
<text text-anchor="middle" x="279" y="-248" font-family="Arial" font-size="10.00" fill="#0c6f8c">1920×</text>
</g>
<!-- 1686 -->
<g id="node3" class="node">
<title>1686</title>
<g id="a_node3"><a xlink:title="/usr/local/lib/python3.7/dist&#45;packages/sklearn/pipeline.py">
<polygon fill="#f63d02" stroke="#f63d02" points="333.5,-1002 248.5,-1002 248.5,-950 333.5,-950 333.5,-1002"/>
<text text-anchor="middle" x="291" y="-990" font-family="Arial" font-size="10.00" fill="#ffffff">pipeline:262:_fit</text>
<text text-anchor="middle" x="291" y="-979" font-family="Arial" font-size="10.00" fill="#ffffff">93.87%</text>
<text text-anchor="middle" x="291" y="-968" font-family="Arial" font-size="10.00" fill="#ffffff">(0.00%)</text>
<text text-anchor="middle" x="291" y="-957" font-family="Arial" font-size="10.00" fill="#ffffff">11×</text>
</a>
</g>
</g>
<!-- 5100 -->
<g id="node4" class="node">
<title>5100</title>
<g id="a_node4"><a xlink:title="/usr/local/lib/python3.7/dist&#45;packages/joblib/memory.py">
<polygon fill="#f63d02" stroke="#f63d02" points="346,-910 236,-910 236,-858 346,-858 346,-910"/>
<text text-anchor="middle" x="291" y="-898" font-family="Arial" font-size="10.00" fill="#ffffff">memory:354:__call__</text>
<text text-anchor="middle" x="291" y="-887" font-family="Arial" font-size="10.00" fill="#ffffff">93.87%</text>
<text text-anchor="middle" x="291" y="-876" font-family="Arial" font-size="10.00" fill="#ffffff">(0.00%)</text>
<text text-anchor="middle" x="291" y="-865" font-family="Arial" font-size="10.00" fill="#ffffff">11×</text>
</a>
</g>
</g>
<!-- 1686&#45;&gt;5100 -->
<g id="edge2" class="edge">
<title>1686&#45;&gt;5100</title>
<path fill="none" stroke="#f63d02" stroke-width="3.75" d="M291,-949.8826C291,-940.5594 291,-929.8869 291,-919.8856"/>
<polygon fill="#f63d02" stroke="#f63d02" stroke-width="3.75" points="294.3951,-919.8827 291,-910.1827 287.6051,-919.8828 294.3951,-919.8827"/>
<text text-anchor="middle" x="308" y="-933" font-family="Arial" font-size="10.00" fill="#f63d02">93.87%</text>
<text text-anchor="middle" x="308" y="-922" font-family="Arial" font-size="10.00" fill="#f63d02">11×</text>
</g>
<!-- 3817 -->
<g id="node22" class="node">
<title>3817</title>
<g id="a_node22"><a xlink:title="/usr/local/lib/python3.7/dist&#45;packages/sklearn/pipeline.py">
<polygon fill="#f63d02" stroke="#f63d02" points="367,-818 215,-818 215,-766 367,-766 367,-818"/>
<text text-anchor="middle" x="291" y="-806" font-family="Arial" font-size="10.00" fill="#ffffff">pipeline:714:_fit_transform_one</text>
<text text-anchor="middle" x="291" y="-795" font-family="Arial" font-size="10.00" fill="#ffffff">93.87%</text>
<text text-anchor="middle" x="291" y="-784" font-family="Arial" font-size="10.00" fill="#ffffff">(0.00%)</text>
<text text-anchor="middle" x="291" y="-773" font-family="Arial" font-size="10.00" fill="#ffffff">11×</text>
</a>
</g>
</g>
<!-- 5100&#45;&gt;3817 -->
<g id="edge27" class="edge">
<title>5100&#45;&gt;3817</title>
<path fill="none" stroke="#f63d02" stroke-width="3.75" d="M291,-857.8826C291,-848.5594 291,-837.8869 291,-827.8856"/>
<polygon fill="#f63d02" stroke="#f63d02" stroke-width="3.75" points="294.3951,-827.8827 291,-818.1827 287.6051,-827.8828 294.3951,-827.8827"/>
<text text-anchor="middle" x="308" y="-841" font-family="Arial" font-size="10.00" fill="#f63d02">93.87%</text>
<text text-anchor="middle" x="308" y="-830" font-family="Arial" font-size="10.00" fill="#f63d02">11×</text>
</g>
<!-- 1862 -->
<g id="node5" class="node">
<title>1862</title>
<g id="a_node5"><a xlink:title="/home/marcc/resistance&#45;MS/msresist/sequence_analysis.py">
<polygon fill="#f54002" stroke="#f54002" points="383,-634 199,-634 199,-582 383,-582 383,-634"/>
<text text-anchor="middle" x="291" y="-622" font-family="Arial" font-size="10.00" fill="#ffffff">sequence_analysis:240:EM_clustering</text>
<text text-anchor="middle" x="291" y="-611" font-family="Arial" font-size="10.00" fill="#ffffff">93.64%</text>
<text text-anchor="middle" x="291" y="-600" font-family="Arial" font-size="10.00" fill="#ffffff">(0.04%)</text>
<text text-anchor="middle" x="291" y="-589" font-family="Arial" font-size="10.00" fill="#ffffff">11×</text>
</a>
</g>
</g>
<!-- 1863 -->
<g id="node6" class="node">
<title>1863</title>
<g id="a_node6"><a xlink:title="/home/marcc/resistance&#45;MS/msresist/sequence_analysis.py">
<polygon fill="#0d337e" stroke="#0d337e" points="196,-542 0,-542 0,-490 196,-490 196,-542"/>
<text text-anchor="middle" x="98" y="-530" font-family="Arial" font-size="10.00" fill="#ffffff">sequence_analysis:357:BackgroundSeqs</text>
<text text-anchor="middle" x="98" y="-519" font-family="Arial" font-size="10.00" fill="#ffffff">8.53%</text>
<text text-anchor="middle" x="98" y="-508" font-family="Arial" font-size="10.00" fill="#ffffff">(4.01%)</text>
<text text-anchor="middle" x="98" y="-497" font-family="Arial" font-size="10.00" fill="#ffffff">11×</text>
</a>
</g>
</g>
<!-- 1862&#45;&gt;1863 -->
<g id="edge3" class="edge">
<title>1862&#45;&gt;1863</title>
<path fill="none" stroke="#0d337e" stroke-width=".5" d="M236.2102,-581.8826C211.1462,-569.935 181.4337,-555.7715 155.9926,-543.6442"/>
<polygon fill="#0d337e" stroke="#0d337e" stroke-width=".5" points="156.2791,-542.4237 152.5925,-542.0234 155.2248,-544.6353 156.2791,-542.4237"/>
<text text-anchor="middle" x="232" y="-565" font-family="Arial" font-size="10.00" fill="#0d337e">8.53%</text>
<text text-anchor="middle" x="232" y="-554" font-family="Arial" font-size="10.00" fill="#0d337e">11×</text>
</g>
<!-- 4318 -->
<g id="node7" class="node">
<title>4318</title>
<g id="a_node7"><a xlink:title="/usr/lib/python3.7/concurrent/futures/thread.py">
<polygon fill="#0c708c" stroke="#0c708c" points="300.5,-542 205.5,-542 205.5,-490 300.5,-490 300.5,-542"/>
<text text-anchor="middle" x="253" y="-530" font-family="Arial" font-size="10.00" fill="#ffffff">thread:145:submit</text>
<text text-anchor="middle" x="253" y="-519" font-family="Arial" font-size="10.00" fill="#ffffff">19.49%</text>
<text text-anchor="middle" x="253" y="-508" font-family="Arial" font-size="10.00" fill="#ffffff">(0.04%)</text>
<text text-anchor="middle" x="253" y="-497" font-family="Arial" font-size="10.00" fill="#ffffff">7917×</text>
</a>
</g>
</g>
<!-- 1862&#45;&gt;4318 -->
<g id="edge4" class="edge">
<title>1862&#45;&gt;4318</title>
<path fill="none" stroke="#0c6f8c" stroke-width=".77" d="M274.235,-581.6163C272.7031,-578.7594 271.2575,-575.8531 270,-573 266.2777,-564.5545 263.0824,-555.0586 260.4998,-546.275"/>
<polygon fill="#0c6f8c" stroke="#0c6f8c" stroke-width=".77" points="261.9752,-545.8328 259.2816,-542.028 259.0146,-546.6821 261.9752,-545.8328"/>
<text text-anchor="middle" x="287" y="-565" font-family="Arial" font-size="10.00" fill="#0c6f8c">19.29%</text>
<text text-anchor="middle" x="287" y="-554" font-family="Arial" font-size="10.00" fill="#0c6f8c">6424×</text>
</g>
<!-- 4661 -->
<g id="node8" class="node">
<title>4661</title>
<g id="a_node8"><a xlink:title="/home/marcc/resistance&#45;MS/msresist/sequence_analysis.py">
<polygon fill="#0d4282" stroke="#0d4282" points="549.5,-542 328.5,-542 328.5,-490 549.5,-490 549.5,-542"/>
<text text-anchor="middle" x="439" y="-530" font-family="Arial" font-size="10.00" fill="#ffffff">sequence_analysis:391:position_weight_matrix</text>
<text text-anchor="middle" x="439" y="-519" font-family="Arial" font-size="10.00" fill="#ffffff">11.46%</text>
<text text-anchor="middle" x="439" y="-508" font-family="Arial" font-size="10.00" fill="#ffffff">(0.00%)</text>
<text text-anchor="middle" x="439" y="-497" font-family="Arial" font-size="10.00" fill="#ffffff">11×</text>
</a>
</g>
</g>
<!-- 1862&#45;&gt;4661 -->
<g id="edge5" class="edge">
<title>1862&#45;&gt;4661</title>
<path fill="none" stroke="#0d4282" stroke-width=".5" d="M336.3457,-581.851C341.3106,-578.8981 346.2749,-575.9063 351,-573 365.8469,-563.8681 381.8994,-553.5927 396.1782,-544.3068"/>
<polygon fill="#0d4282" stroke="#0d4282" stroke-width=".5" points="397.1217,-545.1543 399.3862,-542.2178 395.7847,-543.1012 397.1217,-545.1543"/>
<text text-anchor="middle" x="402" y="-565" font-family="Arial" font-size="10.00" fill="#0d4282">11.46%</text>
<text text-anchor="middle" x="402" y="-554" font-family="Arial" font-size="10.00" fill="#0d4282">11×</text>
</g>
<!-- 6014 -->
<g id="node9" class="node">
<title>6014</title>
<g id="a_node9"><a xlink:title="/usr/lib/python3.7/concurrent/futures/_base.py">
<polygon fill="#2bbc09" stroke="#2bbc09" points="371.5,-481 282.5,-481 282.5,-429 371.5,-429 371.5,-481"/>
<text text-anchor="middle" x="327" y="-469" font-family="Arial" font-size="10.00" fill="#ffffff">_base:408:result</text>
<text text-anchor="middle" x="327" y="-458" font-family="Arial" font-size="10.00" fill="#ffffff">54.79%</text>
<text text-anchor="middle" x="327" y="-447" font-family="Arial" font-size="10.00" fill="#ffffff">(0.01%)</text>
<text text-anchor="middle" x="327" y="-436" font-family="Arial" font-size="10.00" fill="#ffffff">7917×</text>
</a>
</g>
</g>
<!-- 1862&#45;&gt;6014 -->
<g id="edge6" class="edge">
<title>1862&#45;&gt;6014</title>
<path fill="none" stroke="#26bb09" stroke-width="2.16" d="M299.5608,-581.7051C300.4247,-578.7795 301.2563,-575.834 302,-573 309.3865,-544.8535 316.1202,-512.4951 320.7334,-488.7908"/>
<polygon fill="#26bb09" stroke="#26bb09" stroke-width="2.16" points="323.2976,-489.1714 322.1548,-481.4149 318.2112,-488.1911 323.2976,-489.1714"/>
<text text-anchor="middle" x="324" y="-565" font-family="Arial" font-size="10.00" fill="#26bb09">54.06%</text>
<text text-anchor="middle" x="324" y="-554" font-family="Arial" font-size="10.00" fill="#26bb09">6424×</text>
</g>
<!-- 4318&#45;&gt;1479 -->
<g id="edge17" class="edge">
<title>4318&#45;&gt;1479</title>
<path fill="none" stroke="#0c6f8c" stroke-width=".78" d="M245.73,-489.7302C245.0729,-486.7999 244.4769,-483.8464 244,-481 240.8876,-462.4219 239.1473,-441.3718 238.1805,-424.6313"/>
<polygon fill="#0c6f8c" stroke="#0c6f8c" stroke-width=".78" points="239.7068,-424.3384 237.9278,-420.0295 236.6314,-424.5073 239.7068,-424.3384"/>
<text text-anchor="middle" x="261" y="-458" font-family="Arial" font-size="10.00" fill="#0c6f8c">19.41%</text>
<text text-anchor="middle" x="261" y="-447" font-family="Arial" font-size="10.00" fill="#0c6f8c">7917×</text>
</g>
<!-- 4736 -->
<g id="node28" class="node">
<title>4736</title>
<g id="a_node28"><a xlink:title="/usr/local/lib/python3.7/dist&#45;packages/Bio/motifs/__init__.py">
<polygon fill="#0d4282" stroke="#0d4282" points="486,-420 392,-420 392,-368 486,-368 486,-420"/>
<text text-anchor="middle" x="439" y="-408" font-family="Arial" font-size="10.00" fill="#ffffff">__init__:21:create</text>
<text text-anchor="middle" x="439" y="-397" font-family="Arial" font-size="10.00" fill="#ffffff">11.46%</text>
<text text-anchor="middle" x="439" y="-386" font-family="Arial" font-size="10.00" fill="#ffffff">(0.00%)</text>
<text text-anchor="middle" x="439" y="-375" font-family="Arial" font-size="10.00" fill="#ffffff">33×</text>
</a>
</g>
</g>
<!-- 4661&#45;&gt;4736 -->
<g id="edge21" class="edge">
<title>4661&#45;&gt;4736</title>
<path fill="none" stroke="#0d4281" stroke-width=".5" d="M439,-489.8279C439,-470.4497 439,-444.0194 439,-423.824"/>
<polygon fill="#0d4281" stroke="#0d4281" stroke-width=".5" points="440.2251,-423.6287 439,-420.1288 437.7751,-423.6288 440.2251,-423.6287"/>
<text text-anchor="middle" x="456" y="-458" font-family="Arial" font-size="10.00" fill="#0d4281">11.44%</text>
<text text-anchor="middle" x="456" y="-447" font-family="Arial" font-size="10.00" fill="#0d4281">11×</text>
</g>
<!-- 2189 -->
<g id="node18" class="node">
<title>2189</title>
<g id="a_node18"><a xlink:title="/usr/lib/python3.7/threading.py">
<polygon fill="#d0d806" stroke="#d0d806" points="350.5,-144 255.5,-144 255.5,-92 350.5,-92 350.5,-144"/>
<text text-anchor="middle" x="303" y="-132" font-family="Arial" font-size="10.00" fill="#ffffff">threading:264:wait</text>
<text text-anchor="middle" x="303" y="-121" font-family="Arial" font-size="10.00" fill="#ffffff">74.05%</text>
<text text-anchor="middle" x="303" y="-110" font-family="Arial" font-size="10.00" fill="#ffffff">(0.01%)</text>
<text text-anchor="middle" x="303" y="-99" font-family="Arial" font-size="10.00" fill="#ffffff">2348×</text>
</a>
</g>
</g>
<!-- 6014&#45;&gt;2189 -->
<g id="edge33" class="edge">
<title>6014&#45;&gt;2189</title>
<path fill="none" stroke="#2bbc09" stroke-width="2.19" d="M328.1513,-428.6223C328.9973,-406.9688 330,-375.5039 330,-348 330,-348 330,-348 330,-210 330,-184.3528 328.9656,-177.3788 321,-153 320.8249,-152.4642 320.6424,-151.9265 320.4532,-151.3877"/>
<polygon fill="#2bbc09" stroke="#2bbc09" stroke-width="2.19" points="322.806,-150.2948 317.6665,-144.3741 317.992,-152.2075 322.806,-150.2948"/>
<text text-anchor="middle" x="347" y="-305" font-family="Arial" font-size="10.00" fill="#2bbc09">54.77%</text>
<text text-anchor="middle" x="347" y="-294" font-family="Arial" font-size="10.00" fill="#2bbc09">428×</text>
</g>
<!-- 1979 -->
<g id="node10" class="node">
<title>1979</title>
<g id="a_node10"><a xlink:title="/usr/local/lib/python3.7/dist&#45;packages/joblib/parallel.py">
<polygon fill="#e98903" stroke="#e98903" points="439.5,-1646 328.5,-1646 328.5,-1594 439.5,-1594 439.5,-1646"/>
<text text-anchor="middle" x="384" y="-1634" font-family="Arial" font-size="10.00" fill="#ffffff">parallel:736:_dispatch</text>
<text text-anchor="middle" x="384" y="-1623" font-family="Arial" font-size="10.00" fill="#ffffff">85.49%</text>
<text text-anchor="middle" x="384" y="-1612" font-family="Arial" font-size="10.00" fill="#ffffff">(0.00%)</text>
<text text-anchor="middle" x="384" y="-1601" font-family="Arial" font-size="10.00" fill="#ffffff">30×</text>
</a>
</g>
</g>
<!-- 5373 -->
<g id="node11" class="node">
<title>5373</title>
<g id="a_node11"><a xlink:title="/usr/local/lib/python3.7/dist&#45;packages/joblib/_parallel_backends.py">
<polygon fill="#e98903" stroke="#e98903" points="472,-1554 296,-1554 296,-1502 472,-1502 472,-1554"/>
<text text-anchor="middle" x="384" y="-1542" font-family="Arial" font-size="10.00" fill="#ffffff">_parallel_backends:207:apply_async</text>
<text text-anchor="middle" x="384" y="-1531" font-family="Arial" font-size="10.00" fill="#ffffff">85.49%</text>
<text text-anchor="middle" x="384" y="-1520" font-family="Arial" font-size="10.00" fill="#ffffff">(0.00%)</text>
<text text-anchor="middle" x="384" y="-1509" font-family="Arial" font-size="10.00" fill="#ffffff">30×</text>
</a>
</g>
</g>
<!-- 1979&#45;&gt;5373 -->
<g id="edge7" class="edge">
<title>1979&#45;&gt;5373</title>
<path fill="none" stroke="#e98903" stroke-width="3.42" d="M384,-1593.8826C384,-1584.4623 384,-1573.6644 384,-1563.5732"/>
<polygon fill="#e98903" stroke="#e98903" stroke-width="3.42" points="387.2201,-1563.3827 384,-1554.1827 380.7801,-1563.3828 387.2201,-1563.3827"/>
<text text-anchor="middle" x="401" y="-1577" font-family="Arial" font-size="10.00" fill="#e98903">85.49%</text>
<text text-anchor="middle" x="401" y="-1566" font-family="Arial" font-size="10.00" fill="#e98903">30×</text>
</g>
<!-- 5382 -->
<g id="node31" class="node">
<title>5382</title>
<g id="a_node31"><a xlink:title="/usr/local/lib/python3.7/dist&#45;packages/joblib/_parallel_backends.py">
<polygon fill="#e98903" stroke="#e98903" points="456.5,-1462 301.5,-1462 301.5,-1410 456.5,-1410 456.5,-1462"/>
<text text-anchor="middle" x="379" y="-1450" font-family="Arial" font-size="10.00" fill="#ffffff">_parallel_backends:587:__init__</text>
<text text-anchor="middle" x="379" y="-1439" font-family="Arial" font-size="10.00" fill="#ffffff">85.49%</text>
<text text-anchor="middle" x="379" y="-1428" font-family="Arial" font-size="10.00" fill="#ffffff">(0.00%)</text>
<text text-anchor="middle" x="379" y="-1417" font-family="Arial" font-size="10.00" fill="#ffffff">30×</text>
</a>
</g>
</g>
<!-- 5373&#45;&gt;5382 -->
<g id="edge30" class="edge">
<title>5373&#45;&gt;5382</title>
<path fill="none" stroke="#e98903" stroke-width="3.42" d="M382.5806,-1501.8826C382.0686,-1492.4623 381.4818,-1481.6644 380.9333,-1471.5732"/>
<polygon fill="#e98903" stroke="#e98903" stroke-width="3.42" points="384.1376,-1471.1944 380.423,-1462.1827 377.7071,-1471.5439 384.1376,-1471.1944"/>
<text text-anchor="middle" x="399" y="-1485" font-family="Arial" font-size="10.00" fill="#e98903">85.49%</text>
<text text-anchor="middle" x="399" y="-1474" font-family="Arial" font-size="10.00" fill="#e98903">30×</text>
</g>
<!-- 2048 -->
<g id="node12" class="node">
<title>2048</title>
<g id="a_node12"><a xlink:title="/usr/local/lib/python3.7/dist&#45;packages/joblib/parallel.py">
<polygon fill="#e98903" stroke="#e98903" points="437.5,-1830 332.5,-1830 332.5,-1778 437.5,-1778 437.5,-1830"/>
<text text-anchor="middle" x="385" y="-1818" font-family="Arial" font-size="10.00" fill="#ffffff">parallel:942:__call__</text>
<text text-anchor="middle" x="385" y="-1807" font-family="Arial" font-size="10.00" fill="#ffffff">85.50%</text>
<text text-anchor="middle" x="385" y="-1796" font-family="Arial" font-size="10.00" fill="#ffffff">(0.00%)</text>
<text text-anchor="middle" x="385" y="-1785" font-family="Arial" font-size="10.00" fill="#ffffff">3×</text>
</a>
</g>
</g>
<!-- 4325 -->
<g id="node13" class="node">
<title>4325</title>
<g id="a_node13"><a xlink:title="/usr/local/lib/python3.7/dist&#45;packages/joblib/parallel.py">
<polygon fill="#e98903" stroke="#e98903" points="462,-1738 306,-1738 306,-1686 462,-1686 462,-1738"/>
<text text-anchor="middle" x="384" y="-1726" font-family="Arial" font-size="10.00" fill="#ffffff">parallel:773:dispatch_one_batch</text>
<text text-anchor="middle" x="384" y="-1715" font-family="Arial" font-size="10.00" fill="#ffffff">85.50%</text>
<text text-anchor="middle" x="384" y="-1704" font-family="Arial" font-size="10.00" fill="#ffffff">(0.00%)</text>
<text text-anchor="middle" x="384" y="-1693" font-family="Arial" font-size="10.00" fill="#ffffff">33×</text>
</a>
</g>
</g>
<!-- 2048&#45;&gt;4325 -->
<g id="edge8" class="edge">
<title>2048&#45;&gt;4325</title>
<path fill="none" stroke="#e98903" stroke-width="3.42" d="M384.7161,-1777.8826C384.6137,-1768.4623 384.4964,-1757.6644 384.3867,-1747.5732"/>
<polygon fill="#e98903" stroke="#e98903" stroke-width="3.42" points="387.6045,-1747.3472 384.2846,-1738.1827 381.1649,-1747.4172 387.6045,-1747.3472"/>
<text text-anchor="middle" x="401" y="-1761" font-family="Arial" font-size="10.00" fill="#e98903">85.50%</text>
<text text-anchor="middle" x="401" y="-1750" font-family="Arial" font-size="10.00" fill="#e98903">33×</text>
</g>
<!-- 4325&#45;&gt;1979 -->
<g id="edge19" class="edge">
<title>4325&#45;&gt;1979</title>
<path fill="none" stroke="#e98903" stroke-width="3.42" d="M384,-1685.8826C384,-1676.4623 384,-1665.6644 384,-1655.5732"/>
<polygon fill="#e98903" stroke="#e98903" stroke-width="3.42" points="387.2201,-1655.3827 384,-1646.1827 380.7801,-1655.3828 387.2201,-1655.3827"/>
<text text-anchor="middle" x="401" y="-1669" font-family="Arial" font-size="10.00" fill="#e98903">85.49%</text>
<text text-anchor="middle" x="401" y="-1658" font-family="Arial" font-size="10.00" fill="#e98903">30×</text>
</g>
<!-- 2052 -->
<g id="node14" class="node">
<title>2052</title>
<g id="a_node14"><a xlink:title="genFigure.py">
<polygon fill="#ff0000" stroke="#ff0000" points="269,-2198 155,-2198 155,-2146 269,-2146 269,-2198"/>
<text text-anchor="middle" x="212" y="-2186" font-family="Arial" font-size="10.00" fill="#ffffff">genFigure:2:&lt;module&gt;</text>
<text text-anchor="middle" x="212" y="-2175" font-family="Arial" font-size="10.00" fill="#ffffff">99.99%</text>
<text text-anchor="middle" x="212" y="-2164" font-family="Arial" font-size="10.00" fill="#ffffff">(0.00%)</text>
<text text-anchor="middle" x="212" y="-2153" font-family="Arial" font-size="10.00" fill="#ffffff">1×</text>
</a>
</g>
</g>
<!-- 3672 -->
<g id="node15" class="node">
<title>3672</title>
<g id="a_node15"><a xlink:title="~">
<polygon fill="#ff0000" stroke="#ff0000" points="247.5,-2106 80.5,-2106 80.5,-2054 247.5,-2054 247.5,-2106"/>
<text text-anchor="middle" x="164" y="-2094" font-family="Arial" font-size="10.00" fill="#ffffff">~:0:&lt;built&#45;in method builtins.exec&gt;</text>
<text text-anchor="middle" x="164" y="-2083" font-family="Arial" font-size="10.00" fill="#ffffff">100.00%</text>
<text text-anchor="middle" x="164" y="-2072" font-family="Arial" font-size="10.00" fill="#ffffff">(0.02%)</text>
<text text-anchor="middle" x="164" y="-2061" font-family="Arial" font-size="10.00" fill="#ffffff">2796×</text>
</a>
</g>
</g>
<!-- 2052&#45;&gt;3672 -->
<g id="edge9" class="edge">
<title>2052&#45;&gt;3672</title>
<path fill="none" stroke="#0d0f74" stroke-width=".5" d="M209.2002,-2145.9238C207.3267,-2135.808 204.2035,-2124.4169 199,-2115 197.909,-2113.0256 196.6738,-2111.0882 195.3353,-2109.2008"/>
<polygon fill="#0d0f74" stroke="#0d0f74" stroke-width=".5" points="196.2286,-2108.3496 193.153,-2106.278 194.2655,-2109.8154 196.2286,-2108.3496"/>
<text text-anchor="middle" x="221" y="-2129" font-family="Arial" font-size="10.00" fill="#0d0f74">0.65%</text>
<text text-anchor="middle" x="221" y="-2118" font-family="Arial" font-size="10.00" fill="#0d0f74">1×</text>
</g>
<!-- 4675 -->
<g id="node16" class="node">
<title>4675</title>
<g id="a_node16"><a xlink:title="/home/marcc/resistance&#45;MS/msresist/figures/figure2.py">
<polygon fill="#fa2001" stroke="#fa2001" points="369.5,-2106 256.5,-2106 256.5,-2054 369.5,-2054 369.5,-2106"/>
<text text-anchor="middle" x="313" y="-2094" font-family="Arial" font-size="10.00" fill="#ffffff">figure2:29:makeFigure</text>
<text text-anchor="middle" x="313" y="-2083" font-family="Arial" font-size="10.00" fill="#ffffff">96.83%</text>
<text text-anchor="middle" x="313" y="-2072" font-family="Arial" font-size="10.00" fill="#ffffff">(0.00%)</text>
<text text-anchor="middle" x="313" y="-2061" font-family="Arial" font-size="10.00" fill="#ffffff">1×</text>
</a>
</g>
</g>
<!-- 2052&#45;&gt;4675 -->
<g id="edge10" class="edge">
<title>2052&#45;&gt;4675</title>
<path fill="none" stroke="#fa2001" stroke-width="3.87" d="M240.6724,-2145.8826C251.9738,-2135.5882 265.0812,-2123.6488 277.0086,-2112.7843"/>
<polygon fill="#fa2001" stroke="#fa2001" stroke-width="3.87" points="279.3208,-2115.3178 284.2559,-2106.1827 274.7012,-2110.2464 279.3208,-2115.3178"/>
<text text-anchor="middle" x="291" y="-2129" font-family="Arial" font-size="10.00" fill="#fa2001">96.83%</text>
<text text-anchor="middle" x="291" y="-2118" font-family="Arial" font-size="10.00" fill="#fa2001">1×</text>
</g>
<!-- 3672&#45;&gt;2052 -->
<g id="edge13" class="edge">
<title>3672&#45;&gt;2052</title>
<path fill="none" stroke="#ff0000" stroke-width="4" d="M158.4279,-2106.1673C157.5458,-2116.2957 158.1994,-2127.6716 163,-2137 163.1017,-2137.1975 163.205,-2137.3942 163.31,-2137.59"/>
<polygon fill="#ff0000" stroke="#ff0000" stroke-width="4" points="160.4495,-2139.607 169.0327,-2145.8183 166.1963,-2135.6102 160.4495,-2139.607"/>
<text text-anchor="middle" x="180" y="-2129" font-family="Arial" font-size="10.00" fill="#ff0000">99.99%</text>
<text text-anchor="middle" x="180" y="-2118" font-family="Arial" font-size="10.00" fill="#ff0000">1×</text>
</g>
<!-- 4322 -->
<g id="node21" class="node">
<title>4322</title>
<g id="a_node21"><a xlink:title="/usr/local/lib/python3.7/dist&#45;packages/sklearn/pipeline.py">
<polygon fill="#f63d02" stroke="#f63d02" points="331,-1094 251,-1094 251,-1042 331,-1042 331,-1094"/>
<text text-anchor="middle" x="291" y="-1082" font-family="Arial" font-size="10.00" fill="#ffffff">pipeline:324:fit</text>
<text text-anchor="middle" x="291" y="-1071" font-family="Arial" font-size="10.00" fill="#ffffff">93.88%</text>
<text text-anchor="middle" x="291" y="-1060" font-family="Arial" font-size="10.00" fill="#ffffff">(0.00%)</text>
<text text-anchor="middle" x="291" y="-1049" font-family="Arial" font-size="10.00" fill="#ffffff">11×</text>
</a>
</g>
</g>
<!-- 4675&#45;&gt;4322 -->
<g id="edge22" class="edge">
<title>4675&#45;&gt;4322</title>
<path fill="none" stroke="#0d337e" stroke-width=".5" d="M299.1321,-2053.8119C290.8782,-2035.8153 282,-2011.0908 282,-1988 282,-1988 282,-1988 282,-1160 282,-1139.0868 284.332,-1115.6261 286.6219,-1097.6303"/>
<polygon fill="#0d337e" stroke="#0d337e" stroke-width=".5" points="287.8436,-1097.7348 287.0787,-1094.1064 285.4139,-1097.4199 287.8436,-1097.7348"/>
<text text-anchor="middle" x="296" y="-1577" font-family="Arial" font-size="10.00" fill="#0d337e">8.46%</text>
<text text-anchor="middle" x="296" y="-1566" font-family="Arial" font-size="10.00" fill="#0d337e">1×</text>
</g>
<!-- 5198 -->
<g id="node29" class="node">
<title>5198</title>
<g id="a_node29"><a xlink:title="/home/marcc/resistance&#45;MS/msresist/figures/figure2.py">
<polygon fill="#e98903" stroke="#e98903" points="475.5,-2014 296.5,-2014 296.5,-1962 475.5,-1962 475.5,-2014"/>
<text text-anchor="middle" x="386" y="-2002" font-family="Arial" font-size="10.00" fill="#ffffff">figure2:145:plotMeasuredVsPredicted</text>
<text text-anchor="middle" x="386" y="-1991" font-family="Arial" font-size="10.00" fill="#ffffff">85.47%</text>
<text text-anchor="middle" x="386" y="-1980" font-family="Arial" font-size="10.00" fill="#ffffff">(0.00%)</text>
<text text-anchor="middle" x="386" y="-1969" font-family="Arial" font-size="10.00" fill="#ffffff">1×</text>
</a>
</g>
</g>
<!-- 4675&#45;&gt;5198 -->
<g id="edge23" class="edge">
<title>4675&#45;&gt;5198</title>
<path fill="none" stroke="#e98903" stroke-width="3.42" d="M333.7236,-2053.8826C341.7378,-2043.7825 351.0086,-2032.0988 359.4975,-2021.4004"/>
<polygon fill="#e98903" stroke="#e98903" stroke-width="3.42" points="362.0285,-2023.3911 365.2246,-2014.1827 356.9836,-2019.3881 362.0285,-2023.3911"/>
<text text-anchor="middle" x="375" y="-2037" font-family="Arial" font-size="10.00" fill="#e98903">85.47%</text>
<text text-anchor="middle" x="375" y="-2026" font-family="Arial" font-size="10.00" fill="#e98903">1×</text>
</g>
<!-- 12495&#45;&gt;2189 -->
<g id="edge34" class="edge">
<title>12495&#45;&gt;2189</title>
<path fill="none" stroke="#0c6f8c" stroke-width=".77" d="M276.5037,-183.8826C280.9563,-172.8113 286.1741,-159.8373 290.7965,-148.3439"/>
<polygon fill="#0c6f8c" stroke="#0c6f8c" stroke-width=".77" points="292.2569,-148.8396 292.47,-144.1827 289.3994,-147.6903 292.2569,-148.8396"/>
<text text-anchor="middle" x="305" y="-167" font-family="Arial" font-size="10.00" fill="#0c6f8c">19.29%</text>
<text text-anchor="middle" x="305" y="-156" font-family="Arial" font-size="10.00" fill="#0c6f8c">1920×</text>
</g>
<!-- 2211 -->
<g id="node19" class="node">
<title>2211</title>
<g id="a_node19"><a xlink:title="~">
<polygon fill="#cfd806" stroke="#cfd806" points="413.5,-52 192.5,-52 192.5,0 413.5,0 413.5,-52"/>
<text text-anchor="middle" x="303" y="-40" font-family="Arial" font-size="10.00" fill="#ffffff">~:0:&lt;method &#39;acquire&#39; of &#39;_thread.lock&#39; objects&gt;</text>
<text text-anchor="middle" x="303" y="-29" font-family="Arial" font-size="10.00" fill="#ffffff">73.93%</text>
<text text-anchor="middle" x="303" y="-18" font-family="Arial" font-size="10.00" fill="#ffffff">(73.93%)</text>
<text text-anchor="middle" x="303" y="-7" font-family="Arial" font-size="10.00" fill="#ffffff">8598×</text>
</a>
</g>
</g>
<!-- 2189&#45;&gt;2211 -->
<g id="edge12" class="edge">
<title>2189&#45;&gt;2211</title>
<path fill="none" stroke="#cfd806" stroke-width="2.96" d="M303,-91.8826C303,-82.2681 303,-71.2186 303,-60.95"/>
<polygon fill="#cfd806" stroke="#cfd806" stroke-width="2.96" points="306.0101,-60.7827 303,-52.1827 299.9901,-60.7828 306.0101,-60.7827"/>
<text text-anchor="middle" x="320" y="-75" font-family="Arial" font-size="10.00" fill="#cfd806">73.93%</text>
<text text-anchor="middle" x="320" y="-64" font-family="Arial" font-size="10.00" fill="#cfd806">4696×</text>
</g>
<!-- 3680 -->
<g id="node20" class="node">
<title>3680</title>
<g id="a_node20"><a xlink:title="/usr/local/lib/python3.7/dist&#45;packages/sklearn/model_selection/_validation.py">
<polygon fill="#e98903" stroke="#e98903" points="451,-1186 297,-1186 297,-1134 451,-1134 451,-1186"/>
<text text-anchor="middle" x="374" y="-1174" font-family="Arial" font-size="10.00" fill="#ffffff">_validation:790:_fit_and_predict</text>
<text text-anchor="middle" x="374" y="-1163" font-family="Arial" font-size="10.00" fill="#ffffff">85.49%</text>
<text text-anchor="middle" x="374" y="-1152" font-family="Arial" font-size="10.00" fill="#ffffff">(0.00%)</text>
<text text-anchor="middle" x="374" y="-1141" font-family="Arial" font-size="10.00" fill="#ffffff">30×</text>
</a>
</g>
</g>
<!-- 3680&#45;&gt;4322 -->
<g id="edge14" class="edge">
<title>3680&#45;&gt;4322</title>
<path fill="none" stroke="#e98903" stroke-width="3.42" d="M350.4375,-1133.8826C341.2379,-1123.6854 330.582,-1111.874 320.8548,-1101.092"/>
<polygon fill="#e98903" stroke="#e98903" stroke-width="3.42" points="323.1749,-1098.8567 314.6214,-1094.1827 318.3933,-1103.1706 323.1749,-1098.8567"/>
<text text-anchor="middle" x="359" y="-1117" font-family="Arial" font-size="10.00" fill="#e98903">85.42%</text>
<text text-anchor="middle" x="359" y="-1106" font-family="Arial" font-size="10.00" fill="#e98903">10×</text>
</g>
<!-- 4322&#45;&gt;1686 -->
<g id="edge18" class="edge">
<title>4322&#45;&gt;1686</title>
<path fill="none" stroke="#f63d02" stroke-width="3.75" d="M291,-1041.8826C291,-1032.5594 291,-1021.8869 291,-1011.8856"/>
<polygon fill="#f63d02" stroke="#f63d02" stroke-width="3.75" points="294.3951,-1011.8827 291,-1002.1827 287.6051,-1011.8828 294.3951,-1011.8827"/>
<text text-anchor="middle" x="308" y="-1025" font-family="Arial" font-size="10.00" fill="#f63d02">93.87%</text>
<text text-anchor="middle" x="308" y="-1014" font-family="Arial" font-size="10.00" fill="#f63d02">11×</text>
</g>
<!-- 4928 -->
<g id="node23" class="node">
<title>4928</title>
<g id="a_node23"><a xlink:title="/home/marcc/resistance&#45;MS/msresist/clustering.py">
<polygon fill="#f63e02" stroke="#f63e02" points="332.5,-726 249.5,-726 249.5,-674 332.5,-674 332.5,-726"/>
<text text-anchor="middle" x="291" y="-714" font-family="Arial" font-size="10.00" fill="#ffffff">clustering:82:fit</text>
<text text-anchor="middle" x="291" y="-703" font-family="Arial" font-size="10.00" fill="#ffffff">93.83%</text>
<text text-anchor="middle" x="291" y="-692" font-family="Arial" font-size="10.00" fill="#ffffff">(0.19%)</text>
<text text-anchor="middle" x="291" y="-681" font-family="Arial" font-size="10.00" fill="#ffffff">11×</text>
</a>
</g>
</g>
<!-- 3817&#45;&gt;4928 -->
<g id="edge15" class="edge">
<title>3817&#45;&gt;4928</title>
<path fill="none" stroke="#f63e02" stroke-width="3.75" d="M291,-765.8826C291,-756.5594 291,-745.8869 291,-735.8856"/>
<polygon fill="#f63e02" stroke="#f63e02" stroke-width="3.75" points="294.3951,-735.8827 291,-726.1827 287.6051,-735.8828 294.3951,-735.8827"/>
<text text-anchor="middle" x="308" y="-749" font-family="Arial" font-size="10.00" fill="#f63e02">93.83%</text>
<text text-anchor="middle" x="308" y="-738" font-family="Arial" font-size="10.00" fill="#f63e02">11×</text>
</g>
<!-- 4928&#45;&gt;1862 -->
<g id="edge26" class="edge">
<title>4928&#45;&gt;1862</title>
<path fill="none" stroke="#f54002" stroke-width="3.75" d="M291,-673.8826C291,-664.5594 291,-653.8869 291,-643.8856"/>
<polygon fill="#f54002" stroke="#f54002" stroke-width="3.75" points="294.3951,-643.8827 291,-634.1827 287.6051,-643.8828 294.3951,-643.8827"/>
<text text-anchor="middle" x="308" y="-657" font-family="Arial" font-size="10.00" fill="#f54002">93.64%</text>
<text text-anchor="middle" x="308" y="-646" font-family="Arial" font-size="10.00" fill="#f54002">11×</text>
</g>
<!-- 3918 -->
<g id="node24" class="node">
<title>3918</title>
<g id="a_node24"><a xlink:title="/usr/local/lib/python3.7/dist&#45;packages/Bio/Seq.py">
<polygon fill="#0d247a" stroke="#0d247a" points="493.5,-144 384.5,-144 384.5,-92 493.5,-92 493.5,-144"/>
<text text-anchor="middle" x="439" y="-132" font-family="Arial" font-size="10.00" fill="#ffffff">Seq:311:__getitem__</text>
<text text-anchor="middle" x="439" y="-121" font-family="Arial" font-size="10.00" fill="#ffffff">5.36%</text>
<text text-anchor="middle" x="439" y="-110" font-family="Arial" font-size="10.00" fill="#ffffff">(4.21%)</text>
<text text-anchor="middle" x="439" y="-99" font-family="Arial" font-size="10.00" fill="#ffffff">39702168×</text>
</a>
</g>
</g>
<!-- 3926 -->
<g id="node25" class="node">
<title>3926</title>
<g id="a_node25"><a xlink:title="/usr/local/lib/python3.7/dist&#45;packages/sklearn/model_selection/_validation.py">
<polygon fill="#e98903" stroke="#e98903" points="465.5,-1922 304.5,-1922 304.5,-1870 465.5,-1870 465.5,-1922"/>
<text text-anchor="middle" x="385" y="-1910" font-family="Arial" font-size="10.00" fill="#ffffff">_validation:614:cross_val_predict</text>
<text text-anchor="middle" x="385" y="-1899" font-family="Arial" font-size="10.00" fill="#ffffff">85.50%</text>
<text text-anchor="middle" x="385" y="-1888" font-family="Arial" font-size="10.00" fill="#ffffff">(0.00%)</text>
<text text-anchor="middle" x="385" y="-1877" font-family="Arial" font-size="10.00" fill="#ffffff">3×</text>
</a>
</g>
</g>
<!-- 3926&#45;&gt;2048 -->
<g id="edge16" class="edge">
<title>3926&#45;&gt;2048</title>
<path fill="none" stroke="#e98903" stroke-width="3.42" d="M385,-1869.8826C385,-1860.4623 385,-1849.6644 385,-1839.5732"/>
<polygon fill="#e98903" stroke="#e98903" stroke-width="3.42" points="388.2201,-1839.3827 385,-1830.1827 381.7801,-1839.3828 388.2201,-1839.3827"/>
<text text-anchor="middle" x="402" y="-1853" font-family="Arial" font-size="10.00" fill="#e98903">85.50%</text>
<text text-anchor="middle" x="402" y="-1842" font-family="Arial" font-size="10.00" fill="#e98903">3×</text>
</g>
<!-- 4656 -->
<g id="node26" class="node">
<title>4656</title>
<g id="a_node26"><a xlink:title="/usr/local/lib/python3.7/dist&#45;packages/Bio/motifs/__init__.py">
<polygon fill="#0d3a7f" stroke="#0d3a7f" points="492,-328 386,-328 386,-276 492,-276 492,-328"/>
<text text-anchor="middle" x="439" y="-316" font-family="Arial" font-size="10.00" fill="#ffffff">__init__:252:__init__</text>
<text text-anchor="middle" x="439" y="-305" font-family="Arial" font-size="10.00" fill="#ffffff">9.83%</text>
<text text-anchor="middle" x="439" y="-294" font-family="Arial" font-size="10.00" fill="#ffffff">(0.00%)</text>
<text text-anchor="middle" x="439" y="-283" font-family="Arial" font-size="10.00" fill="#ffffff">33×</text>
</a>
</g>
</g>
<!-- 4737 -->
<g id="node27" class="node">
<title>4737</title>
<g id="a_node27"><a xlink:title="/usr/local/lib/python3.7/dist&#45;packages/Bio/motifs/__init__.py">
<polygon fill="#0d3a7f" stroke="#0d3a7f" points="487,-236 391,-236 391,-184 487,-184 487,-236"/>
<text text-anchor="middle" x="439" y="-224" font-family="Arial" font-size="10.00" fill="#ffffff">__init__:217:count</text>
<text text-anchor="middle" x="439" y="-213" font-family="Arial" font-size="10.00" fill="#ffffff">9.83%</text>
<text text-anchor="middle" x="439" y="-202" font-family="Arial" font-size="10.00" fill="#ffffff">(4.47%)</text>
<text text-anchor="middle" x="439" y="-191" font-family="Arial" font-size="10.00" fill="#ffffff">33×</text>
</a>
</g>
</g>
<!-- 4656&#45;&gt;4737 -->
<g id="edge20" class="edge">
<title>4656&#45;&gt;4737</title>
<path fill="none" stroke="#0d3a7f" stroke-width=".5" d="M439,-275.8826C439,-264.6171 439,-251.3815 439,-239.7404"/>
<polygon fill="#0d3a7f" stroke="#0d3a7f" stroke-width=".5" points="440.2251,-239.6827 439,-236.1827 437.7751,-239.6828 440.2251,-239.6827"/>
<text text-anchor="middle" x="453" y="-259" font-family="Arial" font-size="10.00" fill="#0d3a7f">9.83%</text>
<text text-anchor="middle" x="453" y="-248" font-family="Arial" font-size="10.00" fill="#0d3a7f">33×</text>
</g>
<!-- 4737&#45;&gt;3918 -->
<g id="edge25" class="edge">
<title>4737&#45;&gt;3918</title>
<path fill="none" stroke="#0d247a" stroke-width=".5" d="M439,-183.8826C439,-172.6171 439,-159.3815 439,-147.7404"/>
<polygon fill="#0d247a" stroke="#0d247a" stroke-width=".5" points="440.2251,-147.6827 439,-144.1827 437.7751,-147.6828 440.2251,-147.6827"/>
<text text-anchor="middle" x="463.5" y="-167" font-family="Arial" font-size="10.00" fill="#0d247a">5.36%</text>
<text text-anchor="middle" x="463.5" y="-156" font-family="Arial" font-size="10.00" fill="#0d247a">39702168×</text>
</g>
<!-- 4736&#45;&gt;4656 -->
<g id="edge24" class="edge">
<title>4736&#45;&gt;4656</title>
<path fill="none" stroke="#0d3a7f" stroke-width=".5" d="M439,-367.8826C439,-356.6171 439,-343.3815 439,-331.7404"/>
<polygon fill="#0d3a7f" stroke="#0d3a7f" stroke-width=".5" points="440.2251,-331.6827 439,-328.1827 437.7751,-331.6828 440.2251,-331.6827"/>
<text text-anchor="middle" x="453" y="-351" font-family="Arial" font-size="10.00" fill="#0d3a7f">9.83%</text>
<text text-anchor="middle" x="453" y="-340" font-family="Arial" font-size="10.00" fill="#0d3a7f">33×</text>
</g>
<!-- 5198&#45;&gt;3926 -->
<g id="edge28" class="edge">
<title>5198&#45;&gt;3926</title>
<path fill="none" stroke="#e98903" stroke-width="3.42" d="M385.7161,-1961.8826C385.6137,-1952.4623 385.4964,-1941.6644 385.3867,-1931.5732"/>
<polygon fill="#e98903" stroke="#e98903" stroke-width="3.42" points="388.6045,-1931.3472 385.2846,-1922.1827 382.1649,-1931.4172 388.6045,-1931.3472"/>
<text text-anchor="middle" x="402" y="-1945" font-family="Arial" font-size="10.00" fill="#e98903">85.46%</text>
<text text-anchor="middle" x="402" y="-1934" font-family="Arial" font-size="10.00" fill="#e98903">1×</text>
</g>
<!-- 5199 -->
<g id="node30" class="node">
<title>5199</title>
<g id="a_node30"><a xlink:title="/usr/local/lib/python3.7/dist&#45;packages/joblib/parallel.py">
<polygon fill="#e98903" stroke="#e98903" points="434,-1278 316,-1278 316,-1226 434,-1226 434,-1278"/>
<text text-anchor="middle" x="375" y="-1266" font-family="Arial" font-size="10.00" fill="#ffffff">parallel:255:&lt;listcomp&gt;</text>
<text text-anchor="middle" x="375" y="-1255" font-family="Arial" font-size="10.00" fill="#ffffff">85.49%</text>
<text text-anchor="middle" x="375" y="-1244" font-family="Arial" font-size="10.00" fill="#ffffff">(0.00%)</text>
<text text-anchor="middle" x="375" y="-1233" font-family="Arial" font-size="10.00" fill="#ffffff">30×</text>
</a>
</g>
</g>
<!-- 5199&#45;&gt;3680 -->
<g id="edge29" class="edge">
<title>5199&#45;&gt;3680</title>
<path fill="none" stroke="#e98903" stroke-width="3.42" d="M374.7161,-1225.8826C374.6137,-1216.4623 374.4964,-1205.6644 374.3867,-1195.5732"/>
<polygon fill="#e98903" stroke="#e98903" stroke-width="3.42" points="377.6045,-1195.3472 374.2846,-1186.1827 371.1649,-1195.4172 377.6045,-1195.3472"/>
<text text-anchor="middle" x="391" y="-1209" font-family="Arial" font-size="10.00" fill="#e98903">85.49%</text>
<text text-anchor="middle" x="391" y="-1198" font-family="Arial" font-size="10.00" fill="#e98903">30×</text>
</g>
<!-- 5427 -->
<g id="node32" class="node">
<title>5427</title>
<g id="a_node32"><a xlink:title="/usr/local/lib/python3.7/dist&#45;packages/joblib/parallel.py">
<polygon fill="#e98903" stroke="#e98903" points="430.5,-1370 325.5,-1370 325.5,-1318 430.5,-1318 430.5,-1370"/>
<text text-anchor="middle" x="378" y="-1358" font-family="Arial" font-size="10.00" fill="#ffffff">parallel:251:__call__</text>
<text text-anchor="middle" x="378" y="-1347" font-family="Arial" font-size="10.00" fill="#ffffff">85.49%</text>
<text text-anchor="middle" x="378" y="-1336" font-family="Arial" font-size="10.00" fill="#ffffff">(0.00%)</text>
<text text-anchor="middle" x="378" y="-1325" font-family="Arial" font-size="10.00" fill="#ffffff">30×</text>
</a>
</g>
</g>
<!-- 5382&#45;&gt;5427 -->
<g id="edge31" class="edge">
<title>5382&#45;&gt;5427</title>
<path fill="none" stroke="#e98903" stroke-width="3.42" d="M378.7161,-1409.8826C378.6137,-1400.4623 378.4964,-1389.6644 378.3867,-1379.5732"/>
<polygon fill="#e98903" stroke="#e98903" stroke-width="3.42" points="381.6045,-1379.3472 378.2846,-1370.1827 375.1649,-1379.4172 381.6045,-1379.3472"/>
<text text-anchor="middle" x="395" y="-1393" font-family="Arial" font-size="10.00" fill="#e98903">85.49%</text>
<text text-anchor="middle" x="395" y="-1382" font-family="Arial" font-size="10.00" fill="#e98903">30×</text>
</g>
<!-- 5427&#45;&gt;5199 -->
<g id="edge32" class="edge">
<title>5427&#45;&gt;5199</title>
<path fill="none" stroke="#e98903" stroke-width="3.42" d="M377.1483,-1317.8826C376.8412,-1308.4623 376.4891,-1297.6644 376.16,-1287.5732"/>
<polygon fill="#e98903" stroke="#e98903" stroke-width="3.42" points="379.372,-1287.2729 375.8538,-1278.1827 372.9354,-1287.4828 379.372,-1287.2729"/>
<text text-anchor="middle" x="393" y="-1301" font-family="Arial" font-size="10.00" fill="#e98903">85.49%</text>
<text text-anchor="middle" x="393" y="-1290" font-family="Arial" font-size="10.00" fill="#e98903">30×</text>
</g>
</g>
</svg>
