<?xml version="1.0" encoding="UTF-8" standalone="no"?>
<!DOCTYPE svg PUBLIC "-//W3C//DTD SVG 1.1//EN"
 "http://www.w3.org/Graphics/SVG/1.1/DTD/svg11.dtd">
<!-- Generated by graphviz version 2.40.1 (20161225.0304)
 -->
<!-- Title: %3 Pages: 1 -->
<svg width="652pt" height="1286pt"
 viewBox="0.00 0.00 651.50 1286.00" xmlns="http://www.w3.org/2000/svg" xmlns:xlink="http://www.w3.org/1999/xlink">
<g id="graph0" class="graph" transform="scale(1 1) rotate(0) translate(4 1282)">
<title>%3</title>
<polygon fill="#ffffff" stroke="transparent" points="-4,4 -4,-1282 647.5,-1282 647.5,4 -4,4"/>
<!-- 1228 -->
<g id="node1" class="node">
<title>1228</title>
<g id="a_node1"><a xlink:title="/home/marcc/resistance&#45;MS/venv/lib/python3.7/site&#45;packages/matplotlib/backend_bases.py">
<polygon fill="#0d287b" stroke="#0d287b" points="172,-1094 12,-1094 12,-1042 172,-1042 172,-1094"/>
<text text-anchor="middle" x="92" y="-1082" font-family="Arial" font-size="10.00" fill="#ffffff">backend_bases:1965:print_figure</text>
<text text-anchor="middle" x="92" y="-1071" font-family="Arial" font-size="10.00" fill="#ffffff">6.15%</text>
<text text-anchor="middle" x="92" y="-1060" font-family="Arial" font-size="10.00" fill="#ffffff">(0.00%)</text>
<text text-anchor="middle" x="92" y="-1049" font-family="Arial" font-size="10.00" fill="#ffffff">1×</text>
</a>
</g>
</g>
<!-- 2082 -->
<g id="node2" class="node">
<title>2082</title>
<g id="a_node2"><a xlink:title="/home/marcc/resistance&#45;MS/venv/lib/python3.7/site&#45;packages/matplotlib/backends/backend_svg.py">
<polygon fill="#0d2379" stroke="#0d2379" points="162.5,-972 21.5,-972 21.5,-920 162.5,-920 162.5,-972"/>
<text text-anchor="middle" x="92" y="-960" font-family="Arial" font-size="10.00" fill="#ffffff">backend_svg:1189:print_svg</text>
<text text-anchor="middle" x="92" y="-949" font-family="Arial" font-size="10.00" fill="#ffffff">5.19%</text>
<text text-anchor="middle" x="92" y="-938" font-family="Arial" font-size="10.00" fill="#ffffff">(0.00%)</text>
<text text-anchor="middle" x="92" y="-927" font-family="Arial" font-size="10.00" fill="#ffffff">2×</text>
</a>
</g>
</g>
<!-- 1228&#45;&gt;2082 -->
<g id="edge1" class="edge">
<title>1228&#45;&gt;2082</title>
<path fill="none" stroke="#0d2379" stroke-width=".5" d="M92,-1041.8279C92,-1022.4497 92,-996.0194 92,-975.824"/>
<polygon fill="#0d2379" stroke="#0d2379" stroke-width=".5" points="93.2251,-975.6287 92,-972.1288 90.7751,-975.6288 93.2251,-975.6287"/>
<text text-anchor="middle" x="106" y="-1010" font-family="Arial" font-size="10.00" fill="#0d2379">5.19%</text>
<text text-anchor="middle" x="106" y="-999" font-family="Arial" font-size="10.00" fill="#0d2379">2×</text>
</g>
<!-- 4604 -->
<g id="node23" class="node">
<title>4604</title>
<g id="a_node23"><a xlink:title="/home/marcc/resistance&#45;MS/venv/lib/python3.7/site&#45;packages/matplotlib/backends/backend_svg.py">
<polygon fill="#0d2379" stroke="#0d2379" points="165,-880 19,-880 19,-828 165,-828 165,-880"/>
<text text-anchor="middle" x="92" y="-868" font-family="Arial" font-size="10.00" fill="#ffffff">backend_svg:1216:_print_svg</text>
<text text-anchor="middle" x="92" y="-857" font-family="Arial" font-size="10.00" fill="#ffffff">5.19%</text>
<text text-anchor="middle" x="92" y="-846" font-family="Arial" font-size="10.00" fill="#ffffff">(0.00%)</text>
<text text-anchor="middle" x="92" y="-835" font-family="Arial" font-size="10.00" fill="#ffffff">2×</text>
</a>
</g>
</g>
<!-- 2082&#45;&gt;4604 -->
<g id="edge15" class="edge">
<title>2082&#45;&gt;4604</title>
<path fill="none" stroke="#0d2379" stroke-width=".5" d="M92,-919.8826C92,-908.6171 92,-895.3815 92,-883.7404"/>
<polygon fill="#0d2379" stroke="#0d2379" stroke-width=".5" points="93.2251,-883.6827 92,-880.1827 90.7751,-883.6828 93.2251,-883.6827"/>
<text text-anchor="middle" x="106" y="-903" font-family="Arial" font-size="10.00" fill="#0d2379">5.19%</text>
<text text-anchor="middle" x="106" y="-892" font-family="Arial" font-size="10.00" fill="#0d2379">2×</text>
</g>
<!-- 1318 -->
<g id="node3" class="node">
<title>1318</title>
<g id="a_node3"><a xlink:title="/home/marcc/resistance&#45;MS/msresist/sequence_analysis.py">
<polygon fill="#0d2f7d" stroke="#0d2f7d" points="196,-328 0,-328 0,-276 196,-276 196,-328"/>
<text text-anchor="middle" x="98" y="-316" font-family="Arial" font-size="10.00" fill="#ffffff">sequence_analysis:359:BackgroundSeqs</text>
<text text-anchor="middle" x="98" y="-305" font-family="Arial" font-size="10.00" fill="#ffffff">7.68%</text>
<text text-anchor="middle" x="98" y="-294" font-family="Arial" font-size="10.00" fill="#ffffff">(4.10%)</text>
<text text-anchor="middle" x="98" y="-283" font-family="Arial" font-size="10.00" fill="#ffffff">4×</text>
</a>
</g>
</g>
<!-- 1642 -->
<g id="node4" class="node">
<title>1642</title>
<g id="a_node4"><a xlink:title="/home/marcc/resistance&#45;MS/venv/lib/python3.7/site&#45;packages/matplotlib/figure.py">
<polygon fill="#0d287b" stroke="#0d287b" points="141.5,-1186 42.5,-1186 42.5,-1134 141.5,-1134 141.5,-1186"/>
<text text-anchor="middle" x="92" y="-1174" font-family="Arial" font-size="10.00" fill="#ffffff">figure:2038:savefig</text>
<text text-anchor="middle" x="92" y="-1163" font-family="Arial" font-size="10.00" fill="#ffffff">6.15%</text>
<text text-anchor="middle" x="92" y="-1152" font-family="Arial" font-size="10.00" fill="#ffffff">(0.00%)</text>
<text text-anchor="middle" x="92" y="-1141" font-family="Arial" font-size="10.00" fill="#ffffff">1×</text>
</a>
</g>
</g>
<!-- 1642&#45;&gt;1228 -->
<g id="edge2" class="edge">
<title>1642&#45;&gt;1228</title>
<path fill="none" stroke="#0d287b" stroke-width=".5" d="M92,-1133.8826C92,-1122.6171 92,-1109.3815 92,-1097.7404"/>
<polygon fill="#0d287b" stroke="#0d287b" stroke-width=".5" points="93.2251,-1097.6827 92,-1094.1827 90.7751,-1097.6828 93.2251,-1097.6827"/>
<text text-anchor="middle" x="106" y="-1117" font-family="Arial" font-size="10.00" fill="#0d287b">6.15%</text>
<text text-anchor="middle" x="106" y="-1106" font-family="Arial" font-size="10.00" fill="#0d287b">1×</text>
</g>
<!-- 1706 -->
<g id="node5" class="node">
<title>1706</title>
<g id="a_node5"><a xlink:title="/usr/local/lib/python3.7/dist&#45;packages/sklearn/pipeline.py">
<polygon fill="#20ba09" stroke="#20ba09" points="311.5,-788 226.5,-788 226.5,-736 311.5,-736 311.5,-788"/>
<text text-anchor="middle" x="269" y="-776" font-family="Arial" font-size="10.00" fill="#ffffff">pipeline:262:_fit</text>
<text text-anchor="middle" x="269" y="-765" font-family="Arial" font-size="10.00" fill="#ffffff">53.19%</text>
<text text-anchor="middle" x="269" y="-754" font-family="Arial" font-size="10.00" fill="#ffffff">(0.00%)</text>
<text text-anchor="middle" x="269" y="-743" font-family="Arial" font-size="10.00" fill="#ffffff">4×</text>
</a>
</g>
</g>
<!-- 5140 -->
<g id="node6" class="node">
<title>5140</title>
<g id="a_node6"><a xlink:title="/usr/local/lib/python3.7/dist&#45;packages/joblib/memory.py">
<polygon fill="#20ba09" stroke="#20ba09" points="324,-696 214,-696 214,-644 324,-644 324,-696"/>
<text text-anchor="middle" x="269" y="-684" font-family="Arial" font-size="10.00" fill="#ffffff">memory:354:__call__</text>
<text text-anchor="middle" x="269" y="-673" font-family="Arial" font-size="10.00" fill="#ffffff">53.19%</text>
<text text-anchor="middle" x="269" y="-662" font-family="Arial" font-size="10.00" fill="#ffffff">(0.00%)</text>
<text text-anchor="middle" x="269" y="-651" font-family="Arial" font-size="10.00" fill="#ffffff">4×</text>
</a>
</g>
</g>
<!-- 1706&#45;&gt;5140 -->
<g id="edge3" class="edge">
<title>1706&#45;&gt;5140</title>
<path fill="none" stroke="#20ba09" stroke-width="2.13" d="M269,-735.8826C269,-725.8796 269,-714.3233 269,-703.7092"/>
<polygon fill="#20ba09" stroke="#20ba09" stroke-width="2.13" points="271.5551,-703.4827 269,-696.1827 266.4451,-703.4828 271.5551,-703.4827"/>
<text text-anchor="middle" x="286" y="-719" font-family="Arial" font-size="10.00" fill="#20ba09">53.19%</text>
<text text-anchor="middle" x="286" y="-708" font-family="Arial" font-size="10.00" fill="#20ba09">4×</text>
</g>
<!-- 3862 -->
<g id="node26" class="node">
<title>3862</title>
<g id="a_node26"><a xlink:title="/usr/local/lib/python3.7/dist&#45;packages/sklearn/pipeline.py">
<polygon fill="#20ba09" stroke="#20ba09" points="345,-604 193,-604 193,-552 345,-552 345,-604"/>
<text text-anchor="middle" x="269" y="-592" font-family="Arial" font-size="10.00" fill="#ffffff">pipeline:714:_fit_transform_one</text>
<text text-anchor="middle" x="269" y="-581" font-family="Arial" font-size="10.00" fill="#ffffff">53.19%</text>
<text text-anchor="middle" x="269" y="-570" font-family="Arial" font-size="10.00" fill="#ffffff">(0.00%)</text>
<text text-anchor="middle" x="269" y="-559" font-family="Arial" font-size="10.00" fill="#ffffff">4×</text>
</a>
</g>
</g>
<!-- 5140&#45;&gt;3862 -->
<g id="edge31" class="edge">
<title>5140&#45;&gt;3862</title>
<path fill="none" stroke="#20ba09" stroke-width="2.13" d="M269,-643.8826C269,-633.8796 269,-622.3233 269,-611.7092"/>
<polygon fill="#20ba09" stroke="#20ba09" stroke-width="2.13" points="271.5551,-611.4827 269,-604.1827 266.4451,-611.4828 271.5551,-611.4827"/>
<text text-anchor="middle" x="286" y="-627" font-family="Arial" font-size="10.00" fill="#20ba09">53.19%</text>
<text text-anchor="middle" x="286" y="-616" font-family="Arial" font-size="10.00" fill="#20ba09">4×</text>
</g>
<!-- 1788 -->
<g id="node7" class="node">
<title>1788</title>
<g id="a_node7"><a xlink:title="/home/marcc/resistance&#45;MS/msresist/sequence_analysis.py">
<polygon fill="#1eba09" stroke="#1eba09" points="361,-420 177,-420 177,-368 361,-368 361,-420"/>
<text text-anchor="middle" x="269" y="-408" font-family="Arial" font-size="10.00" fill="#ffffff">sequence_analysis:241:EM_clustering</text>
<text text-anchor="middle" x="269" y="-397" font-family="Arial" font-size="10.00" fill="#ffffff">52.98%</text>
<text text-anchor="middle" x="269" y="-386" font-family="Arial" font-size="10.00" fill="#ffffff">(0.46%)</text>
<text text-anchor="middle" x="269" y="-375" font-family="Arial" font-size="10.00" fill="#ffffff">4×</text>
</a>
</g>
</g>
<!-- 1788&#45;&gt;1318 -->
<g id="edge4" class="edge">
<title>1788&#45;&gt;1318</title>
<path fill="none" stroke="#0d2f7d" stroke-width=".5" d="M220.4557,-367.8826C198.3394,-355.9837 172.138,-341.8871 149.6583,-329.7928"/>
<polygon fill="#0d2f7d" stroke="#0d2f7d" stroke-width=".5" points="150.0322,-328.6029 146.3695,-328.0234 148.8714,-330.7605 150.0322,-328.6029"/>
<text text-anchor="middle" x="218" y="-351" font-family="Arial" font-size="10.00" fill="#0d2f7d">7.68%</text>
<text text-anchor="middle" x="218" y="-340" font-family="Arial" font-size="10.00" fill="#0d2f7d">4×</text>
</g>
<!-- 1879 -->
<g id="node8" class="node">
<title>1879</title>
<g id="a_node8"><a xlink:title="/home/marcc/resistance&#45;MS/msresist/sequence_analysis.py">
<polygon fill="#0b9f6b" stroke="#0b9f6b" points="378.5,-328 205.5,-328 205.5,-276 378.5,-276 378.5,-328"/>
<text text-anchor="middle" x="292" y="-316" font-family="Arial" font-size="10.00" fill="#ffffff">sequence_analysis:204:assignSeqs</text>
<text text-anchor="middle" x="292" y="-305" font-family="Arial" font-size="10.00" fill="#ffffff">33.92%</text>
<text text-anchor="middle" x="292" y="-294" font-family="Arial" font-size="10.00" fill="#ffffff">(0.77%)</text>
<text text-anchor="middle" x="292" y="-283" font-family="Arial" font-size="10.00" fill="#ffffff">20776×</text>
</a>
</g>
</g>
<!-- 1788&#45;&gt;1879 -->
<g id="edge5" class="edge">
<title>1788&#45;&gt;1879</title>
<path fill="none" stroke="#0b9f6b" stroke-width="1.36" d="M275.5294,-367.8826C278.1758,-357.2969 281.2571,-344.9717 284.0339,-333.8644"/>
<polygon fill="#0b9f6b" stroke="#0b9f6b" stroke-width="1.36" points="286.0169,-334.3019 285.4543,-328.1827 282.0781,-333.3172 286.0169,-334.3019"/>
<text text-anchor="middle" x="301" y="-351" font-family="Arial" font-size="10.00" fill="#0b9f6b">33.92%</text>
<text text-anchor="middle" x="301" y="-340" font-family="Arial" font-size="10.00" fill="#0b9f6b">20776×</text>
</g>
<!-- 4347 -->
<g id="node13" class="node">
<title>4347</title>
<g id="a_node13"><a xlink:title="/home/marcc/resistance&#45;MS/msresist/sequence_analysis.py">
<polygon fill="#0c968b" stroke="#0c968b" points="272.5,-236 73.5,-236 73.5,-184 272.5,-184 272.5,-236"/>
<text text-anchor="middle" x="173" y="-224" font-family="Arial" font-size="10.00" fill="#ffffff">sequence_analysis:440:MeanBinomProbs</text>
<text text-anchor="middle" x="173" y="-213" font-family="Arial" font-size="10.00" fill="#ffffff">27.12%</text>
<text text-anchor="middle" x="173" y="-202" font-family="Arial" font-size="10.00" fill="#ffffff">(3.57%)</text>
<text text-anchor="middle" x="173" y="-191" font-family="Arial" font-size="10.00" fill="#ffffff">103880×</text>
</a>
</g>
</g>
<!-- 1879&#45;&gt;4347 -->
<g id="edge8" class="edge">
<title>1879&#45;&gt;4347</title>
<path fill="none" stroke="#0c968b" stroke-width="1.08" d="M258.2177,-275.8826C243.5204,-264.52 226.2307,-251.1531 211.0795,-239.4397"/>
<polygon fill="#0c968b" stroke="#0c968b" stroke-width="1.08" points="212.0939,-237.9234 206.8668,-236.1827 209.8675,-240.8032 212.0939,-237.9234"/>
<text text-anchor="middle" x="266" y="-259" font-family="Arial" font-size="10.00" fill="#0c968b">27.12%</text>
<text text-anchor="middle" x="266" y="-248" font-family="Arial" font-size="10.00" fill="#0c968b">103880×</text>
</g>
<!-- 7433 -->
<g id="node14" class="node">
<title>7433</title>
<g id="a_node14"><a xlink:title="/home/marcc/resistance&#45;MS/venv/lib/python3.7/site&#45;packages/pandas/core/indexing.py">
<polygon fill="#0d277a" stroke="#0d277a" points="414.5,-236 281.5,-236 281.5,-184 414.5,-184 414.5,-236"/>
<text text-anchor="middle" x="348" y="-224" font-family="Arial" font-size="10.00" fill="#ffffff">indexing:1752:__getitem__</text>
<text text-anchor="middle" x="348" y="-213" font-family="Arial" font-size="10.00" fill="#ffffff">6.01%</text>
<text text-anchor="middle" x="348" y="-202" font-family="Arial" font-size="10.00" fill="#ffffff">(0.69%)</text>
<text text-anchor="middle" x="348" y="-191" font-family="Arial" font-size="10.00" fill="#ffffff">105266×</text>
</a>
</g>
</g>
<!-- 1879&#45;&gt;7433 -->
<g id="edge9" class="edge">
<title>1879&#45;&gt;7433</title>
<path fill="none" stroke="#0d257a" stroke-width=".5" d="M307.8976,-275.8826C314.8139,-264.52 322.9503,-251.1531 330.0802,-239.4397"/>
<polygon fill="#0d257a" stroke="#0d257a" stroke-width=".5" points="331.2892,-239.8094 332.0627,-236.1827 329.1964,-238.5355 331.2892,-239.8094"/>
<text text-anchor="middle" x="346" y="-259" font-family="Arial" font-size="10.00" fill="#0d257a">5.65%</text>
<text text-anchor="middle" x="346" y="-248" font-family="Arial" font-size="10.00" fill="#0d257a">103880×</text>
</g>
<!-- 1874 -->
<g id="node9" class="node">
<title>1874</title>
<g id="a_node9"><a xlink:title="/home/marcc/resistance&#45;MS/msresist/plsr.py">
<polygon fill="#0ab024" stroke="#0ab024" points="388.5,-972 227.5,-972 227.5,-920 388.5,-920 388.5,-972"/>
<text text-anchor="middle" x="308" y="-960" font-family="Arial" font-size="10.00" fill="#ffffff">plsr:17:R2Y_across_components</text>
<text text-anchor="middle" x="308" y="-949" font-family="Arial" font-size="10.00" fill="#ffffff">46.10%</text>
<text text-anchor="middle" x="308" y="-938" font-family="Arial" font-size="10.00" fill="#ffffff">(0.00%)</text>
<text text-anchor="middle" x="308" y="-927" font-family="Arial" font-size="10.00" fill="#ffffff">1×</text>
</a>
</g>
</g>
<!-- 4351 -->
<g id="node10" class="node">
<title>4351</title>
<g id="a_node10"><a xlink:title="/usr/local/lib/python3.7/dist&#45;packages/sklearn/pipeline.py">
<polygon fill="#20ba09" stroke="#20ba09" points="309,-880 229,-880 229,-828 309,-828 309,-880"/>
<text text-anchor="middle" x="269" y="-868" font-family="Arial" font-size="10.00" fill="#ffffff">pipeline:324:fit</text>
<text text-anchor="middle" x="269" y="-857" font-family="Arial" font-size="10.00" fill="#ffffff">53.22%</text>
<text text-anchor="middle" x="269" y="-846" font-family="Arial" font-size="10.00" fill="#ffffff">(0.00%)</text>
<text text-anchor="middle" x="269" y="-835" font-family="Arial" font-size="10.00" fill="#ffffff">4×</text>
</a>
</g>
</g>
<!-- 1874&#45;&gt;4351 -->
<g id="edge6" class="edge">
<title>1874&#45;&gt;4351</title>
<path fill="none" stroke="#0ab025" stroke-width="1.84" d="M296.9285,-919.8826C292.5234,-909.4911 287.4078,-897.4234 282.7674,-886.4771"/>
<polygon fill="#0ab025" stroke="#0ab025" stroke-width="1.84" points="284.9445,-885.5145 280.0992,-880.1827 280.562,-887.3723 284.9445,-885.5145"/>
<text text-anchor="middle" x="311" y="-903" font-family="Arial" font-size="10.00" fill="#0ab025">46.01%</text>
<text text-anchor="middle" x="311" y="-892" font-family="Arial" font-size="10.00" fill="#0ab025">3×</text>
</g>
<!-- 4351&#45;&gt;1706 -->
<g id="edge23" class="edge">
<title>4351&#45;&gt;1706</title>
<path fill="none" stroke="#20ba09" stroke-width="2.13" d="M269,-827.8826C269,-817.8796 269,-806.3233 269,-795.7092"/>
<polygon fill="#20ba09" stroke="#20ba09" stroke-width="2.13" points="271.5551,-795.4827 269,-788.1827 266.4451,-795.4828 271.5551,-795.4827"/>
<text text-anchor="middle" x="286" y="-811" font-family="Arial" font-size="10.00" fill="#20ba09">53.19%</text>
<text text-anchor="middle" x="286" y="-800" font-family="Arial" font-size="10.00" fill="#20ba09">4×</text>
</g>
<!-- 1875 -->
<g id="node11" class="node">
<title>1875</title>
<g id="a_node11"><a xlink:title="/home/marcc/resistance&#45;MS/msresist/plsr.py">
<polygon fill="#0c9590" stroke="#0c9590" points="558.5,-972 397.5,-972 397.5,-920 558.5,-920 558.5,-972"/>
<text text-anchor="middle" x="478" y="-960" font-family="Arial" font-size="10.00" fill="#ffffff">plsr:30:Q2Y_across_components</text>
<text text-anchor="middle" x="478" y="-949" font-family="Arial" font-size="10.00" fill="#ffffff">25.83%</text>
<text text-anchor="middle" x="478" y="-938" font-family="Arial" font-size="10.00" fill="#ffffff">(0.00%)</text>
<text text-anchor="middle" x="478" y="-927" font-family="Arial" font-size="10.00" fill="#ffffff">1×</text>
</a>
</g>
</g>
<!-- 3970 -->
<g id="node12" class="node">
<title>3970</title>
<g id="a_node12"><a xlink:title="/usr/local/lib/python3.7/dist&#45;packages/sklearn/model_selection/_validation.py">
<polygon fill="#0ba35e" stroke="#0ba35e" points="582.5,-880 421.5,-880 421.5,-828 582.5,-828 582.5,-880"/>
<text text-anchor="middle" x="502" y="-868" font-family="Arial" font-size="10.00" fill="#ffffff">_validation:614:cross_val_predict</text>
<text text-anchor="middle" x="502" y="-857" font-family="Arial" font-size="10.00" fill="#ffffff">36.26%</text>
<text text-anchor="middle" x="502" y="-846" font-family="Arial" font-size="10.00" fill="#ffffff">(0.00%)</text>
<text text-anchor="middle" x="502" y="-835" font-family="Arial" font-size="10.00" fill="#ffffff">4×</text>
</a>
</g>
</g>
<!-- 1875&#45;&gt;3970 -->
<g id="edge7" class="edge">
<title>1875&#45;&gt;3970</title>
<path fill="none" stroke="#0c9590" stroke-width="1.03" d="M484.8132,-919.8826C487.6254,-909.1027 490.9081,-896.5188 493.8467,-885.2543"/>
<polygon fill="#0c9590" stroke="#0c9590" stroke-width="1.03" points="495.6095,-885.5682 495.1697,-880.1827 492.1551,-884.667 495.6095,-885.5682"/>
<text text-anchor="middle" x="509" y="-903" font-family="Arial" font-size="10.00" fill="#0c9590">25.83%</text>
<text text-anchor="middle" x="509" y="-892" font-family="Arial" font-size="10.00" fill="#0c9590">3×</text>
</g>
<!-- 2055 -->
<g id="node19" class="node">
<title>2055</title>
<g id="a_node19"><a xlink:title="/usr/local/lib/python3.7/dist&#45;packages/joblib/parallel.py">
<polygon fill="#0ba35e" stroke="#0ba35e" points="554.5,-788 449.5,-788 449.5,-736 554.5,-736 554.5,-788"/>
<text text-anchor="middle" x="502" y="-776" font-family="Arial" font-size="10.00" fill="#ffffff">parallel:942:__call__</text>
<text text-anchor="middle" x="502" y="-765" font-family="Arial" font-size="10.00" fill="#ffffff">36.25%</text>
<text text-anchor="middle" x="502" y="-754" font-family="Arial" font-size="10.00" fill="#ffffff">(0.00%)</text>
<text text-anchor="middle" x="502" y="-743" font-family="Arial" font-size="10.00" fill="#ffffff">4×</text>
</a>
</g>
</g>
<!-- 3970&#45;&gt;2055 -->
<g id="edge19" class="edge">
<title>3970&#45;&gt;2055</title>
<path fill="none" stroke="#0ba35e" stroke-width="1.45" d="M502,-827.8826C502,-817.4911 502,-805.4234 502,-794.4771"/>
<polygon fill="#0ba35e" stroke="#0ba35e" stroke-width="1.45" points="504.1001,-794.1827 502,-788.1827 499.9001,-794.1828 504.1001,-794.1827"/>
<text text-anchor="middle" x="519" y="-811" font-family="Arial" font-size="10.00" fill="#0ba35e">36.25%</text>
<text text-anchor="middle" x="519" y="-800" font-family="Arial" font-size="10.00" fill="#0ba35e">4×</text>
</g>
<!-- 4039 -->
<g id="node28" class="node">
<title>4039</title>
<g id="a_node28"><a xlink:title="/home/marcc/resistance&#45;MS/venv/lib/python3.7/site&#45;packages/pandas/core/indexing.py">
<polygon fill="#0c7b8e" stroke="#0c7b8e" points="239.5,-144 106.5,-144 106.5,-92 239.5,-92 239.5,-144"/>
<text text-anchor="middle" x="173" y="-132" font-family="Arial" font-size="10.00" fill="#ffffff">indexing:2167:__getitem__</text>
<text text-anchor="middle" x="173" y="-121" font-family="Arial" font-size="10.00" fill="#ffffff">21.26%</text>
<text text-anchor="middle" x="173" y="-110" font-family="Arial" font-size="10.00" fill="#ffffff">(3.42%)</text>
<text text-anchor="middle" x="173" y="-99" font-family="Arial" font-size="10.00" fill="#ffffff">1038800×</text>
</a>
</g>
</g>
<!-- 4347&#45;&gt;4039 -->
<g id="edge22" class="edge">
<title>4347&#45;&gt;4039</title>
<path fill="none" stroke="#0c7b8e" stroke-width=".85" d="M173,-183.8826C173,-173.0055 173,-160.2919 173,-148.9502"/>
<polygon fill="#0c7b8e" stroke="#0c7b8e" stroke-width=".85" points="174.6101,-148.7827 173,-144.1827 171.3901,-148.7828 174.6101,-148.7827"/>
<text text-anchor="middle" x="194.5" y="-167" font-family="Arial" font-size="10.00" fill="#0c7b8e">21.26%</text>
<text text-anchor="middle" x="194.5" y="-156" font-family="Arial" font-size="10.00" fill="#0c7b8e">1038800×</text>
</g>
<!-- 1929 -->
<g id="node15" class="node">
<title>1929</title>
<g id="a_node15"><a xlink:title="/home/marcc/resistance&#45;MS/venv/lib/python3.7/site&#45;packages/matplotlib/axes/_base.py">
<polygon fill="#0d2379" stroke="#0d2379" points="428,-1278 300,-1278 300,-1226 428,-1226 428,-1278"/>
<text text-anchor="middle" x="364" y="-1266" font-family="Arial" font-size="10.00" fill="#ffffff">_base:4304:get_tightbbox</text>
<text text-anchor="middle" x="364" y="-1255" font-family="Arial" font-size="10.00" fill="#ffffff">5.10%</text>
<text text-anchor="middle" x="364" y="-1244" font-family="Arial" font-size="10.00" fill="#ffffff">(0.01%)</text>
<text text-anchor="middle" x="364" y="-1233" font-family="Arial" font-size="10.00" fill="#ffffff">36×</text>
</a>
</g>
</g>
<!-- 1994 -->
<g id="node16" class="node">
<title>1994</title>
<g id="a_node16"><a xlink:title="/usr/local/lib/python3.7/dist&#45;packages/joblib/parallel.py">
<polygon fill="#0ba262" stroke="#0ba262" points="552.5,-696 451.5,-696 451.5,-644 552.5,-644 552.5,-696"/>
<text text-anchor="middle" x="502" y="-684" font-family="Arial" font-size="10.00" fill="#ffffff">parallel:894:retrieve</text>
<text text-anchor="middle" x="502" y="-673" font-family="Arial" font-size="10.00" fill="#ffffff">35.51%</text>
<text text-anchor="middle" x="502" y="-662" font-family="Arial" font-size="10.00" fill="#ffffff">(0.00%)</text>
<text text-anchor="middle" x="502" y="-651" font-family="Arial" font-size="10.00" fill="#ffffff">4×</text>
</a>
</g>
</g>
<!-- 5446 -->
<g id="node17" class="node">
<title>5446</title>
<g id="a_node17"><a xlink:title="/usr/local/lib/python3.7/dist&#45;packages/joblib/_parallel_backends.py">
<polygon fill="#0ba262" stroke="#0ba262" points="602.5,-604 401.5,-604 401.5,-552 602.5,-552 602.5,-604"/>
<text text-anchor="middle" x="502" y="-592" font-family="Arial" font-size="10.00" fill="#ffffff">_parallel_backends:557:wrap_future_result</text>
<text text-anchor="middle" x="502" y="-581" font-family="Arial" font-size="10.00" fill="#ffffff">35.50%</text>
<text text-anchor="middle" x="502" y="-570" font-family="Arial" font-size="10.00" fill="#ffffff">(0.00%)</text>
<text text-anchor="middle" x="502" y="-559" font-family="Arial" font-size="10.00" fill="#ffffff">40×</text>
</a>
</g>
</g>
<!-- 1994&#45;&gt;5446 -->
<g id="edge10" class="edge">
<title>1994&#45;&gt;5446</title>
<path fill="none" stroke="#0ba262" stroke-width="1.42" d="M502,-643.8826C502,-633.4911 502,-621.4234 502,-610.4771"/>
<polygon fill="#0ba262" stroke="#0ba262" stroke-width="1.42" points="504.1001,-610.1827 502,-604.1827 499.9001,-610.1828 504.1001,-610.1827"/>
<text text-anchor="middle" x="519" y="-627" font-family="Arial" font-size="10.00" fill="#0ba262">35.50%</text>
<text text-anchor="middle" x="519" y="-616" font-family="Arial" font-size="10.00" fill="#0ba262">40×</text>
</g>
<!-- 6107 -->
<g id="node35" class="node">
<title>6107</title>
<g id="a_node35"><a xlink:title="/usr/lib/python3.7/concurrent/futures/_base.py">
<polygon fill="#0ba262" stroke="#0ba262" points="546.5,-512 457.5,-512 457.5,-460 546.5,-460 546.5,-512"/>
<text text-anchor="middle" x="502" y="-500" font-family="Arial" font-size="10.00" fill="#ffffff">_base:408:result</text>
<text text-anchor="middle" x="502" y="-489" font-family="Arial" font-size="10.00" fill="#ffffff">35.50%</text>
<text text-anchor="middle" x="502" y="-478" font-family="Arial" font-size="10.00" fill="#ffffff">(0.00%)</text>
<text text-anchor="middle" x="502" y="-467" font-family="Arial" font-size="10.00" fill="#ffffff">40×</text>
</a>
</g>
</g>
<!-- 5446&#45;&gt;6107 -->
<g id="edge33" class="edge">
<title>5446&#45;&gt;6107</title>
<path fill="none" stroke="#0ba262" stroke-width="1.42" d="M502,-551.8826C502,-541.4911 502,-529.4234 502,-518.4771"/>
<polygon fill="#0ba262" stroke="#0ba262" stroke-width="1.42" points="504.1001,-518.1827 502,-512.1827 499.9001,-518.1828 504.1001,-518.1827"/>
<text text-anchor="middle" x="519" y="-535" font-family="Arial" font-size="10.00" fill="#0ba262">35.50%</text>
<text text-anchor="middle" x="519" y="-524" font-family="Arial" font-size="10.00" fill="#0ba262">40×</text>
</g>
<!-- 2022 -->
<g id="node18" class="node">
<title>2022</title>
<g id="a_node18"><a xlink:title="/home/marcc/resistance&#45;MS/venv/lib/python3.7/site&#45;packages/matplotlib/figure.py">
<polygon fill="#0d2379" stroke="#0d2379" points="136,-696 48,-696 48,-644 136,-644 136,-696"/>
<text text-anchor="middle" x="92" y="-684" font-family="Arial" font-size="10.00" fill="#ffffff">figure:1661:draw</text>
<text text-anchor="middle" x="92" y="-673" font-family="Arial" font-size="10.00" fill="#ffffff">5.19%</text>
<text text-anchor="middle" x="92" y="-662" font-family="Arial" font-size="10.00" fill="#ffffff">(0.00%)</text>
<text text-anchor="middle" x="92" y="-651" font-family="Arial" font-size="10.00" fill="#ffffff">2×</text>
</a>
</g>
</g>
<!-- 2055&#45;&gt;1994 -->
<g id="edge11" class="edge">
<title>2055&#45;&gt;1994</title>
<path fill="none" stroke="#0ba262" stroke-width="1.42" d="M502,-735.8826C502,-725.4911 502,-713.4234 502,-702.4771"/>
<polygon fill="#0ba262" stroke="#0ba262" stroke-width="1.42" points="504.1001,-702.1827 502,-696.1827 499.9001,-702.1828 504.1001,-702.1827"/>
<text text-anchor="middle" x="519" y="-719" font-family="Arial" font-size="10.00" fill="#0ba262">35.51%</text>
<text text-anchor="middle" x="519" y="-708" font-family="Arial" font-size="10.00" fill="#0ba262">4×</text>
</g>
<!-- 2059 -->
<g id="node20" class="node">
<title>2059</title>
<g id="a_node20"><a xlink:title="genFigure.py">
<polygon fill="#ff0000" stroke="#ff0000" points="291,-1278 177,-1278 177,-1226 291,-1226 291,-1278"/>
<text text-anchor="middle" x="234" y="-1266" font-family="Arial" font-size="10.00" fill="#ffffff">genFigure:2:&lt;module&gt;</text>
<text text-anchor="middle" x="234" y="-1255" font-family="Arial" font-size="10.00" fill="#ffffff">100.00%</text>
<text text-anchor="middle" x="234" y="-1244" font-family="Arial" font-size="10.00" fill="#ffffff">(0.00%)</text>
<text text-anchor="middle" x="234" y="-1233" font-family="Arial" font-size="10.00" fill="#ffffff">1×</text>
</a>
</g>
</g>
<!-- 2059&#45;&gt;1642 -->
<g id="edge12" class="edge">
<title>2059&#45;&gt;1642</title>
<path fill="none" stroke="#0d287b" stroke-width=".5" d="M193.6883,-1225.8826C175.5508,-1214.1315 154.1047,-1200.2368 135.5943,-1188.2442"/>
<polygon fill="#0d287b" stroke="#0d287b" stroke-width=".5" points="136.016,-1187.0578 132.4125,-1186.1827 134.6838,-1189.114 136.016,-1187.0578"/>
<text text-anchor="middle" x="194" y="-1209" font-family="Arial" font-size="10.00" fill="#0d287b">6.15%</text>
<text text-anchor="middle" x="194" y="-1198" font-family="Arial" font-size="10.00" fill="#0d287b">1×</text>
</g>
<!-- 3720 -->
<g id="node21" class="node">
<title>3720</title>
<g id="a_node21"><a xlink:title="~">
<polygon fill="#ff0000" stroke="#ff0000" points="317.5,-1186 150.5,-1186 150.5,-1134 317.5,-1134 317.5,-1186"/>
<text text-anchor="middle" x="234" y="-1174" font-family="Arial" font-size="10.00" fill="#ffffff">~:0:&lt;built&#45;in method builtins.exec&gt;</text>
<text text-anchor="middle" x="234" y="-1163" font-family="Arial" font-size="10.00" fill="#ffffff">100.00%</text>
<text text-anchor="middle" x="234" y="-1152" font-family="Arial" font-size="10.00" fill="#ffffff">(0.03%)</text>
<text text-anchor="middle" x="234" y="-1141" font-family="Arial" font-size="10.00" fill="#ffffff">2800×</text>
</a>
</g>
</g>
<!-- 2059&#45;&gt;3720 -->
<g id="edge13" class="edge">
<title>2059&#45;&gt;3720</title>
<path fill="none" stroke="#0d1575" stroke-width=".5" d="M218.8677,-1225.7582C217.7033,-1222.8736 216.7074,-1219.9221 216,-1217 213.6995,-1207.4967 213.6995,-1204.5033 216,-1195 216.42,-1193.265 216.9417,-1191.5197 217.5401,-1189.7841"/>
<polygon fill="#0d1575" stroke="#0d1575" stroke-width=".5" points="218.7864,-1189.9491 218.8677,-1186.2418 216.4922,-1189.0892 218.7864,-1189.9491"/>
<text text-anchor="middle" x="230" y="-1209" font-family="Arial" font-size="10.00" fill="#0d1575">1.90%</text>
<text text-anchor="middle" x="230" y="-1198" font-family="Arial" font-size="10.00" fill="#0d1575">1×</text>
</g>
<!-- 4720 -->
<g id="node22" class="node">
<title>4720</title>
<g id="a_node22"><a xlink:title="/home/marcc/resistance&#45;MS/msresist/figures/figure2.py">
<polygon fill="#f25202" stroke="#f25202" points="439.5,-1186 326.5,-1186 326.5,-1134 439.5,-1134 439.5,-1186"/>
<text text-anchor="middle" x="383" y="-1174" font-family="Arial" font-size="10.00" fill="#ffffff">figure2:26:makeFigure</text>
<text text-anchor="middle" x="383" y="-1163" font-family="Arial" font-size="10.00" fill="#ffffff">91.68%</text>
<text text-anchor="middle" x="383" y="-1152" font-family="Arial" font-size="10.00" fill="#ffffff">(0.00%)</text>
<text text-anchor="middle" x="383" y="-1141" font-family="Arial" font-size="10.00" fill="#ffffff">1×</text>
</a>
</g>
</g>
<!-- 2059&#45;&gt;4720 -->
<g id="edge14" class="edge">
<title>2059&#45;&gt;4720</title>
<path fill="none" stroke="#f25202" stroke-width="3.67" d="M276.2989,-1225.8826C293.8323,-1215.0566 314.3122,-1202.4112 332.6154,-1191.1099"/>
<polygon fill="#f25202" stroke="#f25202" stroke-width="3.67" points="334.4503,-1193.9259 340.8534,-1186.0234 330.9198,-1188.2081 334.4503,-1193.9259"/>
<text text-anchor="middle" x="344" y="-1209" font-family="Arial" font-size="10.00" fill="#f25202">91.68%</text>
<text text-anchor="middle" x="344" y="-1198" font-family="Arial" font-size="10.00" fill="#f25202">1×</text>
</g>
<!-- 3720&#45;&gt;2059 -->
<g id="edge17" class="edge">
<title>3720&#45;&gt;2059</title>
<path fill="none" stroke="#ff0000" stroke-width="4" d="M240.669,-1186.2642C241.2143,-1189.1956 241.6785,-1192.1509 242,-1195 242.8565,-1202.5907 243.0438,-1205.8184 241.9274,-1215.6659"/>
<polygon fill="#ff0000" stroke="#ff0000" stroke-width="4" points="238.4361,-1215.3789 240.669,-1225.7358 245.3821,-1216.247 238.4361,-1215.3789"/>
<text text-anchor="middle" x="262.5" y="-1209" font-family="Arial" font-size="10.00" fill="#ff0000">100.00%</text>
<text text-anchor="middle" x="262.5" y="-1198" font-family="Arial" font-size="10.00" fill="#ff0000">1×</text>
</g>
<!-- 4720&#45;&gt;4351 -->
<g id="edge27" class="edge">
<title>4720&#45;&gt;4351</title>
<path fill="none" stroke="#0d2d7c" stroke-width=".5" d="M349.0921,-1133.8947C309.691,-1101.1219 247.014,-1040.7894 223,-972 215.3828,-950.1802 216.0743,-942.049 223,-920 227.1318,-906.8458 234.9173,-894.0223 242.9242,-883.2304"/>
<polygon fill="#0d2d7c" stroke="#0d2d7c" stroke-width=".5" points="244.0505,-883.7721 245.1856,-880.2419 242.0968,-882.2937 244.0505,-883.7721"/>
<text text-anchor="middle" x="268" y="-1010" font-family="Arial" font-size="10.00" fill="#0d2d7c">7.20%</text>
<text text-anchor="middle" x="268" y="-999" font-family="Arial" font-size="10.00" fill="#0d2d7c">1×</text>
</g>
<!-- 4718 -->
<g id="node32" class="node">
<title>4718</title>
<g id="a_node32"><a xlink:title="/home/marcc/resistance&#45;MS/msresist/figures/figure2.py">
<polygon fill="#bcd506" stroke="#bcd506" points="441,-1094 325,-1094 325,-1042 441,-1042 441,-1094"/>
<text text-anchor="middle" x="383" y="-1082" font-family="Arial" font-size="10.00" fill="#ffffff">figure2:88:plotR2YQ2Y</text>
<text text-anchor="middle" x="383" y="-1071" font-family="Arial" font-size="10.00" fill="#ffffff">71.95%</text>
<text text-anchor="middle" x="383" y="-1060" font-family="Arial" font-size="10.00" fill="#ffffff">(0.00%)</text>
<text text-anchor="middle" x="383" y="-1049" font-family="Arial" font-size="10.00" fill="#ffffff">1×</text>
</a>
</g>
</g>
<!-- 4720&#45;&gt;4718 -->
<g id="edge28" class="edge">
<title>4720&#45;&gt;4718</title>
<path fill="none" stroke="#bcd506" stroke-width="2.88" d="M383,-1133.8826C383,-1124.2681 383,-1113.2186 383,-1102.95"/>
<polygon fill="#bcd506" stroke="#bcd506" stroke-width="2.88" points="385.9751,-1102.6827 383,-1094.1827 380.0251,-1102.6828 385.9751,-1102.6827"/>
<text text-anchor="middle" x="400" y="-1117" font-family="Arial" font-size="10.00" fill="#bcd506">71.95%</text>
<text text-anchor="middle" x="400" y="-1106" font-family="Arial" font-size="10.00" fill="#bcd506">1×</text>
</g>
<!-- 5226 -->
<g id="node33" class="node">
<title>5226</title>
<g id="a_node33"><a xlink:title="/home/marcc/resistance&#45;MS/msresist/figures/figure2.py">
<polygon fill="#0d3d80" stroke="#0d3d80" points="643.5,-1033 464.5,-1033 464.5,-981 643.5,-981 643.5,-1033"/>
<text text-anchor="middle" x="554" y="-1021" font-family="Arial" font-size="10.00" fill="#ffffff">figure2:119:plotMeasuredVsPredicted</text>
<text text-anchor="middle" x="554" y="-1010" font-family="Arial" font-size="10.00" fill="#ffffff">10.46%</text>
<text text-anchor="middle" x="554" y="-999" font-family="Arial" font-size="10.00" fill="#ffffff">(0.00%)</text>
<text text-anchor="middle" x="554" y="-988" font-family="Arial" font-size="10.00" fill="#ffffff">1×</text>
</a>
</g>
</g>
<!-- 4720&#45;&gt;5226 -->
<g id="edge29" class="edge">
<title>4720&#45;&gt;5226</title>
<path fill="none" stroke="#0d3d80" stroke-width=".5" d="M412.3959,-1133.6984C442.9535,-1106.3574 490.6291,-1063.7003 522.088,-1035.5528"/>
<polygon fill="#0d3d80" stroke="#0d3d80" stroke-width=".5" points="522.9105,-1036.4607 524.702,-1033.214 521.2768,-1034.6349 522.9105,-1036.4607"/>
<text text-anchor="middle" x="460" y="-1117" font-family="Arial" font-size="10.00" fill="#0d3d80">10.46%</text>
<text text-anchor="middle" x="460" y="-1106" font-family="Arial" font-size="10.00" fill="#0d3d80">1×</text>
</g>
<!-- 9810 -->
<g id="node31" class="node">
<title>9810</title>
<g id="a_node31"><a xlink:title="/home/marcc/resistance&#45;MS/venv/lib/python3.7/site&#45;packages/matplotlib/artist.py">
<polygon fill="#0d2379" stroke="#0d2379" points="149,-788 35,-788 35,-736 149,-736 149,-788"/>
<text text-anchor="middle" x="92" y="-776" font-family="Arial" font-size="10.00" fill="#ffffff">artist:30:draw_wrapper</text>
<text text-anchor="middle" x="92" y="-765" font-family="Arial" font-size="10.00" fill="#ffffff">5.19%</text>
<text text-anchor="middle" x="92" y="-754" font-family="Arial" font-size="10.00" fill="#ffffff">(0.00%)</text>
<text text-anchor="middle" x="92" y="-743" font-family="Arial" font-size="10.00" fill="#ffffff">1156×</text>
</a>
</g>
</g>
<!-- 4604&#45;&gt;9810 -->
<g id="edge24" class="edge">
<title>4604&#45;&gt;9810</title>
<path fill="none" stroke="#0d2379" stroke-width=".5" d="M92,-827.8826C92,-816.6171 92,-803.3815 92,-791.7404"/>
<polygon fill="#0d2379" stroke="#0d2379" stroke-width=".5" points="93.2251,-791.6827 92,-788.1827 90.7751,-791.6828 93.2251,-791.6827"/>
<text text-anchor="middle" x="106" y="-811" font-family="Arial" font-size="10.00" fill="#0d2379">5.19%</text>
<text text-anchor="middle" x="106" y="-800" font-family="Arial" font-size="10.00" fill="#0d2379">2×</text>
</g>
<!-- 2232 -->
<g id="node24" class="node">
<title>2232</title>
<g id="a_node24"><a xlink:title="/usr/lib/python3.7/threading.py">
<polygon fill="#0ba262" stroke="#0ba262" points="549.5,-420 454.5,-420 454.5,-368 549.5,-368 549.5,-420"/>
<text text-anchor="middle" x="502" y="-408" font-family="Arial" font-size="10.00" fill="#ffffff">threading:264:wait</text>
<text text-anchor="middle" x="502" y="-397" font-family="Arial" font-size="10.00" fill="#ffffff">35.52%</text>
<text text-anchor="middle" x="502" y="-386" font-family="Arial" font-size="10.00" fill="#ffffff">(0.00%)</text>
<text text-anchor="middle" x="502" y="-375" font-family="Arial" font-size="10.00" fill="#ffffff">13×</text>
</a>
</g>
</g>
<!-- 2254 -->
<g id="node25" class="node">
<title>2254</title>
<g id="a_node25"><a xlink:title="~">
<polygon fill="#0ba262" stroke="#0ba262" points="612.5,-328 391.5,-328 391.5,-276 612.5,-276 612.5,-328"/>
<text text-anchor="middle" x="502" y="-316" font-family="Arial" font-size="10.00" fill="#ffffff">~:0:&lt;method &#39;acquire&#39; of &#39;_thread.lock&#39; objects&gt;</text>
<text text-anchor="middle" x="502" y="-305" font-family="Arial" font-size="10.00" fill="#ffffff">35.52%</text>
<text text-anchor="middle" x="502" y="-294" font-family="Arial" font-size="10.00" fill="#ffffff">(35.52%)</text>
<text text-anchor="middle" x="502" y="-283" font-family="Arial" font-size="10.00" fill="#ffffff">150×</text>
</a>
</g>
</g>
<!-- 2232&#45;&gt;2254 -->
<g id="edge16" class="edge">
<title>2232&#45;&gt;2254</title>
<path fill="none" stroke="#0ba262" stroke-width="1.42" d="M502,-367.8826C502,-357.4911 502,-345.4234 502,-334.4771"/>
<polygon fill="#0ba262" stroke="#0ba262" stroke-width="1.42" points="504.1001,-334.1827 502,-328.1827 499.9001,-334.1828 504.1001,-334.1827"/>
<text text-anchor="middle" x="519" y="-351" font-family="Arial" font-size="10.00" fill="#0ba262">35.52%</text>
<text text-anchor="middle" x="519" y="-340" font-family="Arial" font-size="10.00" fill="#0ba262">26×</text>
</g>
<!-- 4961 -->
<g id="node27" class="node">
<title>4961</title>
<g id="a_node27"><a xlink:title="/home/marcc/resistance&#45;MS/msresist/clustering.py">
<polygon fill="#1fba09" stroke="#1fba09" points="310.5,-512 227.5,-512 227.5,-460 310.5,-460 310.5,-512"/>
<text text-anchor="middle" x="269" y="-500" font-family="Arial" font-size="10.00" fill="#ffffff">clustering:81:fit</text>
<text text-anchor="middle" x="269" y="-489" font-family="Arial" font-size="10.00" fill="#ffffff">53.08%</text>
<text text-anchor="middle" x="269" y="-478" font-family="Arial" font-size="10.00" fill="#ffffff">(0.09%)</text>
<text text-anchor="middle" x="269" y="-467" font-family="Arial" font-size="10.00" fill="#ffffff">4×</text>
</a>
</g>
</g>
<!-- 3862&#45;&gt;4961 -->
<g id="edge18" class="edge">
<title>3862&#45;&gt;4961</title>
<path fill="none" stroke="#1fba09" stroke-width="2.12" d="M269,-551.8826C269,-541.8796 269,-530.3233 269,-519.7092"/>
<polygon fill="#1fba09" stroke="#1fba09" stroke-width="2.12" points="271.5551,-519.4827 269,-512.1827 266.4451,-519.4828 271.5551,-519.4827"/>
<text text-anchor="middle" x="286" y="-535" font-family="Arial" font-size="10.00" fill="#1fba09">53.08%</text>
<text text-anchor="middle" x="286" y="-524" font-family="Arial" font-size="10.00" fill="#1fba09">4×</text>
</g>
<!-- 4961&#45;&gt;1788 -->
<g id="edge30" class="edge">
<title>4961&#45;&gt;1788</title>
<path fill="none" stroke="#1eba09" stroke-width="2.12" d="M269,-459.8826C269,-449.8796 269,-438.3233 269,-427.7092"/>
<polygon fill="#1eba09" stroke="#1eba09" stroke-width="2.12" points="271.5551,-427.4827 269,-420.1827 266.4451,-427.4828 271.5551,-427.4827"/>
<text text-anchor="middle" x="286" y="-443" font-family="Arial" font-size="10.00" fill="#1eba09">52.98%</text>
<text text-anchor="middle" x="286" y="-432" font-family="Arial" font-size="10.00" fill="#1eba09">4×</text>
</g>
<!-- 7254 -->
<g id="node29" class="node">
<title>7254</title>
<g id="a_node29"><a xlink:title="/home/marcc/resistance&#45;MS/venv/lib/python3.7/site&#45;packages/pandas/core/frame.py">
<polygon fill="#0d4883" stroke="#0d4883" points="163,-52 47,-52 47,0 163,0 163,-52"/>
<text text-anchor="middle" x="105" y="-40" font-family="Arial" font-size="10.00" fill="#ffffff">frame:2885:_get_value</text>
<text text-anchor="middle" x="105" y="-29" font-family="Arial" font-size="10.00" fill="#ffffff">12.46%</text>
<text text-anchor="middle" x="105" y="-18" font-family="Arial" font-size="10.00" fill="#ffffff">(3.74%)</text>
<text text-anchor="middle" x="105" y="-7" font-family="Arial" font-size="10.00" fill="#ffffff">1143191×</text>
</a>
</g>
</g>
<!-- 4039&#45;&gt;7254 -->
<g id="edge20" class="edge">
<title>4039&#45;&gt;7254</title>
<path fill="none" stroke="#0d3a80" stroke-width=".5" d="M153.6958,-91.8826C145.2256,-80.4228 135.2485,-66.9245 126.538,-55.1397"/>
<polygon fill="#0d3a80" stroke="#0d3a80" stroke-width=".5" points="127.418,-54.2692 124.3525,-52.1827 125.4477,-55.7255 127.418,-54.2692"/>
<text text-anchor="middle" x="169.5" y="-75" font-family="Arial" font-size="10.00" fill="#0d3a80">9.95%</text>
<text text-anchor="middle" x="169.5" y="-64" font-family="Arial" font-size="10.00" fill="#0d3a80">1038800×</text>
</g>
<!-- 7445 -->
<g id="node30" class="node">
<title>7445</title>
<g id="a_node30"><a xlink:title="/home/marcc/resistance&#45;MS/venv/lib/python3.7/site&#45;packages/pandas/core/indexing.py">
<polygon fill="#0d307d" stroke="#0d307d" points="310,-52 172,-52 172,0 310,0 310,-52"/>
<text text-anchor="middle" x="241" y="-40" font-family="Arial" font-size="10.00" fill="#ffffff">indexing:2199:_convert_key</text>
<text text-anchor="middle" x="241" y="-29" font-family="Arial" font-size="10.00" fill="#ffffff">7.77%</text>
<text text-anchor="middle" x="241" y="-18" font-family="Arial" font-size="10.00" fill="#ffffff">(4.35%)</text>
<text text-anchor="middle" x="241" y="-7" font-family="Arial" font-size="10.00" fill="#ffffff">1038800×</text>
</a>
</g>
</g>
<!-- 4039&#45;&gt;7445 -->
<g id="edge21" class="edge">
<title>4039&#45;&gt;7445</title>
<path fill="none" stroke="#0d307d" stroke-width=".5" d="M192.3042,-91.8826C200.7744,-80.4228 210.7515,-66.9245 219.462,-55.1397"/>
<polygon fill="#0d307d" stroke="#0d307d" stroke-width=".5" points="220.5523,-55.7255 221.6475,-52.1827 218.582,-54.2692 220.5523,-55.7255"/>
<text text-anchor="middle" x="237.5" y="-75" font-family="Arial" font-size="10.00" fill="#0d307d">7.77%</text>
<text text-anchor="middle" x="237.5" y="-64" font-family="Arial" font-size="10.00" fill="#0d307d">1038800×</text>
</g>
<!-- 9810&#45;&gt;2022 -->
<g id="edge35" class="edge">
<title>9810&#45;&gt;2022</title>
<path fill="none" stroke="#0d2379" stroke-width=".5" d="M92,-735.8826C92,-724.6171 92,-711.3815 92,-699.7404"/>
<polygon fill="#0d2379" stroke="#0d2379" stroke-width=".5" points="93.2251,-699.6827 92,-696.1827 90.7751,-699.6828 93.2251,-699.6827"/>
<text text-anchor="middle" x="106" y="-719" font-family="Arial" font-size="10.00" fill="#0d2379">5.19%</text>
<text text-anchor="middle" x="106" y="-708" font-family="Arial" font-size="10.00" fill="#0d2379">2×</text>
</g>
<!-- 4718&#45;&gt;1874 -->
<g id="edge25" class="edge">
<title>4718&#45;&gt;1874</title>
<path fill="none" stroke="#0ab024" stroke-width="1.84" d="M366.3829,-1041.6514C364.5606,-1038.7359 362.7373,-1035.8074 361,-1033 349.8098,-1014.9175 337.4399,-994.6295 327.4668,-978.1965"/>
<polygon fill="#0ab024" stroke="#0ab024" stroke-width="1.84" points="329.4688,-976.9079 323.9075,-972.3278 325.3988,-979.3763 329.4688,-976.9079"/>
<text text-anchor="middle" x="378" y="-1010" font-family="Arial" font-size="10.00" fill="#0ab024">46.10%</text>
<text text-anchor="middle" x="378" y="-999" font-family="Arial" font-size="10.00" fill="#0ab024">1×</text>
</g>
<!-- 4718&#45;&gt;1875 -->
<g id="edge26" class="edge">
<title>4718&#45;&gt;1875</title>
<path fill="none" stroke="#0c9590" stroke-width="1.03" d="M391.7668,-1041.9288C398.9028,-1023.4566 410.3587,-998.8803 426,-981 427.6166,-979.152 429.3522,-977.3579 431.1732,-975.6225"/>
<polygon fill="#0c9590" stroke="#0c9590" stroke-width="1.03" points="432.4342,-976.8887 435.0203,-972.1444 430.04,-974.2405 432.4342,-976.8887"/>
<text text-anchor="middle" x="443" y="-1010" font-family="Arial" font-size="10.00" fill="#0c9590">25.83%</text>
<text text-anchor="middle" x="443" y="-999" font-family="Arial" font-size="10.00" fill="#0c9590">1×</text>
</g>
<!-- 5226&#45;&gt;3970 -->
<g id="edge32" class="edge">
<title>5226&#45;&gt;3970</title>
<path fill="none" stroke="#0d3d80" stroke-width=".5" d="M562.9407,-980.6383C567.4708,-962.9265 570.5814,-939.3725 563,-920 557.5484,-906.0696 547.6243,-893.3163 537.3425,-882.8122"/>
<polygon fill="#0d3d80" stroke="#0d3d80" stroke-width=".5" points="538.0637,-881.8009 534.7232,-880.1909 536.3306,-883.5326 538.0637,-881.8009"/>
<text text-anchor="middle" x="584" y="-949" font-family="Arial" font-size="10.00" fill="#0d3d80">10.43%</text>
<text text-anchor="middle" x="584" y="-938" font-family="Arial" font-size="10.00" fill="#0d3d80">1×</text>
</g>
<!-- 4771 -->
<g id="node34" class="node">
<title>4771</title>
<g id="a_node34"><a xlink:title="/usr/local/lib/python3.7/dist&#45;packages/Bio/motifs/__init__.py">
<polygon fill="#0d2479" stroke="#0d2479" points="531,-1278 437,-1278 437,-1226 531,-1226 531,-1278"/>
<text text-anchor="middle" x="484" y="-1266" font-family="Arial" font-size="10.00" fill="#ffffff">__init__:21:create</text>
<text text-anchor="middle" x="484" y="-1255" font-family="Arial" font-size="10.00" fill="#ffffff">5.26%</text>
<text text-anchor="middle" x="484" y="-1244" font-family="Arial" font-size="10.00" fill="#ffffff">(0.00%)</text>
<text text-anchor="middle" x="484" y="-1233" font-family="Arial" font-size="10.00" fill="#ffffff">269×</text>
</a>
</g>
</g>
<!-- 6107&#45;&gt;2232 -->
<g id="edge34" class="edge">
<title>6107&#45;&gt;2232</title>
<path fill="none" stroke="#0ba262" stroke-width="1.42" d="M502,-459.8826C502,-449.4911 502,-437.4234 502,-426.4771"/>
<polygon fill="#0ba262" stroke="#0ba262" stroke-width="1.42" points="504.1001,-426.1827 502,-420.1827 499.9001,-426.1828 504.1001,-426.1827"/>
<text text-anchor="middle" x="519" y="-443" font-family="Arial" font-size="10.00" fill="#0ba262">35.50%</text>
<text text-anchor="middle" x="519" y="-432" font-family="Arial" font-size="10.00" fill="#0ba262">12×</text>
</g>
</g>
</svg>
