<?xml version="1.0" encoding="UTF-8" standalone="no"?>
<!DOCTYPE svg PUBLIC "-//W3C//DTD SVG 1.1//EN"
 "http://www.w3.org/Graphics/SVG/1.1/DTD/svg11.dtd">
<!-- Generated by graphviz version 2.40.1 (20161225.0304)
 -->
<!-- Title: %3 Pages: 1 -->
<svg width="483pt" height="796pt"
 viewBox="0.00 0.00 482.50 796.00" xmlns="http://www.w3.org/2000/svg" xmlns:xlink="http://www.w3.org/1999/xlink">
<g id="graph0" class="graph" transform="scale(1 1) rotate(0) translate(4 792)">
<title>%3</title>
<polygon fill="#ffffff" stroke="transparent" points="-4,4 -4,-792 478.5,-792 478.5,4 -4,4"/>
<!-- 1905 -->
<g id="node1" class="node">
<title>1905</title>
<g id="a_node1"><a xlink:title="/home/marcc/resistance&#45;MS/msresist/sequence_analysis.py">
<polygon fill="#f83101" stroke="#f83101" points="368.5,-512 165.5,-512 165.5,-460 368.5,-460 368.5,-512"/>
<text text-anchor="middle" x="267" y="-500" font-family="Arial" font-size="10.00" fill="#ffffff">sequence_analysis:336:EM_clustering_opt</text>
<text text-anchor="middle" x="267" y="-489" font-family="Arial" font-size="10.00" fill="#ffffff">95.20%</text>
<text text-anchor="middle" x="267" y="-478" font-family="Arial" font-size="10.00" fill="#ffffff">(0.00%)</text>
<text text-anchor="middle" x="267" y="-467" font-family="Arial" font-size="10.00" fill="#ffffff">1×</text>
</a>
</g>
</g>
<!-- 1906 -->
<g id="node2" class="node">
<title>1906</title>
<g id="a_node2"><a xlink:title="/home/marcc/resistance&#45;MS/msresist/sequence_analysis.py">
<polygon fill="#f83101" stroke="#f83101" points="359,-420 175,-420 175,-368 359,-368 359,-420"/>
<text text-anchor="middle" x="267" y="-408" font-family="Arial" font-size="10.00" fill="#ffffff">sequence_analysis:390:EM_clustering</text>
<text text-anchor="middle" x="267" y="-397" font-family="Arial" font-size="10.00" fill="#ffffff">95.20%</text>
<text text-anchor="middle" x="267" y="-386" font-family="Arial" font-size="10.00" fill="#ffffff">(0.20%)</text>
<text text-anchor="middle" x="267" y="-375" font-family="Arial" font-size="10.00" fill="#ffffff">1×</text>
</a>
</g>
</g>
<!-- 1905&#45;&gt;1906 -->
<g id="edge1" class="edge">
<title>1905&#45;&gt;1906</title>
<path fill="none" stroke="#f83101" stroke-width="3.81" d="M267,-459.8826C267,-450.6565 267,-440.1091 267,-430.1983"/>
<polygon fill="#f83101" stroke="#f83101" stroke-width="3.81" points="270.4301,-429.9827 267,-420.1827 263.5701,-429.9828 270.4301,-429.9827"/>
<text text-anchor="middle" x="284" y="-443" font-family="Arial" font-size="10.00" fill="#f83101">95.20%</text>
<text text-anchor="middle" x="284" y="-432" font-family="Arial" font-size="10.00" fill="#f83101">1×</text>
</g>
<!-- 1948 -->
<g id="node3" class="node">
<title>1948</title>
<g id="a_node3"><a xlink:title="/home/marcc/resistance&#45;MS/msresist/sequence_analysis.py">
<polygon fill="#0d4582" stroke="#0d4582" points="292,-328 0,-328 0,-276 292,-276 292,-328"/>
<text text-anchor="middle" x="146" y="-316" font-family="Arial" font-size="10.00" fill="#ffffff">sequence_analysis:354:GenerateSeq1Seq2ToPAM250Distance</text>
<text text-anchor="middle" x="146" y="-305" font-family="Arial" font-size="10.00" fill="#ffffff">11.94%</text>
<text text-anchor="middle" x="146" y="-294" font-family="Arial" font-size="10.00" fill="#ffffff">(4.90%)</text>
<text text-anchor="middle" x="146" y="-283" font-family="Arial" font-size="10.00" fill="#ffffff">1×</text>
</a>
</g>
</g>
<!-- 1906&#45;&gt;1948 -->
<g id="edge2" class="edge">
<title>1906&#45;&gt;1948</title>
<path fill="none" stroke="#0d4582" stroke-width=".5" d="M232.6499,-367.8826C217.3224,-356.2286 199.222,-342.4663 183.5388,-330.5419"/>
<polygon fill="#0d4582" stroke="#0d4582" stroke-width=".5" points="183.9636,-329.326 180.436,-328.1827 182.4807,-331.2763 183.9636,-329.326"/>
<text text-anchor="middle" x="237" y="-351" font-family="Arial" font-size="10.00" fill="#0d4582">11.94%</text>
<text text-anchor="middle" x="237" y="-340" font-family="Arial" font-size="10.00" fill="#0d4582">1×</text>
</g>
<!-- 2102 -->
<g id="node4" class="node">
<title>2102</title>
<g id="a_node4"><a xlink:title="/home/marcc/resistance&#45;MS/msresist/sequence_analysis.py">
<polygon fill="#dec505" stroke="#dec505" points="474.5,-328 301.5,-328 301.5,-276 474.5,-276 474.5,-328"/>
<text text-anchor="middle" x="388" y="-316" font-family="Arial" font-size="10.00" fill="#ffffff">sequence_analysis:252:assignSeqs</text>
<text text-anchor="middle" x="388" y="-305" font-family="Arial" font-size="10.00" fill="#ffffff">77.81%</text>
<text text-anchor="middle" x="388" y="-294" font-family="Arial" font-size="10.00" fill="#ffffff">(76.37%)</text>
<text text-anchor="middle" x="388" y="-283" font-family="Arial" font-size="10.00" fill="#ffffff">111000×</text>
</a>
</g>
</g>
<!-- 1906&#45;&gt;2102 -->
<g id="edge3" class="edge">
<title>1906&#45;&gt;2102</title>
<path fill="none" stroke="#dec505" stroke-width="3.11" d="M301.3501,-367.8826C315.4003,-357.1998 331.7805,-344.7454 346.493,-333.559"/>
<polygon fill="#dec505" stroke="#dec505" stroke-width="3.11" points="348.4231,-335.9608 353.564,-328.1827 344.6947,-331.0572 348.4231,-335.9608"/>
<text text-anchor="middle" x="359.5" y="-351" font-family="Arial" font-size="10.00" fill="#dec505">77.81%</text>
<text text-anchor="middle" x="359.5" y="-340" font-family="Arial" font-size="10.00" fill="#dec505">111000×</text>
</g>
<!-- 6042 -->
<g id="node5" class="node">
<title>6042</title>
<g id="a_node5"><a xlink:title="/usr/lib/python3.7/concurrent/futures/_base.py">
<polygon fill="#0d297b" stroke="#0d297b" points="190.5,-236 101.5,-236 101.5,-184 190.5,-184 190.5,-236"/>
<text text-anchor="middle" x="146" y="-224" font-family="Arial" font-size="10.00" fill="#ffffff">_base:408:result</text>
<text text-anchor="middle" x="146" y="-213" font-family="Arial" font-size="10.00" fill="#ffffff">6.39%</text>
<text text-anchor="middle" x="146" y="-202" font-family="Arial" font-size="10.00" fill="#ffffff">(0.00%)</text>
<text text-anchor="middle" x="146" y="-191" font-family="Arial" font-size="10.00" fill="#ffffff">3000×</text>
</a>
</g>
</g>
<!-- 1948&#45;&gt;6042 -->
<g id="edge4" class="edge">
<title>1948&#45;&gt;6042</title>
<path fill="none" stroke="#0d297b" stroke-width=".5" d="M146,-275.8826C146,-264.6171 146,-251.3815 146,-239.7404"/>
<polygon fill="#0d297b" stroke="#0d297b" stroke-width=".5" points="147.2251,-239.6827 146,-236.1827 144.7751,-239.6828 147.2251,-239.6827"/>
<text text-anchor="middle" x="160" y="-259" font-family="Arial" font-size="10.00" fill="#0d297b">6.39%</text>
<text text-anchor="middle" x="160" y="-248" font-family="Arial" font-size="10.00" fill="#0d297b">3000×</text>
</g>
<!-- 2142 -->
<g id="node9" class="node">
<title>2142</title>
<g id="a_node9"><a xlink:title="/usr/lib/python3.7/threading.py">
<polygon fill="#0d3c80" stroke="#0d3c80" points="193.5,-144 98.5,-144 98.5,-92 193.5,-92 193.5,-144"/>
<text text-anchor="middle" x="146" y="-132" font-family="Arial" font-size="10.00" fill="#ffffff">threading:264:wait</text>
<text text-anchor="middle" x="146" y="-121" font-family="Arial" font-size="10.00" fill="#ffffff">10.29%</text>
<text text-anchor="middle" x="146" y="-110" font-family="Arial" font-size="10.00" fill="#ffffff">(0.00%)</text>
<text text-anchor="middle" x="146" y="-99" font-family="Arial" font-size="10.00" fill="#ffffff">291×</text>
</a>
</g>
</g>
<!-- 6042&#45;&gt;2142 -->
<g id="edge9" class="edge">
<title>6042&#45;&gt;2142</title>
<path fill="none" stroke="#0d297b" stroke-width=".5" d="M146,-183.8826C146,-172.6171 146,-159.3815 146,-147.7404"/>
<polygon fill="#0d297b" stroke="#0d297b" stroke-width=".5" points="147.2251,-147.6827 146,-144.1827 144.7751,-147.6828 147.2251,-147.6827"/>
<text text-anchor="middle" x="160" y="-167" font-family="Arial" font-size="10.00" fill="#0d297b">6.38%</text>
<text text-anchor="middle" x="160" y="-156" font-family="Arial" font-size="10.00" fill="#0d297b">15×</text>
</g>
<!-- 1996 -->
<g id="node6" class="node">
<title>1996</title>
<g id="a_node6"><a xlink:title="genFigure.py">
<polygon fill="#ff0000" stroke="#ff0000" points="217,-788 103,-788 103,-736 217,-736 217,-788"/>
<text text-anchor="middle" x="160" y="-776" font-family="Arial" font-size="10.00" fill="#ffffff">genFigure:2:&lt;module&gt;</text>
<text text-anchor="middle" x="160" y="-765" font-family="Arial" font-size="10.00" fill="#ffffff">100.00%</text>
<text text-anchor="middle" x="160" y="-754" font-family="Arial" font-size="10.00" fill="#ffffff">(0.00%)</text>
<text text-anchor="middle" x="160" y="-743" font-family="Arial" font-size="10.00" fill="#ffffff">1×</text>
</a>
</g>
</g>
<!-- 3640 -->
<g id="node7" class="node">
<title>3640</title>
<g id="a_node7"><a xlink:title="~">
<polygon fill="#ff0000" stroke="#ff0000" points="201.5,-696 34.5,-696 34.5,-644 201.5,-644 201.5,-696"/>
<text text-anchor="middle" x="118" y="-684" font-family="Arial" font-size="10.00" fill="#ffffff">~:0:&lt;built&#45;in method builtins.exec&gt;</text>
<text text-anchor="middle" x="118" y="-673" font-family="Arial" font-size="10.00" fill="#ffffff">100.00%</text>
<text text-anchor="middle" x="118" y="-662" font-family="Arial" font-size="10.00" fill="#ffffff">(0.01%)</text>
<text text-anchor="middle" x="118" y="-651" font-family="Arial" font-size="10.00" fill="#ffffff">3787×</text>
</a>
</g>
</g>
<!-- 1996&#45;&gt;3640 -->
<g id="edge5" class="edge">
<title>1996&#45;&gt;3640</title>
<path fill="none" stroke="#0d0f73" stroke-width=".5" d="M126.567,-735.8698C124.3991,-733.0831 122.4912,-730.1189 121,-727 117.0354,-718.708 115.5498,-708.9423 115.2673,-699.8593"/>
<polygon fill="#0d0f73" stroke="#0d0f73" stroke-width=".5" points="116.4877,-699.498 115.2162,-696.0147 114.0379,-699.5307 116.4877,-699.498"/>
<text text-anchor="middle" x="135" y="-719" font-family="Arial" font-size="10.00" fill="#0d0f73">0.51%</text>
<text text-anchor="middle" x="135" y="-708" font-family="Arial" font-size="10.00" fill="#0d0f73">1×</text>
</g>
<!-- 6496 -->
<g id="node8" class="node">
<title>6496</title>
<g id="a_node8"><a xlink:title="/home/marcc/resistance&#45;MS/msresist/figures/figure4.py">
<polygon fill="#f82d01" stroke="#f82d01" points="323.5,-696 210.5,-696 210.5,-644 323.5,-644 323.5,-696"/>
<text text-anchor="middle" x="267" y="-684" font-family="Arial" font-size="10.00" fill="#ffffff">figure4:13:makeFigure</text>
<text text-anchor="middle" x="267" y="-673" font-family="Arial" font-size="10.00" fill="#ffffff">95.54%</text>
<text text-anchor="middle" x="267" y="-662" font-family="Arial" font-size="10.00" fill="#ffffff">(0.00%)</text>
<text text-anchor="middle" x="267" y="-651" font-family="Arial" font-size="10.00" fill="#ffffff">1×</text>
</a>
</g>
</g>
<!-- 1996&#45;&gt;6496 -->
<g id="edge6" class="edge">
<title>1996&#45;&gt;6496</title>
<path fill="none" stroke="#f82d01" stroke-width="3.82" d="M190.3757,-735.8826C202.3485,-725.5882 216.2345,-713.6488 228.8705,-702.7843"/>
<polygon fill="#f82d01" stroke="#f82d01" stroke-width="3.82" points="231.3537,-705.1728 236.5484,-696.1827 226.8812,-699.9711 231.3537,-705.1728"/>
<text text-anchor="middle" x="243" y="-719" font-family="Arial" font-size="10.00" fill="#f82d01">95.54%</text>
<text text-anchor="middle" x="243" y="-708" font-family="Arial" font-size="10.00" fill="#f82d01">1×</text>
</g>
<!-- 3640&#45;&gt;1996 -->
<g id="edge8" class="edge">
<title>3640&#45;&gt;1996</title>
<path fill="none" stroke="#ff0000" stroke-width="4" d="M141.8418,-696.2512C143.769,-699.0881 145.5343,-702.0274 147,-705 150.1665,-711.4223 152.5751,-718.6335 154.4029,-725.7112"/>
<polygon fill="#ff0000" stroke="#ff0000" stroke-width="4" points="151.0799,-726.8878 156.6861,-735.8779 157.9098,-725.354 151.0799,-726.8878"/>
<text text-anchor="middle" x="174.5" y="-719" font-family="Arial" font-size="10.00" fill="#ff0000">100.00%</text>
<text text-anchor="middle" x="174.5" y="-708" font-family="Arial" font-size="10.00" fill="#ff0000">1×</text>
</g>
<!-- 10022 -->
<g id="node11" class="node">
<title>10022</title>
<g id="a_node11"><a xlink:title="/home/marcc/resistance&#45;MS/msresist/clustering.py">
<polygon fill="#f83101" stroke="#f83101" points="308.5,-604 225.5,-604 225.5,-552 308.5,-552 308.5,-604"/>
<text text-anchor="middle" x="267" y="-592" font-family="Arial" font-size="10.00" fill="#ffffff">clustering:80:fit</text>
<text text-anchor="middle" x="267" y="-581" font-family="Arial" font-size="10.00" fill="#ffffff">95.20%</text>
<text text-anchor="middle" x="267" y="-570" font-family="Arial" font-size="10.00" fill="#ffffff">(0.00%)</text>
<text text-anchor="middle" x="267" y="-559" font-family="Arial" font-size="10.00" fill="#ffffff">1×</text>
</a>
</g>
</g>
<!-- 6496&#45;&gt;10022 -->
<g id="edge10" class="edge">
<title>6496&#45;&gt;10022</title>
<path fill="none" stroke="#f83101" stroke-width="3.81" d="M267,-643.8826C267,-634.6565 267,-624.1091 267,-614.1983"/>
<polygon fill="#f83101" stroke="#f83101" stroke-width="3.81" points="270.4301,-613.9827 267,-604.1827 263.5701,-613.9828 270.4301,-613.9827"/>
<text text-anchor="middle" x="284" y="-627" font-family="Arial" font-size="10.00" fill="#f83101">95.20%</text>
<text text-anchor="middle" x="284" y="-616" font-family="Arial" font-size="10.00" fill="#f83101">1×</text>
</g>
<!-- 2161 -->
<g id="node10" class="node">
<title>2161</title>
<g id="a_node10"><a xlink:title="~">
<polygon fill="#0d3c80" stroke="#0d3c80" points="256.5,-52 35.5,-52 35.5,0 256.5,0 256.5,-52"/>
<text text-anchor="middle" x="146" y="-40" font-family="Arial" font-size="10.00" fill="#ffffff">~:0:&lt;method &#39;acquire&#39; of &#39;_thread.lock&#39; objects&gt;</text>
<text text-anchor="middle" x="146" y="-29" font-family="Arial" font-size="10.00" fill="#ffffff">10.36%</text>
<text text-anchor="middle" x="146" y="-18" font-family="Arial" font-size="10.00" fill="#ffffff">(10.36%)</text>
<text text-anchor="middle" x="146" y="-7" font-family="Arial" font-size="10.00" fill="#ffffff">1490×</text>
</a>
</g>
</g>
<!-- 2142&#45;&gt;2161 -->
<g id="edge7" class="edge">
<title>2142&#45;&gt;2161</title>
<path fill="none" stroke="#0d3c80" stroke-width=".5" d="M146,-91.8826C146,-80.6171 146,-67.3815 146,-55.7404"/>
<polygon fill="#0d3c80" stroke="#0d3c80" stroke-width=".5" points="147.2251,-55.6827 146,-52.1827 144.7751,-55.6828 147.2251,-55.6827"/>
<text text-anchor="middle" x="163" y="-75" font-family="Arial" font-size="10.00" fill="#0d3c80">10.29%</text>
<text text-anchor="middle" x="163" y="-64" font-family="Arial" font-size="10.00" fill="#0d3c80">582×</text>
</g>
<!-- 10022&#45;&gt;1905 -->
<g id="edge11" class="edge">
<title>10022&#45;&gt;1905</title>
<path fill="none" stroke="#f83101" stroke-width="3.81" d="M267,-551.8826C267,-542.6565 267,-532.1091 267,-522.1983"/>
<polygon fill="#f83101" stroke="#f83101" stroke-width="3.81" points="270.4301,-521.9827 267,-512.1827 263.5701,-521.9828 270.4301,-521.9827"/>
<text text-anchor="middle" x="284" y="-535" font-family="Arial" font-size="10.00" fill="#f83101">95.20%</text>
<text text-anchor="middle" x="284" y="-524" font-family="Arial" font-size="10.00" fill="#f83101">1×</text>
</g>
</g>
</svg>
