<svg xmlns="http://www.w3.org/2000/svg" xmlns:xlink="http://www.w3.org/1999/xlink" viewBox="0 0 346.72 372.77">
  <defs>
    <style>
      .a, .ah, .aj, .d, .j, .k, .l, .m, .x {
        fill: none;
      }

      .b, .o {
        fill: #fff;
      }

      .c {
        clip-path: url(#a);
      }

      .d, .m, .o {
        stroke: #ccc;
      }

      .d, .f, .h, .i, .j, .k, .l, .x {
        stroke-linejoin: round;
      }

      .d {
        stroke-dasharray: 1 1.65;
      }

      .e {
        fill: #262626;
      }

      .f, .y {
        fill: #0173b2;
      }

      .f, .h, .i {
        fill-opacity: 0.2;
        stroke-opacity: 0.2;
      }

      .f, .j {
        stroke: #0173b2;
      }

      .g {
        clip-path: url(#o);
      }

      .h, .z {
        fill: #de8f05;
      }

      .h, .k {
        stroke: #de8f05;
      }

      .aa, .i {
        fill: #029e73;
      }

      .i, .l {
        stroke: #029e73;
      }

      .j, .k, .l, .x {
        stroke-linecap: round;
      }

      .j, .k, .l, .u, .v, .w, .x {
        stroke-width: 1.5px;
      }

      .m {
        stroke-linecap: square;
        stroke-width: 0.6px;
      }

      .n {
        opacity: 0.5;
      }

      .o {
        isolation: isolate;
        opacity: 0.8;
      }

      .p {
        clip-path: url(#t);
      }

      .q, .u {
        fill: #176d9c;
      }

      .q, .r, .s {
        stroke: #fff;
      }

      .r, .v {
        fill: #c38820;
      }

      .s, .w {
        fill: #158b6a;
      }

      .t {
        clip-path: url(#ad);
      }

      .u, .v, .w, .x {
        stroke: #303030;
      }

      .ab {
        font-size: 9px;
        font-family: ArialMT, Arial;
      }

      .ac {
        letter-spacing: -0.04em;
      }

      .ad {
        letter-spacing: -0.02em;
      }

      .ae, .ag, .ak {
        font-size: 7px;
      }

      .ae {
        font-family: Arial-BoldMT, Arial;
        font-weight: 700;
      }

      .af {
        letter-spacing: -0.02em;
      }

      .ag, .ak {
        font-family: Helvetica-Light, Helvetica;
        font-weight: 300;
      }

      .ah {
        stroke: #231f20;
        stroke-width: 0.5px;
      }

      .ai {
        fill: #231f20;
      }

      .aj {
        stroke: #ef3c39;
      }

      .ak {
        fill: #ef3c39;
      }
    </style>
    <clipPath id="a">
      <rect class="a" x="39.82" y="24.32" width="294.36" height="121.58"/>
    </clipPath>
    <clipPath id="o">
      <rect class="a" x="39.07" y="24.07" width="294.36" height="121.58"/>
    </clipPath>
    <clipPath id="t">
      <rect class="a" x="39.82" y="219.32" width="126.21" height="121.58"/>
    </clipPath>
    <clipPath id="ad">
      <rect class="a" x="207.98" y="219.32" width="126.21" height="121.58"/>
    </clipPath>
  </defs>
  <path class="b" d="M39.82,145.9H334.18V24.32H39.82Z"/>
  <g class="c">
    <path class="d" d="M53.2,145.9V24.32"/>
  </g>
  <path class="e" d="M51.38,157.93a5.17,5.17,0,0,1,.2-1.57,2.05,2.05,0,0,1,.6-.92,1.52,1.52,0,0,1,1-.32,1.66,1.66,0,0,1,.78.18,1.49,1.49,0,0,1,.55.51,2.56,2.56,0,0,1,.34.82,5.05,5.05,0,0,1,.13,1.3,5.17,5.17,0,0,1-.2,1.57,2,2,0,0,1-.6.92,1.68,1.68,0,0,1-2.25-.25A3.58,3.58,0,0,1,51.38,157.93Zm.7,0a3.37,3.37,0,0,0,.32,1.81.9.9,0,0,0,1.56,0,5.28,5.28,0,0,0,0-3.62.94.94,0,0,0-.79-.44.86.86,0,0,0-.74.39A3.45,3.45,0,0,0,52.08,157.93Z"/>
  <g class="c">
    <path class="d" d="M96,145.9V24.32"/>
  </g>
  <g>
    <path class="e" d="M93.47,160v.65H89.83a1.26,1.26,0,0,1,.08-.47,2.45,2.45,0,0,1,.44-.73,7.55,7.55,0,0,1,.89-.84,7.65,7.65,0,0,0,1.21-1.16,1.36,1.36,0,0,0,.32-.82.92.92,0,0,0-.29-.68A1.19,1.19,0,0,0,91,156a1.14,1.14,0,0,0-.3.81l-.69-.07a1.74,1.74,0,0,1,.53-1.19,1.87,1.87,0,0,1,1.26-.4,1.71,1.71,0,0,1,1.25.44,1.43,1.43,0,0,1,.47,1.09,1.69,1.69,0,0,1-.14.65,2.62,2.62,0,0,1-.45.67,11,11,0,0,1-1,1c-.41.34-.67.57-.79.69a4,4,0,0,0-.28.37Z"/>
    <path class="e" d="M94.2,157.93a5.17,5.17,0,0,1,.2-1.57,1.9,1.9,0,0,1,.6-.92,1.48,1.48,0,0,1,1-.32,1.59,1.59,0,0,1,.77.18,1.44,1.44,0,0,1,.56.51,2.81,2.81,0,0,1,.34.82,5.62,5.62,0,0,1,.12,1.3,4.87,4.87,0,0,1-.2,1.57,2,2,0,0,1-.59.92,1.7,1.7,0,0,1-2.26-.25A3.65,3.65,0,0,1,94.2,157.93Zm.69,0a3.47,3.47,0,0,0,.32,1.81.94.94,0,0,0,.79.45.93.93,0,0,0,.78-.45,5.28,5.28,0,0,0,0-3.62,1,1,0,0,0-.79-.44.89.89,0,0,0-.75.39A3.54,3.54,0,0,0,94.89,157.93Z"/>
    <path class="e" d="M98.48,157.93a5.17,5.17,0,0,1,.2-1.57,2.05,2.05,0,0,1,.6-.92,1.5,1.5,0,0,1,1-.32,1.66,1.66,0,0,1,.78.18,1.49,1.49,0,0,1,.55.51,2.81,2.81,0,0,1,.34.82,5.54,5.54,0,0,1,.13,1.3,5.17,5.17,0,0,1-.2,1.57,2.05,2.05,0,0,1-.6.92,1.68,1.68,0,0,1-2.25-.25A3.58,3.58,0,0,1,98.48,157.93Zm.7,0a3.5,3.5,0,0,0,.31,1.81,1,1,0,0,0,.79.45.93.93,0,0,0,.78-.45,5.28,5.28,0,0,0,0-3.62.94.94,0,0,0-.79-.44.86.86,0,0,0-.74.39A3.45,3.45,0,0,0,99.18,157.93Z"/>
  </g>
  <g class="c">
    <path class="d" d="M138.84,145.9V24.32"/>
  </g>
  <g>
    <path class="e" d="M134.9,160.65v-1.32h-2.39v-.62l2.52-3.57h.55v3.57h.74v.62h-.74v1.32Zm0-1.94v-2.48l-1.72,2.48Z"/>
    <path class="e" d="M137,157.93a4.87,4.87,0,0,1,.2-1.57,2,2,0,0,1,.59-.92,1.52,1.52,0,0,1,1-.32,1.61,1.61,0,0,1,.78.18,1.41,1.41,0,0,1,.55.51,2.56,2.56,0,0,1,.34.82,5.05,5.05,0,0,1,.13,1.3,5.17,5.17,0,0,1-.2,1.57,1.9,1.9,0,0,1-.6.92,1.48,1.48,0,0,1-1,.32,1.51,1.51,0,0,1-1.25-.57A3.65,3.65,0,0,1,137,157.93Zm.69,0a3.47,3.47,0,0,0,.32,1.81.93.93,0,0,0,.78.45,1,1,0,0,0,.79-.45,5.44,5.44,0,0,0,0-3.62,1,1,0,0,0-.8-.44.87.87,0,0,0-.74.39A3.54,3.54,0,0,0,137.71,157.93Z"/>
    <path class="e" d="M141.3,157.93a4.87,4.87,0,0,1,.2-1.57,1.9,1.9,0,0,1,.6-.92,1.47,1.47,0,0,1,1-.32,1.61,1.61,0,0,1,.78.18,1.35,1.35,0,0,1,.55.51,2.81,2.81,0,0,1,.35.82,5.62,5.62,0,0,1,.12,1.3,5.17,5.17,0,0,1-.2,1.57,2,2,0,0,1-.59.92,1.7,1.7,0,0,1-2.26-.25A3.65,3.65,0,0,1,141.3,157.93Zm.69,0a3.47,3.47,0,0,0,.32,1.81.93.93,0,0,0,.78.45.94.94,0,0,0,.79-.45,5.28,5.28,0,0,0,0-3.62,1,1,0,0,0-.79-.44.89.89,0,0,0-.75.39A3.54,3.54,0,0,0,142,157.93Z"/>
  </g>
  <g class="c">
    <path class="d" d="M181.65,145.9V24.32"/>
  </g>
  <path class="e" d="M179.06,156.49l-.67,0a1.31,1.31,0,0,0-.26-.58,1,1,0,0,0-1.24-.11,1.63,1.63,0,0,0-.51.68,3.8,3.8,0,0,0-.19,1.28,1.5,1.5,0,0,1,.6-.55,1.59,1.59,0,0,1,.74-.18,1.54,1.54,0,0,1,1.15.49,1.79,1.79,0,0,1,.48,1.29,2.13,2.13,0,0,1-.23,1,1.61,1.61,0,0,1-.61.68,1.67,1.67,0,0,1-.89.23,1.73,1.73,0,0,1-1.38-.62,3.17,3.17,0,0,1-.53-2.05,3.69,3.69,0,0,1,.59-2.32,1.69,1.69,0,0,1,1.39-.63,1.47,1.47,0,0,1,1.56,1.37Zm-2.76,2.38a1.66,1.66,0,0,0,.14.66,1.1,1.1,0,0,0,1,.66,1,1,0,0,0,.74-.35,1.38,1.38,0,0,0,.31-.94,1.29,1.29,0,0,0-.31-.9,1,1,0,0,0-.77-.33,1,1,0,0,0-.77.33A1.17,1.17,0,0,0,176.3,158.87Z"/>
  <path class="e" d="M179.83,157.93a5.17,5.17,0,0,1,.2-1.57,2,2,0,0,1,.6-.92,1.5,1.5,0,0,1,1-.32,1.66,1.66,0,0,1,.78.18,1.49,1.49,0,0,1,.55.51,2.81,2.81,0,0,1,.34.82,5.62,5.62,0,0,1,.12,1.3,5.21,5.21,0,0,1-.19,1.57,2.05,2.05,0,0,1-.6.92,1.68,1.68,0,0,1-2.25-.25A3.58,3.58,0,0,1,179.83,157.93Zm.7,0a3.5,3.5,0,0,0,.31,1.81,1,1,0,0,0,.79.45.93.93,0,0,0,.78-.45,5.28,5.28,0,0,0,0-3.62.94.94,0,0,0-.79-.44.86.86,0,0,0-.74.39A3.45,3.45,0,0,0,180.53,157.93Z"/>
  <path class="e" d="M184.11,157.93a5.17,5.17,0,0,1,.2-1.57,2.05,2.05,0,0,1,.6-.92,1.52,1.52,0,0,1,1-.32,1.61,1.61,0,0,1,.78.18,1.41,1.41,0,0,1,.55.51,2.56,2.56,0,0,1,.34.82,5.05,5.05,0,0,1,.13,1.3,5.17,5.17,0,0,1-.2,1.57,1.9,1.9,0,0,1-.6.92,1.68,1.68,0,0,1-2.25-.25A3.64,3.64,0,0,1,184.11,157.93Zm.7,0a3.37,3.37,0,0,0,.32,1.81.9.9,0,0,0,1.56,0,5.28,5.28,0,0,0,0-3.62.94.94,0,0,0-.79-.44.86.86,0,0,0-.74.39A3.54,3.54,0,0,0,184.81,157.93Z"/>
  <g class="c">
    <path class="d" d="M224.47,145.9V24.32"/>
  </g>
  <g>
    <path class="e" d="M219.41,157.66a1.26,1.26,0,0,1-.63-.44,1.19,1.19,0,0,1-.2-.68,1.32,1.32,0,0,1,.43-1,1.57,1.57,0,0,1,1.15-.41,1.6,1.6,0,0,1,1.16.42,1.33,1.33,0,0,1,.44,1,1.06,1.06,0,0,1-.2.66,1.24,1.24,0,0,1-.61.44,1.43,1.43,0,0,1,1,1.42,1.58,1.58,0,0,1-.5,1.18,2,2,0,0,1-2.63,0,1.57,1.57,0,0,1-.5-1.2,1.46,1.46,0,0,1,.27-.9A1.33,1.33,0,0,1,219.41,157.66Zm-.14-1.15a.83.83,0,0,0,.25.64,1,1,0,0,0,1.3,0,.86.86,0,0,0,.25-.61.84.84,0,0,0-.26-.62.88.88,0,0,0-.64-.26.9.9,0,0,0-.64.25A.8.8,0,0,0,219.27,156.51Zm-.22,2.55a1.25,1.25,0,0,0,.14.56,1,1,0,0,0,.41.42,1.17,1.17,0,0,0,.58.15,1.13,1.13,0,0,0,.8-.31,1.16,1.16,0,0,0,0-1.61,1.12,1.12,0,0,0-.81-.32,1.05,1.05,0,0,0-.79.32A1.07,1.07,0,0,0,219.05,159.06Z"/>
    <path class="e" d="M222.65,157.93a4.87,4.87,0,0,1,.2-1.57,2,2,0,0,1,.59-.92,1.52,1.52,0,0,1,1-.32,1.61,1.61,0,0,1,.78.18,1.41,1.41,0,0,1,.55.51,2.81,2.81,0,0,1,.35.82,5.62,5.62,0,0,1,.12,1.3,5.17,5.17,0,0,1-.2,1.57,2,2,0,0,1-.59.92,1.7,1.7,0,0,1-2.26-.25A3.65,3.65,0,0,1,222.65,157.93Zm.69,0a3.47,3.47,0,0,0,.32,1.81.93.93,0,0,0,.78.45.94.94,0,0,0,.79-.45,5.28,5.28,0,0,0,0-3.62,1,1,0,0,0-.79-.44.89.89,0,0,0-.75.39A3.54,3.54,0,0,0,223.34,157.93Z"/>
    <path class="e" d="M226.93,157.93a5.17,5.17,0,0,1,.2-1.57,1.9,1.9,0,0,1,.6-.92,1.48,1.48,0,0,1,1-.32,1.59,1.59,0,0,1,.77.18,1.44,1.44,0,0,1,.56.51,2.81,2.81,0,0,1,.34.82,5.62,5.62,0,0,1,.12,1.3,4.87,4.87,0,0,1-.2,1.57,2,2,0,0,1-.59.92,1.7,1.7,0,0,1-2.26-.25A3.65,3.65,0,0,1,226.93,157.93Zm.69,0a3.47,3.47,0,0,0,.32,1.81.94.94,0,0,0,.79.45.93.93,0,0,0,.78-.45,5.28,5.28,0,0,0,0-3.62,1,1,0,0,0-.79-.44.89.89,0,0,0-.75.39A3.54,3.54,0,0,0,227.62,157.93Z"/>
  </g>
  <g class="c">
    <path class="d" d="M267.28,145.9V24.32"/>
  </g>
  <g>
    <path class="e" d="M261.59,160.65h-.68v-4.31a3.21,3.21,0,0,1-.64.46,3.55,3.55,0,0,1-.71.35v-.65a3.86,3.86,0,0,0,1-.65,2.68,2.68,0,0,0,.6-.73h.44Z"/>
    <path class="e" d="M263.32,157.93a5.17,5.17,0,0,1,.2-1.57,2.05,2.05,0,0,1,.6-.92,1.5,1.5,0,0,1,1-.32,1.66,1.66,0,0,1,.78.18,1.49,1.49,0,0,1,.55.51,2.81,2.81,0,0,1,.34.82,5.54,5.54,0,0,1,.13,1.3,5.17,5.17,0,0,1-.2,1.57,2,2,0,0,1-.6.92,1.68,1.68,0,0,1-2.25-.25A3.58,3.58,0,0,1,263.32,157.93Zm.7,0a3.37,3.37,0,0,0,.32,1.81.9.9,0,0,0,1.56,0,5.28,5.28,0,0,0,0-3.62.94.94,0,0,0-.79-.44.86.86,0,0,0-.74.39A3.45,3.45,0,0,0,264,157.93Z"/>
    <path class="e" d="M267.6,157.93a4.84,4.84,0,0,1,.21-1.57,2,2,0,0,1,.59-.92,1.52,1.52,0,0,1,1-.32,1.61,1.61,0,0,1,.78.18,1.41,1.41,0,0,1,.55.51,2.56,2.56,0,0,1,.34.82,5.05,5.05,0,0,1,.13,1.3,5.17,5.17,0,0,1-.2,1.57,1.9,1.9,0,0,1-.6.92,1.68,1.68,0,0,1-2.25-.25A3.64,3.64,0,0,1,267.6,157.93Zm.7,0a3.47,3.47,0,0,0,.32,1.81.93.93,0,0,0,.78.45,1,1,0,0,0,.79-.45,5.44,5.44,0,0,0,0-3.62,1,1,0,0,0-.8-.44.86.86,0,0,0-.74.39A3.54,3.54,0,0,0,268.3,157.93Z"/>
    <path class="e" d="M271.89,157.93a4.87,4.87,0,0,1,.2-1.57,2,2,0,0,1,.59-.92,1.52,1.52,0,0,1,1-.32,1.61,1.61,0,0,1,.78.18,1.41,1.41,0,0,1,.55.51,2.81,2.81,0,0,1,.35.82,5.62,5.62,0,0,1,.12,1.3,5.17,5.17,0,0,1-.2,1.57,2,2,0,0,1-.59.92,1.53,1.53,0,0,1-1,.32,1.51,1.51,0,0,1-1.25-.57A3.65,3.65,0,0,1,271.89,157.93Zm.69,0a3.47,3.47,0,0,0,.32,1.81.93.93,0,0,0,.78.45.94.94,0,0,0,.79-.45,5.28,5.28,0,0,0,0-3.62,1,1,0,0,0-.79-.44.89.89,0,0,0-.75.39A3.54,3.54,0,0,0,272.58,157.93Z"/>
  </g>
  <g class="c">
    <path class="d" d="M310.1,145.9V24.32"/>
  </g>
  <g>
    <g>
      <g class="c">
        <path class="d" d="M39.82,131.07H334.18"/>
      </g>
      <g>
        <path class="e" d="M15.66,131.11a5.24,5.24,0,0,1,.2-1.58,2,2,0,0,1,.6-.92,1.54,1.54,0,0,1,1-.32,1.59,1.59,0,0,1,.77.18,1.47,1.47,0,0,1,.56.52,2.74,2.74,0,0,1,.34.81,5.72,5.72,0,0,1,.12,1.31,4.81,4.81,0,0,1-.2,1.56,1.91,1.91,0,0,1-.59.92,1.68,1.68,0,0,1-2.26-.24A3.67,3.67,0,0,1,15.66,131.11Zm.69,0a3.45,3.45,0,0,0,.32,1.8.91.91,0,0,0,1.57,0,5.25,5.25,0,0,0,0-3.61.94.94,0,0,0-.79-.45.87.87,0,0,0-.75.4A3.49,3.49,0,0,0,16.35,131.11Z"/>
        <path class="e" d="M20.32,133.83v-.78h.77v.78Z"/>
        <path class="e" d="M22.08,132.38l.71-.06a1.25,1.25,0,0,0,.37.78,1,1,0,0,0,.69.26,1.1,1.1,0,0,0,.83-.36,1.44,1.44,0,0,0,.34-1,1.26,1.26,0,0,0-.33-.92,1.25,1.25,0,0,0-1.44-.18,1.08,1.08,0,0,0-.41.38l-.64-.08.53-2.83h2.75V129h-2.2l-.3,1.48a1.8,1.8,0,0,1,1-.35,1.67,1.67,0,0,1,1.22.5,1.74,1.74,0,0,1,.49,1.29,2,2,0,0,1-.43,1.29,1.74,1.74,0,0,1-1.45.67,1.8,1.8,0,0,1-1.23-.42A1.68,1.68,0,0,1,22.08,132.38Z"/>
        <path class="e" d="M26.36,132.38l.71-.06a1.3,1.3,0,0,0,.37.78,1,1,0,0,0,.69.26A1.08,1.08,0,0,0,29,133a1.39,1.39,0,0,0,.34-1,1.26,1.26,0,0,0-.33-.92,1.13,1.13,0,0,0-.85-.33,1.18,1.18,0,0,0-.59.15,1.15,1.15,0,0,0-.41.38l-.64-.08.54-2.83h2.74V129h-2.2l-.3,1.48a1.8,1.8,0,0,1,1-.35,1.67,1.67,0,0,1,1.22.5A1.75,1.75,0,0,1,30,132a2,2,0,0,1-.44,1.29,1.73,1.73,0,0,1-1.45.67,1.76,1.76,0,0,1-1.22-.42A1.65,1.65,0,0,1,26.36,132.38Z"/>
      </g>
    </g>
    <g>
      <g class="c">
        <path class="d" d="M39.82,112.87H334.18"/>
      </g>
      <g>
        <path class="e" d="M15.66,112.91a5.12,5.12,0,0,1,.2-1.57,1.86,1.86,0,0,1,.6-.92,1.49,1.49,0,0,1,1-.33,1.59,1.59,0,0,1,.77.18,1.47,1.47,0,0,1,.56.52,2.81,2.81,0,0,1,.34.82,5.56,5.56,0,0,1,.12,1.3,4.87,4.87,0,0,1-.2,1.57,2,2,0,0,1-.59.92,1.58,1.58,0,0,1-1,.32,1.53,1.53,0,0,1-1.26-.57A3.65,3.65,0,0,1,15.66,112.91Zm.69,0a3.47,3.47,0,0,0,.32,1.81.91.91,0,0,0,1.57,0,5.28,5.28,0,0,0,0-3.62.93.93,0,0,0-.79-.44.89.89,0,0,0-.75.39A3.54,3.54,0,0,0,16.35,112.91Z"/>
        <path class="e" d="M20.32,115.63v-.77h.77v.77Z"/>
        <path class="e" d="M25.59,111.47l-.67,0a1.26,1.26,0,0,0-.26-.58.9.9,0,0,0-.67-.29.92.92,0,0,0-.57.18,1.65,1.65,0,0,0-.51.68,3.8,3.8,0,0,0-.19,1.28,1.67,1.67,0,0,1,.6-.56,1.62,1.62,0,0,1,.74-.18,1.53,1.53,0,0,1,1.15.5,1.77,1.77,0,0,1,.48,1.29,2.05,2.05,0,0,1-.22,1,1.67,1.67,0,0,1-.62.69,1.76,1.76,0,0,1-.89.23,1.73,1.73,0,0,1-1.38-.62,3.17,3.17,0,0,1-.53-2,3.67,3.67,0,0,1,.59-2.32,1.71,1.71,0,0,1,1.39-.64,1.55,1.55,0,0,1,1.06.37A1.51,1.51,0,0,1,25.59,111.47Zm-2.76,2.37a1.53,1.53,0,0,0,.15.67,1.05,1.05,0,0,0,.41.49,1.07,1.07,0,0,0,.56.17,1,1,0,0,0,.74-.35,1.38,1.38,0,0,0,.31-.94,1.25,1.25,0,0,0-.31-.9,1,1,0,0,0-.76-.33,1,1,0,0,0-.78.33A1.2,1.2,0,0,0,22.83,113.84Z"/>
        <path class="e" d="M26.36,112.91a5.12,5.12,0,0,1,.2-1.57,2,2,0,0,1,.6-.92,1.53,1.53,0,0,1,1-.33,1.63,1.63,0,0,1,.78.18,1.51,1.51,0,0,1,.55.52,2.56,2.56,0,0,1,.34.82,5,5,0,0,1,.13,1.3,5.17,5.17,0,0,1-.2,1.57,2,2,0,0,1-.6.92,1.56,1.56,0,0,1-1,.32,1.51,1.51,0,0,1-1.25-.57A3.58,3.58,0,0,1,26.36,112.91Zm.7,0a3.37,3.37,0,0,0,.32,1.81.9.9,0,0,0,1.56,0,5.28,5.28,0,0,0,0-3.62.92.92,0,0,0-.79-.44.86.86,0,0,0-.74.39A3.45,3.45,0,0,0,27.06,112.91Z"/>
      </g>
    </g>
    <g>
      <g class="c">
        <path class="d" d="M39.82,94.68H334.18"/>
      </g>
      <g>
        <path class="e" d="M15.66,94.71a5.17,5.17,0,0,1,.2-1.57,1.9,1.9,0,0,1,.6-.92,1.54,1.54,0,0,1,1-.32,1.59,1.59,0,0,1,.77.18,1.52,1.52,0,0,1,.56.51,2.93,2.93,0,0,1,.34.82,5.62,5.62,0,0,1,.12,1.3,4.87,4.87,0,0,1-.2,1.57,2,2,0,0,1-.59.92A1.68,1.68,0,0,1,16.2,97,3.68,3.68,0,0,1,15.66,94.71Zm.69,0a3.47,3.47,0,0,0,.32,1.81.91.91,0,0,0,1.57,0,3.47,3.47,0,0,0,.32-1.81,3.43,3.43,0,0,0-.32-1.8.94.94,0,0,0-.79-.45.89.89,0,0,0-.75.39A3.54,3.54,0,0,0,16.35,94.71Z"/>
        <path class="e" d="M20.32,97.43v-.77h.77v.77Z"/>
        <path class="e" d="M25.59,93.27l-.67,0a1.31,1.31,0,0,0-.26-.58.9.9,0,0,0-.67-.29.92.92,0,0,0-.57.18,1.69,1.69,0,0,0-.51.69,3.69,3.69,0,0,0-.19,1.27,1.64,1.64,0,0,1,.6-.55,1.62,1.62,0,0,1,.74-.18,1.49,1.49,0,0,1,1.15.5,1.77,1.77,0,0,1,.48,1.28,2.13,2.13,0,0,1-.22,1,1.7,1.7,0,0,1-.62.68,1.67,1.67,0,0,1-.89.24,1.74,1.74,0,0,1-1.38-.63,3.15,3.15,0,0,1-.53-2.05,3.69,3.69,0,0,1,.59-2.32A1.7,1.7,0,0,1,24,91.9a1.55,1.55,0,0,1,1.06.36A1.53,1.53,0,0,1,25.59,93.27Zm-2.76,2.38a1.59,1.59,0,0,0,.15.67,1.08,1.08,0,0,0,.41.48A1,1,0,0,0,24,97a1,1,0,0,0,.74-.34,1.43,1.43,0,0,0,.31-.95,1.25,1.25,0,0,0-.31-.9,1,1,0,0,0-.76-.32,1,1,0,0,0-.78.32A1.21,1.21,0,0,0,22.83,95.65Z"/>
        <path class="e" d="M26.36,96l.71-.06a1.36,1.36,0,0,0,.37.78,1,1,0,0,0,.69.26A1.06,1.06,0,0,0,29,96.6a1.36,1.36,0,0,0,.34-1,1.24,1.24,0,0,0-.33-.91,1.13,1.13,0,0,0-.85-.33,1.28,1.28,0,0,0-.59.14,1.18,1.18,0,0,0-.41.39l-.64-.08L27,92h2.74v.64h-2.2l-.3,1.48a1.79,1.79,0,0,1,1-.34,1.63,1.63,0,0,1,1.22.5,1.74,1.74,0,0,1,.5,1.28,2,2,0,0,1-.44,1.3,1.94,1.94,0,0,1-2.67.25A1.69,1.69,0,0,1,26.36,96Z"/>
      </g>
    </g>
    <g>
      <g class="c">
        <path class="d" d="M39.82,76.48H334.18"/>
      </g>
      <g>
        <path class="e" d="M15.66,76.52a5.24,5.24,0,0,1,.2-1.58,1.87,1.87,0,0,1,.6-.91,1.49,1.49,0,0,1,1-.33,1.59,1.59,0,0,1,.77.18,1.47,1.47,0,0,1,.56.52,2.7,2.7,0,0,1,.34.82,5.56,5.56,0,0,1,.12,1.3,4.77,4.77,0,0,1-.2,1.56,2,2,0,0,1-.59.93,1.58,1.58,0,0,1-1,.32,1.53,1.53,0,0,1-1.26-.57A3.67,3.67,0,0,1,15.66,76.52Zm.69,0a3.5,3.5,0,0,0,.32,1.81.94.94,0,0,0,.79.44.93.93,0,0,0,.78-.45,5.25,5.25,0,0,0,0-3.61.94.94,0,0,0-.79-.45.87.87,0,0,0-.75.4A3.49,3.49,0,0,0,16.35,76.52Z"/>
        <path class="e" d="M20.32,79.24v-.77h.77v.77Z"/>
        <path class="e" d="M22.13,74.45V73.8h3.56v.52a7.54,7.54,0,0,0-1,1.49,9.56,9.56,0,0,0-.8,1.91,7.64,7.64,0,0,0-.26,1.52H22.9a6.39,6.39,0,0,1,.25-1.57,8.23,8.23,0,0,1,.7-1.78,8,8,0,0,1,1-1.44Z"/>
        <path class="e" d="M26.36,76.52a5.24,5.24,0,0,1,.2-1.58,2,2,0,0,1,.6-.91,1.53,1.53,0,0,1,1-.33,1.63,1.63,0,0,1,.78.18,1.51,1.51,0,0,1,.55.52,2.47,2.47,0,0,1,.34.82,5,5,0,0,1,.13,1.3,5.05,5.05,0,0,1-.2,1.56,2,2,0,0,1-.6.93,1.56,1.56,0,0,1-1,.32,1.51,1.51,0,0,1-1.25-.57A3.6,3.6,0,0,1,26.36,76.52Zm.7,0a3.4,3.4,0,0,0,.32,1.81.94.94,0,0,0,.78.44.93.93,0,0,0,.78-.45,5.25,5.25,0,0,0,0-3.61.93.93,0,0,0-.79-.45.84.84,0,0,0-.74.4A3.4,3.4,0,0,0,27.06,76.52Z"/>
      </g>
    </g>
    <g>
      <g class="c">
        <path class="d" d="M39.82,58.28H334.18"/>
      </g>
      <g>
        <path class="e" d="M15.66,58.32a5.17,5.17,0,0,1,.2-1.57,1.86,1.86,0,0,1,.6-.92,1.48,1.48,0,0,1,1-.32,1.59,1.59,0,0,1,.77.18,1.44,1.44,0,0,1,.56.51,2.81,2.81,0,0,1,.34.82,5.62,5.62,0,0,1,.12,1.3,4.87,4.87,0,0,1-.2,1.57,2,2,0,0,1-.59.92,1.7,1.7,0,0,1-2.26-.25A3.65,3.65,0,0,1,15.66,58.32Zm.69,0a3.47,3.47,0,0,0,.32,1.81.91.91,0,0,0,1.57,0,3.5,3.5,0,0,0,.32-1.81,3.47,3.47,0,0,0-.32-1.81,1,1,0,0,0-.79-.44.89.89,0,0,0-.75.39A3.54,3.54,0,0,0,16.35,58.32Z"/>
        <path class="e" d="M20.32,61v-.77h.77V61Z"/>
        <path class="e" d="M22.13,56.25V55.6h3.56v.53a7.44,7.44,0,0,0-1,1.48,9.4,9.4,0,0,0-.8,1.92A7.54,7.54,0,0,0,23.59,61H22.9a6.46,6.46,0,0,1,.25-1.57,8.23,8.23,0,0,1,.7-1.78,8,8,0,0,1,1-1.44Z"/>
        <path class="e" d="M26.36,59.6l.71-.06a1.36,1.36,0,0,0,.37.78,1,1,0,0,0,.69.26,1.06,1.06,0,0,0,.83-.37,1.38,1.38,0,0,0,.34-1,1.24,1.24,0,0,0-.33-.91,1.1,1.1,0,0,0-.85-.34,1.16,1.16,0,0,0-1,.54l-.64-.09L27,55.6h2.74v.65h-2.2l-.3,1.48a1.79,1.79,0,0,1,1-.34,1.63,1.63,0,0,1,1.22.5,1.74,1.74,0,0,1,.5,1.28,2,2,0,0,1-.44,1.3,1.95,1.95,0,0,1-2.67.24A1.65,1.65,0,0,1,26.36,59.6Z"/>
      </g>
    </g>
    <g>
      <g class="c">
        <path class="d" d="M39.82,40.09H334.18"/>
      </g>
      <g>
        <path class="e" d="M15.66,40.13a5.19,5.19,0,0,1,.2-1.58,1.9,1.9,0,0,1,.6-.92,1.54,1.54,0,0,1,1-.32,1.59,1.59,0,0,1,.77.18,1.52,1.52,0,0,1,.56.51,2.93,2.93,0,0,1,.34.82,5.66,5.66,0,0,1,.12,1.31,4.85,4.85,0,0,1-.2,1.56,1.91,1.91,0,0,1-.59.92,1.68,1.68,0,0,1-2.26-.24A3.67,3.67,0,0,1,15.66,40.13Zm.69,0a3.45,3.45,0,0,0,.32,1.8.91.91,0,0,0,1.57,0,3.45,3.45,0,0,0,.32-1.8,3.47,3.47,0,0,0-.32-1.81.94.94,0,0,0-.79-.45.89.89,0,0,0-.75.39A3.56,3.56,0,0,0,16.35,40.13Z"/>
        <path class="e" d="M20.32,42.84v-.77h.77v.77Z"/>
        <path class="e" d="M23.12,39.86a1.24,1.24,0,0,1-.62-.45,1.1,1.1,0,0,1-.21-.68,1.33,1.33,0,0,1,.44-1,1.81,1.81,0,0,1,2.31,0,1.37,1.37,0,0,1,.44,1,1.15,1.15,0,0,1-.2.67,1.36,1.36,0,0,1-.61.44,1.45,1.45,0,0,1,.77.53,1.43,1.43,0,0,1,.26.88,1.56,1.56,0,0,1-.5,1.19,1.81,1.81,0,0,1-1.31.48,1.83,1.83,0,0,1-1.32-.48,1.65,1.65,0,0,1-.5-1.21,1.4,1.4,0,0,1,.28-.9A1.33,1.33,0,0,1,23.12,39.86ZM23,38.71a.86.86,0,0,0,.25.64.91.91,0,0,0,.65.25.88.88,0,0,0,.64-.25.8.8,0,0,0,.25-.6.85.85,0,0,0-.25-.63.89.89,0,0,0-.64-.25.92.92,0,0,0-.65.24A.82.82,0,0,0,23,38.71Zm-.22,2.54a1.11,1.11,0,0,0,.14.56,1,1,0,0,0,.4.42,1.2,1.2,0,0,0,.59.15,1.09,1.09,0,0,0,.8-.31,1.06,1.06,0,0,0,.31-.79,1.1,1.1,0,0,0-1.14-1.13,1.06,1.06,0,0,0-.79.31A1.08,1.08,0,0,0,22.77,41.25Z"/>
        <path class="e" d="M26.36,40.13a5.19,5.19,0,0,1,.2-1.58,2.05,2.05,0,0,1,.6-.92,1.58,1.58,0,0,1,1-.32,1.63,1.63,0,0,1,.78.18,1.57,1.57,0,0,1,.55.51,2.66,2.66,0,0,1,.34.82A5.09,5.09,0,0,1,30,40.13a5.14,5.14,0,0,1-.2,1.56,1.92,1.92,0,0,1-.6.92,1.67,1.67,0,0,1-2.25-.24A3.6,3.6,0,0,1,26.36,40.13Zm.7,0a3.35,3.35,0,0,0,.32,1.8.9.9,0,0,0,1.56,0,3.35,3.35,0,0,0,.32-1.8,3.37,3.37,0,0,0-.32-1.81.93.93,0,0,0-.79-.45.86.86,0,0,0-.74.39A3.46,3.46,0,0,0,27.06,40.13Z"/>
      </g>
    </g>
    <g>
      <path class="e" d="M9.67,94l-6-2.31v-.86l6-2.46v.91L7.85,90v2.51l1.82.66ZM7.2,92.25v-2l-1.67.63c-.5.19-.92.34-1.24.43a8.23,8.23,0,0,1,1.15.32Z"/>
      <path class="e" d="M3.66,83.78V83H7.13a4.06,4.06,0,0,1,1.44.21,1.73,1.73,0,0,1,.87.74,2.64,2.64,0,0,1,.33,1.4,3,3,0,0,1-.29,1.39,1.6,1.6,0,0,1-.84.76,3.89,3.89,0,0,1-1.51.23H3.66v-.79H7.13a3.28,3.28,0,0,0,1.15-.15,1,1,0,0,0,.57-.5,1.65,1.65,0,0,0,.2-.87,1.69,1.69,0,0,0-.39-1.25,2.31,2.31,0,0,0-1.53-.37Z"/>
      <path class="e" d="M7.56,77.37l.2-.8a2.73,2.73,0,0,1,1.5.9,2.52,2.52,0,0,1,.51,1.59,2.87,2.87,0,0,1-.39,1.58,2.48,2.48,0,0,1-1.15.93,4.13,4.13,0,0,1-1.61.32A3.54,3.54,0,0,1,5,81.53a2.43,2.43,0,0,1-1.06-1,3,3,0,0,1-.37-1.46A2.52,2.52,0,0,1,4,77.53a2.39,2.39,0,0,1,1.3-.85l.18.78a1.84,1.84,0,0,0-1,.61,1.61,1.61,0,0,0-.3,1,2,2,0,0,0,.34,1.16,1.78,1.78,0,0,0,.89.65,3.47,3.47,0,0,0,1.15.19A3.88,3.88,0,0,0,8,80.85a1.67,1.67,0,0,0,.86-.7,1.91,1.91,0,0,0,.28-1A1.73,1.73,0,0,0,8.71,78,2,2,0,0,0,7.56,77.37Z"/>
    </g>
  </g>
  <g class="c">
    <path class="f" d="M53.2,92.12v16.3l10.71.76,10.7-22.31,32.11,15.52L160.24,77l53.52,43.19,53.52-29.71,53.52,9.29V69.1h0L267.28,47.74,213.76,63.56l-53.52,2.32L106.72,80.31,74.61,66.51l-10.7,5.64Z"/>
  </g>
  <g class="g">
    <path class="h" d="M52.45,49.44v6.62l10.71-1.22,10.7,11.45,32.11-12,53.52,0L213,61.75l53.52,7.89,53.52-8.92V47.54h0l-53.52,2.72L213,40.94l-53.52-1.42L106,29.59,73.86,46.4l-10.7-9.52Z"/>
  </g>
  <g class="c">
    <path class="i" d="M53.2,109.35v31l10.71-11.45,10.7-6.21,32.11-10.94L160.24,134l53.52-7.73L267.28,134l53.52,4.08v-20.7h0L267.28,113,213.76,98l-53.52-9.84L106.72,104,74.61,82.82l-10.7,9.12Z"/>
  </g>
  <g class="c">
    <path class="j" d="M53.2,101.88,63.91,86.33l10.7-6.92,32.11,8.48L160.24,72l53.52,21.45L267.28,65,320.8,88.25"/>
  </g>
  <g class="c">
    <path class="k" d="M53.2,52.17l10.71-3.93,10.7,6.09,32.11-11.64,53.52,5.25,53.52,4.57,53.52,4.75,53.52-2.19"/>
  </g>
  <g class="c">
    <path class="l" d="M53.2,126.78l10.71-18.34,10.7-.07,32.11.65,53.52.42,53.52-1.93,53.52,16.83,53.52,3"/>
  </g>
  <path class="m" d="M39.82,145.9V24.32"/>
  <path class="m" d="M334.18,145.9V24.32"/>
  <path class="m" d="M39.82,145.9H334.18"/>
  <path class="m" d="M39.82,24.32H334.18"/>
  <path class="e" d="M21.21,10.23h-2l-.79-2.05h-3.6l-.74,2.05H12.18l3.51-9h1.92ZM17.87,6.66,16.63,3.32,15.41,6.66Z"/>
  <g>
    <g class="n">
      <path class="o" d="M269.77,56.1h62.31a1.19,1.19,0,0,0,1.34-1.35V26.86a1.19,1.19,0,0,0-1.34-1.35H269.77a1.19,1.19,0,0,0-1.35,1.35V54.75A1.19,1.19,0,0,0,269.77,56.1Z"/>
    </g>
    <path class="j" d="M271.11,30.67h13.47"/>
    <g>
      <path class="e" d="M290.26,31.48l.61-.06a1.29,1.29,0,0,0,.19.6,1.12,1.12,0,0,0,.49.37,1.91,1.91,0,0,0,1.38,0,.91.91,0,0,0,.42-.3.7.7,0,0,0,.14-.41.63.63,0,0,0-.14-.4.89.89,0,0,0-.43-.28c-.13-.05-.42-.13-.86-.24a3.86,3.86,0,0,1-.93-.3,1.26,1.26,0,0,1-.51-.45,1.13,1.13,0,0,1-.17-.6,1.26,1.26,0,0,1,.81-1.16,2.3,2.3,0,0,1,.88-.16,2.34,2.34,0,0,1,.95.17,1.33,1.33,0,0,1,.63.51,1.48,1.48,0,0,1,.24.75l-.62.05a1,1,0,0,0-.33-.69,1.28,1.28,0,0,0-.84-.23,1.35,1.35,0,0,0-.84.21.63.63,0,0,0-.27.51.57.57,0,0,0,.19.43,2.59,2.59,0,0,0,1,.34,6.26,6.26,0,0,1,1.07.31,1.43,1.43,0,0,1,.62.49,1.23,1.23,0,0,1,.2.68,1.3,1.3,0,0,1-.22.73,1.5,1.5,0,0,1-.63.53,2.34,2.34,0,0,1-.93.19,2.93,2.93,0,0,1-1.1-.19,1.57,1.57,0,0,1-.69-.58A1.59,1.59,0,0,1,290.26,31.48Z"/>
      <path class="e" d="M296.2,33V28.78h-1.59v-.57h3.82v.57h-1.6V33Z"/>
      <path class="e" d="M299.06,33V28.21h.63V30.6l2.4-2.39H303l-2,1.95L303,33h-.84l-1.72-2.44-.79.77V33Z"/>
      <path class="e" d="M305.56,33H305V29.26a3,3,0,0,1-.56.4,4,4,0,0,1-.62.31V29.4a3.57,3.57,0,0,0,.86-.57,2.11,2.11,0,0,0,.53-.64h.38Z"/>
      <path class="e" d="M308.81,33h-.59V29.26a3.39,3.39,0,0,1-.56.4A4,4,0,0,1,307,30V29.4a3.85,3.85,0,0,0,.87-.57,2.27,2.27,0,0,0,.53-.64h.38Z"/>
    </g>
    <path class="k" d="M271.11,40.19h13.47"/>
    <g>
      <path class="e" d="M290.49,42.55V37.73H294v.57h-2.85v1.47h2.67v.57h-2.67V42h3v.57Z"/>
      <path class="e" d="M297.23,40.66v-.57h2v1.79a3.85,3.85,0,0,1-1,.56,2.84,2.84,0,0,1-1,.19,2.67,2.67,0,0,1-1.29-.31,1.93,1.93,0,0,1-.87-.87,2.79,2.79,0,0,1-.3-1.29,3,3,0,0,1,.29-1.31,2,2,0,0,1,.85-.91,2.73,2.73,0,0,1,1.27-.29,2.4,2.4,0,0,1,.95.17,1.56,1.56,0,0,1,.66.47,2,2,0,0,1,.36.79l-.57.15a1.68,1.68,0,0,0-.27-.57,1.09,1.09,0,0,0-.46-.34,1.59,1.59,0,0,0-.66-.13,1.91,1.91,0,0,0-.76.14,1.26,1.26,0,0,0-.51.35,1.6,1.6,0,0,0-.31.47,2.58,2.58,0,0,0-.18,1,2.34,2.34,0,0,0,.22,1.08,1.39,1.39,0,0,0,.65.64,2,2,0,0,0,.9.21,2,2,0,0,0,.8-.16,1.82,1.82,0,0,0,.6-.34v-.89Z"/>
      <path class="e" d="M300.24,42.55V37.73h3.25v.57h-2.61v1.49h2.26v.57h-2.26v2.19Z"/>
      <path class="e" d="M304.33,42.55V37.73h2.13a2.75,2.75,0,0,1,1,.13,1.05,1.05,0,0,1,.54.46,1.39,1.39,0,0,1,.2.72,1.22,1.22,0,0,1-.33.87,1.76,1.76,0,0,1-1,.45,2.11,2.11,0,0,1,.39.23,4,4,0,0,1,.53.65l.84,1.31h-.81l-.63-1c-.19-.28-.34-.51-.47-.66a1.37,1.37,0,0,0-.32-.32.84.84,0,0,0-.29-.13l-.35,0H305v2.14Zm.64-2.69h1.37a2,2,0,0,0,.68-.09.76.76,0,0,0,.5-.73.74.74,0,0,0-.24-.56,1.17,1.17,0,0,0-.79-.22H305Z"/>
      <path class="e" d="M309.1,42.55V39.06h.53v.49a1.36,1.36,0,0,1,.44-.42,1.26,1.26,0,0,1,.62-.15,1.15,1.15,0,0,1,.64.16.92.92,0,0,1,.35.45,1.23,1.23,0,0,1,1.08-.61,1,1,0,0,1,.79.29,1.19,1.19,0,0,1,.28.88v2.4h-.59v-2.2a1.58,1.58,0,0,0-.05-.51.47.47,0,0,0-.21-.25.61.61,0,0,0-.36-.1.81.81,0,0,0-.61.25,1.07,1.07,0,0,0-.24.78v2h-.59V40.28a1,1,0,0,0-.15-.59.54.54,0,0,0-.47-.2.82.82,0,0,0-.46.13.76.76,0,0,0-.31.39,2.24,2.24,0,0,0-.1.73v1.81Z"/>
      <path class="e" d="M314.27,42.63l1.39-5h.48l-1.4,5Z"/>
      <path class="e" d="M316.13,42.55,318,37.73h.68l2,4.82h-.73l-.56-1.46h-2l-.53,1.46Zm1.39-2h1.63l-.5-1.34c-.15-.4-.27-.73-.34-1a6.46,6.46,0,0,1-.26.93Z"/>
      <path class="e" d="M321.12,42.55V37.73h.64V42h2.37v.57Z"/>
      <path class="e" d="M324.86,42.55V37.73h.64v2.39l2.39-2.39h.87l-2,2,2.11,2.87H328l-1.72-2.44-.79.77v1.67Z"/>
      <path class="e" d="M329.44,42.55v-3h-.52v-.46h.52v-.38a1.66,1.66,0,0,1,.07-.52.68.68,0,0,1,.3-.37,1,1,0,0,1,.6-.14,2.8,2.8,0,0,1,.55.06l-.08.51-.35,0a.54.54,0,0,0-.38.11.6.6,0,0,0-.12.43v.33h.68v.46H330v3Z"/>
    </g>
    <path class="l" d="M271.11,49.71h13.47"/>
    <g>
      <path class="e" d="M290.59,52.07V47.25h.64v4.82Z"/>
      <path class="e" d="M292.28,52.07V48.58h.53v.49a1.24,1.24,0,0,1,1.11-.57,1.58,1.58,0,0,1,.58.11,1,1,0,0,1,.4.3,1.35,1.35,0,0,1,.18.44,3.67,3.67,0,0,1,0,.57v2.15h-.59V49.94a1.5,1.5,0,0,0-.07-.54.59.59,0,0,0-.24-.28.82.82,0,0,0-.42-.11,1,1,0,0,0-.65.24,1.19,1.19,0,0,0-.27.91v1.91Z"/>
      <path class="e" d="M296.16,52.07V49h-.52v-.46h.52v-.37a1.75,1.75,0,0,1,.06-.53.83.83,0,0,1,.3-.37,1.17,1.17,0,0,1,.61-.14,2.88,2.88,0,0,1,.55.06l-.09.51-.35,0a.51.51,0,0,0-.38.12.64.64,0,0,0-.11.43v.32h.68V49h-.68v3Z"/>
      <path class="e" d="M297.89,47.93v-.68h.59v.68Zm0,4.14V48.58h.59v3.49Z"/>
      <path class="e" d="M299.37,52.07V47.25H300v4.82Z"/>
      <path class="e" d="M302.17,51.54l.09.52a1.93,1.93,0,0,1-.45,0,1,1,0,0,1-.5-.1.54.54,0,0,1-.25-.27,2,2,0,0,1-.07-.69V49h-.43v-.46H301v-.87l.59-.35v1.22h.59V49h-.59v2a1,1,0,0,0,0,.32.23.23,0,0,0,.1.12.37.37,0,0,0,.2,0Z"/>
      <path class="e" d="M302.74,52.07V48.58h.54v.53a1.42,1.42,0,0,1,.37-.49.66.66,0,0,1,.38-.12,1.14,1.14,0,0,1,.61.19l-.2.55a.83.83,0,0,0-.44-.13.57.57,0,0,0-.35.12.63.63,0,0,0-.22.32,2.5,2.5,0,0,0-.09.69v1.83Z"/>
      <path class="e" d="M307.27,51.64a2.21,2.21,0,0,1-.63.39,1.78,1.78,0,0,1-.65.12,1.32,1.32,0,0,1-.89-.28.92.92,0,0,1-.31-.72.94.94,0,0,1,.12-.47,1,1,0,0,1,.3-.34,1.28,1.28,0,0,1,.43-.19,3.14,3.14,0,0,1,.53-.09,5.42,5.42,0,0,0,1.05-.21V49.7a.66.66,0,0,0-.16-.51,1,1,0,0,0-.68-.2,1,1,0,0,0-.61.15.84.84,0,0,0-.3.51l-.58-.08a1.65,1.65,0,0,1,.26-.6,1.15,1.15,0,0,1,.53-.35,2.34,2.34,0,0,1,.79-.12,2,2,0,0,1,.72.1.86.86,0,0,1,.41.27.93.93,0,0,1,.19.4,3.28,3.28,0,0,1,0,.55v.79a7.31,7.31,0,0,0,0,1,1.18,1.18,0,0,0,.15.42h-.62A1.35,1.35,0,0,1,307.27,51.64Zm0-1.32a4.73,4.73,0,0,1-1,.22,2.12,2.12,0,0,0-.51.12.57.57,0,0,0-.24.19.54.54,0,0,0-.08.28.52.52,0,0,0,.18.4.82.82,0,0,0,.53.15,1.19,1.19,0,0,0,.6-.15.93.93,0,0,0,.4-.41,1.49,1.49,0,0,0,.09-.59Z"/>
      <path class="e" d="M310,51.54l.08.52a1.8,1.8,0,0,1-.44,0,1,1,0,0,1-.5-.1.54.54,0,0,1-.25-.27,2,2,0,0,1-.08-.69V49h-.43v-.46h.43v-.87l.59-.35v1.22h.6V49h-.6v2a1,1,0,0,0,0,.32.25.25,0,0,0,.11.12.35.35,0,0,0,.2,0Z"/>
      <path class="e" d="M310.61,47.93v-.68h.59v.68Zm0,4.14V48.58h.59v3.49Z"/>
      <path class="e" d="M311.88,50.32a1.79,1.79,0,0,1,.54-1.43,1.63,1.63,0,0,1,1.1-.39,1.56,1.56,0,0,1,1.17.47,1.78,1.78,0,0,1,.46,1.3,2.35,2.35,0,0,1-.2,1.06,1.42,1.42,0,0,1-.59.6,1.65,1.65,0,0,1-.84.22,1.59,1.59,0,0,1-1.19-.47A1.91,1.91,0,0,1,311.88,50.32Zm.61,0a1.54,1.54,0,0,0,.29,1,1,1,0,0,0,.74.33.93.93,0,0,0,.73-.33,1.53,1.53,0,0,0,.29-1,1.42,1.42,0,0,0-.29-1,1,1,0,0,0-1.47,0A1.51,1.51,0,0,0,312.49,50.32Z"/>
      <path class="e" d="M315.84,52.07V48.58h.54v.49a1.24,1.24,0,0,1,1.11-.57,1.58,1.58,0,0,1,.58.11.88.88,0,0,1,.39.3,1.18,1.18,0,0,1,.19.44,3.67,3.67,0,0,1,0,.57v2.15h-.59V49.94a1.5,1.5,0,0,0-.07-.54.65.65,0,0,0-.24-.28.82.82,0,0,0-.42-.11,1,1,0,0,0-.65.24,1.19,1.19,0,0,0-.27.91v1.91Z"/>
    </g>
  </g>
  <path class="b" d="M39.82,340.9H166V219.32H39.82Z"/>
  <g>
    <g>
      <path class="e" d="M38.46,357.44v-5.52h.62v.52a1.62,1.62,0,0,1,.49-.46,1.41,1.41,0,0,1,.67-.15,1.61,1.61,0,0,1,.9.26,1.64,1.64,0,0,1,.59.75,2.77,2.77,0,0,1,.2,1.05,2.6,2.6,0,0,1-.22,1.1,1.63,1.63,0,0,1-.64.75,1.58,1.58,0,0,1-.88.26,1.22,1.22,0,0,1-.61-.14,1.2,1.2,0,0,1-.44-.36v1.94Zm.62-3.5a1.74,1.74,0,0,0,.31,1.14,1,1,0,0,0,.75.37,1,1,0,0,0,.78-.38,1.86,1.86,0,0,0,.32-1.19,1.74,1.74,0,0,0-.32-1.14,1,1,0,0,0-.75-.38,1,1,0,0,0-.76.41A1.79,1.79,0,0,0,39.08,353.94Z"/>
      <path class="e" d="M42.48,354.26v-.68h2.08v.68Z"/>
      <path class="e" d="M44.79,355.91l2.12-5.51h.78L50,355.91h-.83l-.64-1.67H46.17l-.61,1.67Zm1.59-2.26h1.87l-.58-1.53q-.26-.69-.39-1.14a7.79,7.79,0,0,1-.29,1Z"/>
      <path class="e" d="M51.07,355.91h-.63V350.4h.68v2a1.33,1.33,0,0,1,1.09-.54,1.66,1.66,0,0,1,.7.15,1.41,1.41,0,0,1,.54.42,2,2,0,0,1,.33.65,2.64,2.64,0,0,1,.12.81,2.25,2.25,0,0,1-.5,1.58,1.58,1.58,0,0,1-1.22.56,1.26,1.26,0,0,1-1.11-.59Zm0-2a2.09,2.09,0,0,0,.2,1,1,1,0,0,0,1.63.13,2.26,2.26,0,0,0,0-2.3.92.92,0,0,0-.75-.37,1,1,0,0,0-.76.38A1.68,1.68,0,0,0,51.06,353.89Z"/>
      <path class="e" d="M57.34,355.91v-.58a1.45,1.45,0,0,1-1.26.67,1.59,1.59,0,0,1-.66-.13,1,1,0,0,1-.46-.34,1.33,1.33,0,0,1-.21-.5,4.54,4.54,0,0,1,0-.64v-2.47h.68v2.22a3.71,3.71,0,0,0,0,.71.68.68,0,0,0,.27.42.85.85,0,0,0,.51.15,1.1,1.1,0,0,0,.57-.15.88.88,0,0,0,.38-.43,2,2,0,0,0,.11-.78v-2.14H58v4Z"/>
      <path class="e" d="M59,355.91v-4h.61v.57a1.43,1.43,0,0,1,1.27-.66,1.59,1.59,0,0,1,.66.13,1,1,0,0,1,.46.34,1.33,1.33,0,0,1,.21.5,4.54,4.54,0,0,1,0,.66v2.45h-.68v-2.43a1.83,1.83,0,0,0-.08-.61.64.64,0,0,0-.28-.33.89.89,0,0,0-.47-.12,1.11,1.11,0,0,0-.75.27,1.35,1.35,0,0,0-.31,1v2.18Z"/>
      <path class="e" d="M65.88,355.91v-.5a1.22,1.22,0,0,1-1.11.59,1.54,1.54,0,0,1-.88-.26,1.65,1.65,0,0,1-.62-.73,2.53,2.53,0,0,1-.22-1.09,2.67,2.67,0,0,1,.2-1.08,1.55,1.55,0,0,1,.59-.75,1.66,1.66,0,0,1,.9-.26,1.34,1.34,0,0,1,.64.15,1.37,1.37,0,0,1,.46.4v-2h.67v5.51Zm-2.14-2a1.73,1.73,0,0,0,.33,1.15,1,1,0,0,0,.76.38.94.94,0,0,0,.75-.36,1.69,1.69,0,0,0,.31-1.11,1.86,1.86,0,0,0-.31-1.2,1,1,0,0,0-.78-.39.92.92,0,0,0-.75.37A1.75,1.75,0,0,0,63.74,353.92Z"/>
      <path class="e" d="M70.18,355.42a2.64,2.64,0,0,1-.72.45,2.08,2.08,0,0,1-.75.13,1.41,1.41,0,0,1-1-.32,1,1,0,0,1-.35-.82,1.07,1.07,0,0,1,.13-.53,1,1,0,0,1,.35-.39,1.58,1.58,0,0,1,.49-.23l.6-.1a5.76,5.76,0,0,0,1.2-.23,1.53,1.53,0,0,0,0-.18.77.77,0,0,0-.19-.58,1.16,1.16,0,0,0-.77-.23,1.22,1.22,0,0,0-.71.17,1.07,1.07,0,0,0-.34.59l-.66-.09a1.68,1.68,0,0,1,.3-.69,1.41,1.41,0,0,1,.6-.4,2.74,2.74,0,0,1,.9-.14,2.39,2.39,0,0,1,.83.12,1.06,1.06,0,0,1,.47.3,1.14,1.14,0,0,1,.21.46,3.08,3.08,0,0,1,0,.63v.9a9.75,9.75,0,0,0,0,1.2,1.66,1.66,0,0,0,.17.47h-.7A1.41,1.41,0,0,1,70.18,355.42Zm-.06-1.51a4.81,4.81,0,0,1-1.1.26,2.53,2.53,0,0,0-.59.13.54.54,0,0,0-.27.22.61.61,0,0,0,.11.77.9.9,0,0,0,.6.18,1.37,1.37,0,0,0,.7-.17,1,1,0,0,0,.44-.47,1.48,1.48,0,0,0,.11-.67Z"/>
      <path class="e" d="M71.86,355.91v-4h.61v.57a1.42,1.42,0,0,1,1.27-.66,1.59,1.59,0,0,1,.66.13,1.07,1.07,0,0,1,.45.34,1.33,1.33,0,0,1,.21.5,3.43,3.43,0,0,1,0,.66v2.45h-.68v-2.43a1.88,1.88,0,0,0-.07-.61.69.69,0,0,0-.28-.33.92.92,0,0,0-.48-.12,1.11,1.11,0,0,0-.74.27,1.34,1.34,0,0,0-.32,1v2.18Z"/>
      <path class="e" d="M78.75,354.45l.66.09a1.72,1.72,0,0,1-.56,1.08,1.67,1.67,0,0,1-1.1.38,1.7,1.7,0,0,1-1.32-.53,2.19,2.19,0,0,1-.5-1.54,2.65,2.65,0,0,1,.22-1.13,1.5,1.5,0,0,1,.65-.73,1.94,1.94,0,0,1,1-.24,1.67,1.67,0,0,1,1.07.33,1.55,1.55,0,0,1,.53.93l-.66.11a1.09,1.09,0,0,0-.33-.61.91.91,0,0,0-.58-.2,1.05,1.05,0,0,0-.83.36,1.71,1.71,0,0,0-.32,1.16,1.76,1.76,0,0,0,.31,1.17,1,1,0,0,0,.8.37.93.93,0,0,0,.67-.25A1.25,1.25,0,0,0,78.75,354.45Z"/>
      <path class="e" d="M82.72,354.63l.7.08a1.73,1.73,0,0,1-.61,1,1.88,1.88,0,0,1-1.14.33,1.85,1.85,0,0,1-1.39-.53,2.09,2.09,0,0,1-.52-1.52,2.22,2.22,0,0,1,.52-1.56,1.78,1.78,0,0,1,1.35-.56,1.7,1.7,0,0,1,1.31.55,2.14,2.14,0,0,1,.51,1.53s0,.1,0,.18h-3a1.55,1.55,0,0,0,.38,1,1.11,1.11,0,0,0,.83.35,1.06,1.06,0,0,0,.64-.2A1.32,1.32,0,0,0,82.72,354.63Zm-2.22-1.1h2.23a1.36,1.36,0,0,0-.25-.75,1.05,1.05,0,0,0-.84-.39,1.08,1.08,0,0,0-.79.31A1.24,1.24,0,0,0,80.5,353.53Z"/>
    </g>
    <g>
      <path class="e" d="M97.51,355.91V350.4h1.1l1.3,3.9.27.82c.06-.2.16-.49.29-.88l1.32-3.84h1v5.51h-.7V351.3l-1.6,4.61h-.66l-1.6-4.69v4.69Z"/>
      <path class="e" d="M103.86,351.18v-.78h.68v.78Zm0,4.73v-4h.68v4Z"/>
      <path class="e" d="M105.12,355.91l1.46-2.07-1.35-1.92h.85l.61.94.28.44.3-.43.67-.95h.81l-1.38,1.88,1.49,2.11H108l-.82-1.24-.22-.33-1,1.57Z"/>
    </g>
    <g>
      <path class="e" d="M128,354.24l.69-.06a1.52,1.52,0,0,0,.23.68,1.28,1.28,0,0,0,.55.42,2.11,2.11,0,0,0,.85.17,1.92,1.92,0,0,0,.74-.13.94.94,0,0,0,.47-.34.81.81,0,0,0,.16-.47.72.72,0,0,0-.15-.45,1.15,1.15,0,0,0-.5-.33c-.15-.05-.47-.14-1-.27a4.67,4.67,0,0,1-1.06-.34,1.5,1.5,0,0,1-.59-.51,1.29,1.29,0,0,1-.2-.69,1.38,1.38,0,0,1,.24-.78,1.53,1.53,0,0,1,.69-.55,2.9,2.9,0,0,1,2.09,0,1.5,1.5,0,0,1,.72.58,1.65,1.65,0,0,1,.27.87l-.69.05a1.13,1.13,0,0,0-.39-.79,1.45,1.45,0,0,0-1-.26,1.54,1.54,0,0,0-1,.24.72.72,0,0,0-.3.58.64.64,0,0,0,.21.49,2.83,2.83,0,0,0,1.1.39,8.06,8.06,0,0,1,1.22.35,1.66,1.66,0,0,1,.71.57,1.38,1.38,0,0,1,.23.78,1.49,1.49,0,0,1-.25.83,1.7,1.7,0,0,1-.73.61,2.54,2.54,0,0,1-1.06.21,3.08,3.08,0,0,1-1.25-.22,1.77,1.77,0,0,1-.8-.65A1.86,1.86,0,0,1,128,354.24Z"/>
      <path class="e" d="M136,354.72l.7.09a1.7,1.7,0,0,1-.61.95,2.07,2.07,0,0,1-2.53-.2,2.13,2.13,0,0,1-.52-1.51,2.23,2.23,0,0,1,.52-1.57,1.78,1.78,0,0,1,1.35-.56,1.73,1.73,0,0,1,1.31.55,2.14,2.14,0,0,1,.51,1.53s0,.1,0,.18h-3a1.52,1.52,0,0,0,.38,1,1.11,1.11,0,0,0,.83.35,1.05,1.05,0,0,0,.64-.19A1.31,1.31,0,0,0,136,354.72Zm-2.22-1.09H136a1.36,1.36,0,0,0-.25-.76,1.05,1.05,0,0,0-.84-.39,1.12,1.12,0,0,0-.79.31A1.24,1.24,0,0,0,133.81,353.63Z"/>
      <path class="e" d="M140.13,357.54v-2a1.34,1.34,0,0,1-.44.37,1.28,1.28,0,0,1-.61.15,1.59,1.59,0,0,1-1.22-.57,2.26,2.26,0,0,1-.51-1.56,2.59,2.59,0,0,1,.2-1.07,1.58,1.58,0,0,1,.61-.73,1.64,1.64,0,0,1,.87-.25,1.35,1.35,0,0,1,1.17.63V352h.6v5.53ZM138,354a1.82,1.82,0,0,0,.32,1.16,1,1,0,0,0,.78.38.93.93,0,0,0,.74-.36,1.7,1.7,0,0,0,.32-1.12,1.87,1.87,0,0,0-.33-1.2,1,1,0,0,0-.78-.4.91.91,0,0,0-.74.37A1.8,1.8,0,0,0,138,354Z"/>
      <path class="e" d="M144.48,356v-.59a1.46,1.46,0,0,1-1.27.68,1.66,1.66,0,0,1-.66-.14,1.07,1.07,0,0,1-.45-.34,1.2,1.2,0,0,1-.21-.5,3.21,3.21,0,0,1,0-.63V352h.68v2.22a3.71,3.71,0,0,0,0,.71.68.68,0,0,0,.27.42.86.86,0,0,0,.51.16,1.17,1.17,0,0,0,.57-.16.88.88,0,0,0,.38-.43,2.19,2.19,0,0,0,.11-.78V352h.68v4Z"/>
      <path class="e" d="M148.88,354.72l.7.09a1.7,1.7,0,0,1-.61.95,2.08,2.08,0,0,1-2.54-.2,2.12,2.12,0,0,1-.51-1.51,2.19,2.19,0,0,1,.52-1.57,1.76,1.76,0,0,1,1.35-.56,1.7,1.7,0,0,1,1.3.55,2.14,2.14,0,0,1,.51,1.53v.18h-3a1.57,1.57,0,0,0,.37,1,1.13,1.13,0,0,0,.84.35,1,1,0,0,0,.63-.19A1.25,1.25,0,0,0,148.88,354.72Zm-2.22-1.09h2.23a1.36,1.36,0,0,0-.26-.76,1,1,0,0,0-.84-.39,1.1,1.1,0,0,0-.78.31A1.24,1.24,0,0,0,146.66,353.63Z"/>
      <path class="e" d="M150.43,356v-4H151v.57a1.43,1.43,0,0,1,1.27-.66,1.76,1.76,0,0,1,.66.13,1,1,0,0,1,.46.34,1.4,1.4,0,0,1,.21.5,5,5,0,0,1,0,.66V356H153v-2.43a1.89,1.89,0,0,0-.08-.62.69.69,0,0,0-.28-.33.91.91,0,0,0-.47-.12,1.08,1.08,0,0,0-.75.28,1.35,1.35,0,0,0-.31,1V356Z"/>
      <path class="e" d="M157.32,354.54l.66.09a1.72,1.72,0,0,1-.56,1.08,1.61,1.61,0,0,1-1.1.39,1.72,1.72,0,0,1-1.32-.54,2.17,2.17,0,0,1-.5-1.53,2.81,2.81,0,0,1,.22-1.13,1.46,1.46,0,0,1,.65-.73,2,2,0,0,1,1-.25,1.66,1.66,0,0,1,1.06.33,1.54,1.54,0,0,1,.53.94l-.66.1a1.09,1.09,0,0,0-.33-.61.89.89,0,0,0-.58-.2,1,1,0,0,0-.83.37,1.75,1.75,0,0,0-.32,1.16,1.8,1.8,0,0,0,.31,1.17,1,1,0,0,0,.8.36,1,1,0,0,0,.67-.24A1.25,1.25,0,0,0,157.32,354.54Z"/>
      <path class="e" d="M161.3,354.72l.69.09a1.7,1.7,0,0,1-.61.95,2.07,2.07,0,0,1-2.53-.2,2.12,2.12,0,0,1-.51-1.51,2.23,2.23,0,0,1,.51-1.57,1.78,1.78,0,0,1,1.35-.56,1.73,1.73,0,0,1,1.31.55A2.14,2.14,0,0,1,162,354a1.36,1.36,0,0,1,0,.18h-3a1.47,1.47,0,0,0,.37,1,1.11,1.11,0,0,0,.83.35,1.05,1.05,0,0,0,.64-.19A1.39,1.39,0,0,0,161.3,354.72Zm-2.23-1.09h2.23a1.36,1.36,0,0,0-.25-.76,1.05,1.05,0,0,0-.84-.39,1.14,1.14,0,0,0-.79.31A1.29,1.29,0,0,0,159.07,353.63Z"/>
    </g>
    <g>
      <path class="e" d="M92.11,367.55v-6h1.2l1.42,4.25c.13.4.23.7.29.9.07-.22.17-.54.32-1l1.44-4.18h1.07v6h-.77v-5l-1.74,5h-.72l-1.74-5.12v5.12Z"/>
      <path class="e" d="M98.77,365.37a2.25,2.25,0,0,1,.67-1.79,2,2,0,0,1,1.37-.48,1.91,1.91,0,0,1,1.46.59,2.19,2.19,0,0,1,.58,1.62,2.84,2.84,0,0,1-.26,1.32,1.66,1.66,0,0,1-.73.75,2.11,2.11,0,0,1-1,.27,2,2,0,0,1-1.48-.59A2.32,2.32,0,0,1,98.77,365.37Zm.75,0a1.89,1.89,0,0,0,.37,1.26,1.19,1.19,0,0,0,.92.41,1.16,1.16,0,0,0,.91-.42,2.3,2.3,0,0,0,0-2.5,1.23,1.23,0,0,0-1.83,0A1.88,1.88,0,0,0,99.52,365.37Z"/>
      <path class="e" d="M106.54,367.55V367a1.37,1.37,0,0,1-1.22.65,1.72,1.72,0,0,1-1-.29,1.91,1.91,0,0,1-.68-.8,2.76,2.76,0,0,1-.24-1.18,3.23,3.23,0,0,1,.22-1.19,1.7,1.7,0,0,1,1.63-1.09,1.47,1.47,0,0,1,.7.16,1.61,1.61,0,0,1,.5.43v-2.15h.73v6Zm-2.34-2.17a1.88,1.88,0,0,0,.36,1.25,1.07,1.07,0,0,0,.83.41,1,1,0,0,0,.82-.39,1.82,1.82,0,0,0,.34-1.21,2,2,0,0,0-.35-1.31,1.05,1.05,0,0,0-.84-.42,1,1,0,0,0-.83.4A2,2,0,0,0,104.2,365.38Z"/>
      <path class="e" d="M111.36,366.15l.77.09a1.89,1.89,0,0,1-.67,1,2.26,2.26,0,0,1-2.76-.22,2.26,2.26,0,0,1-.56-1.65,2.42,2.42,0,0,1,.56-1.71,1.94,1.94,0,0,1,1.47-.6,1.86,1.86,0,0,1,1.43.59,2.35,2.35,0,0,1,.55,1.67v.2H108.9a1.65,1.65,0,0,0,.41,1.1,1.21,1.21,0,0,0,.91.38,1.13,1.13,0,0,0,.69-.21A1.4,1.4,0,0,0,111.36,366.15Zm-2.42-1.2h2.43a1.4,1.4,0,0,0-.28-.82,1.14,1.14,0,0,0-.91-.43,1.21,1.21,0,0,0-.86.34A1.38,1.38,0,0,0,108.94,365Z"/>
      <path class="e" d="M113,367.55v-6h.74v6Z"/>
    </g>
  </g>
  <g>
    <g class="p">
      <path class="d" d="M39.82,340.9H166"/>
    </g>
    <g>
      <path class="e" d="M19.94,340.94a5.12,5.12,0,0,1,.2-1.57,1.92,1.92,0,0,1,.6-.92,1.51,1.51,0,0,1,1-.33,1.66,1.66,0,0,1,.78.18,1.51,1.51,0,0,1,.55.52,2.81,2.81,0,0,1,.34.82,5.56,5.56,0,0,1,.12,1.3,4.87,4.87,0,0,1-.2,1.57,2,2,0,0,1-.59.92,1.56,1.56,0,0,1-1,.32,1.51,1.51,0,0,1-1.25-.57A3.58,3.58,0,0,1,19.94,340.94Zm.7,0a3.5,3.5,0,0,0,.31,1.81,1,1,0,0,0,.79.45.93.93,0,0,0,.78-.45,3.52,3.52,0,0,0,.32-1.81,3.47,3.47,0,0,0-.32-1.81.93.93,0,0,0-.79-.45.87.87,0,0,0-.74.4A3.4,3.4,0,0,0,20.64,340.94Z"/>
      <path class="e" d="M24.6,343.66v-.77h.77v.77Z"/>
      <path class="e" d="M26.36,340.94a5.12,5.12,0,0,1,.2-1.57,2,2,0,0,1,.6-.92,1.51,1.51,0,0,1,1-.33,1.66,1.66,0,0,1,.78.18,1.51,1.51,0,0,1,.55.52,2.56,2.56,0,0,1,.34.82,5.48,5.48,0,0,1,.13,1.3,5.17,5.17,0,0,1-.2,1.57,2,2,0,0,1-.6.92,1.56,1.56,0,0,1-1,.32,1.51,1.51,0,0,1-1.25-.57A3.58,3.58,0,0,1,26.36,340.94Zm.7,0a3.37,3.37,0,0,0,.32,1.81.9.9,0,0,0,1.56,0,3.52,3.52,0,0,0,.32-1.81,3.47,3.47,0,0,0-.32-1.81.93.93,0,0,0-.79-.45.87.87,0,0,0-.74.4A3.4,3.4,0,0,0,27.06,340.94Z"/>
    </g>
  </g>
  <g>
    <g class="p">
      <path class="d" d="M39.82,322.08H166"/>
    </g>
    <g>
      <path class="e" d="M19.94,322.11a5.17,5.17,0,0,1,.2-1.57,2,2,0,0,1,.6-.92,1.56,1.56,0,0,1,1-.32,1.66,1.66,0,0,1,.78.18,1.57,1.57,0,0,1,.55.51,2.93,2.93,0,0,1,.34.82,5.62,5.62,0,0,1,.12,1.3,4.87,4.87,0,0,1-.2,1.57,2,2,0,0,1-.59.92,1.51,1.51,0,0,1-1,.33,1.49,1.49,0,0,1-1.25-.58A3.56,3.56,0,0,1,19.94,322.11Zm.7,0a3.5,3.5,0,0,0,.31,1.81,1,1,0,0,0,.79.45.93.93,0,0,0,.78-.45,3.47,3.47,0,0,0,.32-1.81,3.43,3.43,0,0,0-.32-1.8.93.93,0,0,0-.79-.45.86.86,0,0,0-.74.39A3.45,3.45,0,0,0,20.64,322.11Z"/>
      <path class="e" d="M24.6,324.83v-.77h.77v.77Z"/>
      <path class="e" d="M28.91,324.83h-.68v-4.31a3.67,3.67,0,0,1-.64.47,5.12,5.12,0,0,1-.71.35v-.66a3.86,3.86,0,0,0,1-.65,2.44,2.44,0,0,0,.61-.73h.43Z"/>
    </g>
  </g>
  <g>
    <g class="p">
      <path class="d" d="M39.82,303.25H166"/>
    </g>
    <g>
      <path class="e" d="M19.94,303.29a5.24,5.24,0,0,1,.2-1.58,2,2,0,0,1,.6-.92,1.56,1.56,0,0,1,1-.32,1.66,1.66,0,0,1,.78.18,1.57,1.57,0,0,1,.55.51,2.93,2.93,0,0,1,.34.82,5.72,5.72,0,0,1,.12,1.31,4.81,4.81,0,0,1-.2,1.56,1.91,1.91,0,0,1-.59.92,1.67,1.67,0,0,1-2.25-.24A3.6,3.6,0,0,1,19.94,303.29Zm.7,0a3.48,3.48,0,0,0,.31,1.8,1,1,0,0,0,.79.45.93.93,0,0,0,.78-.45,5.25,5.25,0,0,0,0-3.61.93.93,0,0,0-.79-.45.84.84,0,0,0-.74.4A3.4,3.4,0,0,0,20.64,303.29Z"/>
      <path class="e" d="M24.6,306v-.78h.77V306Z"/>
      <path class="e" d="M29.92,305.35V306H26.28a1.3,1.3,0,0,1,.07-.48,2.89,2.89,0,0,1,.45-.73,6.23,6.23,0,0,1,.89-.83,7.18,7.18,0,0,0,1.21-1.17,1.42,1.42,0,0,0,.32-.81.91.91,0,0,0-.29-.68,1,1,0,0,0-.75-.28,1.06,1.06,0,0,0-.78.29,1.1,1.1,0,0,0-.3.82l-.7-.08a1.73,1.73,0,0,1,.54-1.18,1.84,1.84,0,0,1,1.25-.41,1.77,1.77,0,0,1,1.26.44,1.44,1.44,0,0,1,.46,1.09,1.64,1.64,0,0,1-.13.65,2.46,2.46,0,0,1-.45.67,10.17,10.17,0,0,1-1,1c-.4.35-.66.58-.78.7a2.2,2.2,0,0,0-.28.36Z"/>
    </g>
  </g>
  <g>
    <g class="p">
      <path class="d" d="M39.82,284.42H166"/>
    </g>
    <g>
      <path class="e" d="M19.94,284.46a5.12,5.12,0,0,1,.2-1.57,1.92,1.92,0,0,1,.6-.92,1.51,1.51,0,0,1,1-.33,1.66,1.66,0,0,1,.78.18,1.51,1.51,0,0,1,.55.52,2.81,2.81,0,0,1,.34.82,5.56,5.56,0,0,1,.12,1.3,4.87,4.87,0,0,1-.2,1.57,2,2,0,0,1-.59.92,1.56,1.56,0,0,1-1,.32,1.51,1.51,0,0,1-1.25-.57A3.58,3.58,0,0,1,19.94,284.46Zm.7,0a3.5,3.5,0,0,0,.31,1.81,1,1,0,0,0,.79.45.93.93,0,0,0,.78-.45,3.52,3.52,0,0,0,.32-1.81,3.47,3.47,0,0,0-.32-1.81.93.93,0,0,0-.79-.45.87.87,0,0,0-.74.4A3.4,3.4,0,0,0,20.64,284.46Z"/>
      <path class="e" d="M24.6,287.18v-.77h.77v.77Z"/>
      <path class="e" d="M26.37,285.72l.67-.09a1.47,1.47,0,0,0,.4.83,1,1,0,0,0,.68.26,1.1,1.1,0,0,0,.81-.33,1.14,1.14,0,0,0,.33-.82,1,1,0,0,0-.31-.77,1.06,1.06,0,0,0-.77-.31,2,2,0,0,0-.48.08l.08-.6h.1a1.39,1.39,0,0,0,.78-.22.87.87,0,0,0,.1-1.31,1,1,0,0,0-1.31,0,1.2,1.2,0,0,0-.34.74l-.68-.12A1.75,1.75,0,0,1,27,282a1.61,1.61,0,0,1,1.09-.38,1.78,1.78,0,0,1,.83.2,1.36,1.36,0,0,1,.58.53,1.3,1.3,0,0,1,.2.71,1.17,1.17,0,0,1-.19.65.5.5,0,1,0,.19.93,1.37,1.37,0,0,1,.28.89,1.62,1.62,0,0,1-.53,1.22,1.84,1.84,0,0,1-1.33.51,1.73,1.73,0,0,1-1.21-.44A1.62,1.62,0,0,1,26.37,285.72Z"/>
    </g>
  </g>
  <g>
    <g class="p">
      <path class="d" d="M39.82,265.6H166"/>
    </g>
    <g>
      <path class="e" d="M19.94,265.63a5.17,5.17,0,0,1,.2-1.57,2,2,0,0,1,.6-.92,1.56,1.56,0,0,1,1-.32,1.66,1.66,0,0,1,.78.18,1.57,1.57,0,0,1,.55.51,2.93,2.93,0,0,1,.34.82,5.62,5.62,0,0,1,.12,1.3,4.87,4.87,0,0,1-.2,1.57,2,2,0,0,1-.59.92,1.51,1.51,0,0,1-1,.33,1.49,1.49,0,0,1-1.25-.58A3.56,3.56,0,0,1,19.94,265.63Zm.7,0a3.5,3.5,0,0,0,.31,1.81,1,1,0,0,0,.79.45.93.93,0,0,0,.78-.45,3.47,3.47,0,0,0,.32-1.81,3.43,3.43,0,0,0-.32-1.8.93.93,0,0,0-.79-.45.86.86,0,0,0-.74.39A3.45,3.45,0,0,0,20.64,265.63Z"/>
      <path class="e" d="M24.6,268.35v-.77h.77v.77Z"/>
      <path class="e" d="M28.53,268.35V267H26.14v-.62l2.52-3.57h.55v3.57H30V267h-.74v1.32Zm0-1.94v-2.48l-1.72,2.48Z"/>
    </g>
  </g>
  <g>
    <g class="p">
      <path class="d" d="M39.82,246.77H166"/>
    </g>
    <g>
      <path class="e" d="M19.94,246.81a5.24,5.24,0,0,1,.2-1.58,2,2,0,0,1,.6-.92,1.56,1.56,0,0,1,1-.32,1.66,1.66,0,0,1,.78.18,1.57,1.57,0,0,1,.55.51,2.93,2.93,0,0,1,.34.82,5.72,5.72,0,0,1,.12,1.31,4.81,4.81,0,0,1-.2,1.56,1.91,1.91,0,0,1-.59.92,1.67,1.67,0,0,1-2.25-.24A3.6,3.6,0,0,1,19.94,246.81Zm.7,0a3.48,3.48,0,0,0,.31,1.8,1,1,0,0,0,.79.45.93.93,0,0,0,.78-.45,5.25,5.25,0,0,0,0-3.61.93.93,0,0,0-.79-.45.84.84,0,0,0-.74.4A3.4,3.4,0,0,0,20.64,246.81Z"/>
      <path class="e" d="M24.6,249.53v-.78h.77v.78Z"/>
      <path class="e" d="M26.36,248.08l.71-.06a1.3,1.3,0,0,0,.37.78,1,1,0,0,0,.69.26,1.1,1.1,0,0,0,.83-.36,1.39,1.39,0,0,0,.34-1,1.26,1.26,0,0,0-.33-.92,1.13,1.13,0,0,0-.85-.33,1.18,1.18,0,0,0-.59.15,1.15,1.15,0,0,0-.41.38l-.64-.08.54-2.83h2.74v.65h-2.2l-.3,1.48a1.8,1.8,0,0,1,1-.35,1.67,1.67,0,0,1,1.22.5,1.75,1.75,0,0,1,.5,1.29,2,2,0,0,1-.44,1.29,1.94,1.94,0,0,1-2.67.25A1.65,1.65,0,0,1,26.36,248.08Z"/>
    </g>
  </g>
  <g>
    <g class="p">
      <path class="d" d="M39.82,227.94H166"/>
    </g>
    <g>
      <path class="e" d="M19.94,228a5.12,5.12,0,0,1,.2-1.57,1.92,1.92,0,0,1,.6-.92,1.51,1.51,0,0,1,1-.33,1.66,1.66,0,0,1,.78.18,1.51,1.51,0,0,1,.55.52,2.81,2.81,0,0,1,.34.82,5.56,5.56,0,0,1,.12,1.3,4.87,4.87,0,0,1-.2,1.57,2,2,0,0,1-.59.92,1.56,1.56,0,0,1-1,.32,1.51,1.51,0,0,1-1.25-.57A3.58,3.58,0,0,1,19.94,228Zm.7,0a3.5,3.5,0,0,0,.31,1.81,1,1,0,0,0,.79.45.93.93,0,0,0,.78-.45,3.52,3.52,0,0,0,.32-1.81,3.47,3.47,0,0,0-.32-1.81.93.93,0,0,0-.79-.45.87.87,0,0,0-.74.4A3.42,3.42,0,0,0,20.64,228Z"/>
      <path class="e" d="M24.6,230.7v-.77h.77v.77Z"/>
      <path class="e" d="M29.87,226.54l-.67.05A1.26,1.26,0,0,0,29,226a1,1,0,0,0-1.25-.11,1.55,1.55,0,0,0-.5.68,3.49,3.49,0,0,0-.2,1.28,1.67,1.67,0,0,1,.6-.56,1.65,1.65,0,0,1,.74-.18,1.57,1.57,0,0,1,1.16.5,1.81,1.81,0,0,1,.47,1.29,2.08,2.08,0,0,1-.22,1,1.67,1.67,0,0,1-.62.69,1.72,1.72,0,0,1-.88.23,1.7,1.7,0,0,1-1.38-.62,3.11,3.11,0,0,1-.54-2,3.67,3.67,0,0,1,.59-2.32,1.69,1.69,0,0,1,1.39-.64,1.6,1.6,0,0,1,1.07.37A1.54,1.54,0,0,1,29.87,226.54Zm-2.76,2.37a1.53,1.53,0,0,0,.15.67,1.18,1.18,0,0,0,.41.49,1.07,1.07,0,0,0,.56.17,1,1,0,0,0,.74-.35,1.33,1.33,0,0,0,.31-.94,1.25,1.25,0,0,0-.31-.9,1,1,0,0,0-.76-.33,1,1,0,0,0-.78.33A1.2,1.2,0,0,0,27.11,228.91Z"/>
    </g>
  </g>
  <path class="e" d="M13.85,291.71h-6v-1.2l4.26-1.42.89-.29c-.22-.06-.54-.17-1-.31l-4.18-1.44V286h6v.77h-5l5,1.75v.72L8.73,291h5.12Z"/>
  <path class="e" d="M11.92,285l-.06-.75a1.62,1.62,0,0,0,.74-.25,1.37,1.37,0,0,0,.46-.6,2.3,2.3,0,0,0,.18-.93,2.2,2.2,0,0,0-.13-.8,1.22,1.22,0,0,0-.37-.52.9.9,0,0,0-.52-.17.77.77,0,0,0-.49.17,1.27,1.27,0,0,0-.36.54,11,11,0,0,0-.29,1.07,5.14,5.14,0,0,1-.38,1.16,1.54,1.54,0,0,1-.56.64,1.37,1.37,0,0,1-.75.21,1.49,1.49,0,0,1-.85-.26,1.62,1.62,0,0,1-.6-.75,3,3,0,0,1-.2-1.1A3.07,3.07,0,0,1,8,281.44a1.74,1.74,0,0,1,.64-.79,1.8,1.8,0,0,1,.94-.29l.06.76a1.21,1.21,0,0,0-.86.42,1.61,1.61,0,0,0-.29,1,1.78,1.78,0,0,0,.26,1.06.82.82,0,0,0,.64.32.66.66,0,0,0,.53-.23,3,3,0,0,0,.43-1.2,7.93,7.93,0,0,1,.39-1.33,1.73,1.73,0,0,1,.61-.77,1.47,1.47,0,0,1,.85-.25,1.67,1.67,0,0,1,.91.27,1.85,1.85,0,0,1,.66.79A2.7,2.7,0,0,1,14,282.4a3.47,3.47,0,0,1-.24,1.37,2,2,0,0,1-.72.86A2,2,0,0,1,11.92,285Z"/>
  <path class="e" d="M13.85,279.07h-6v-4.35h.71v3.56h1.84V275h.71v3.33h2v-3.7h.71Z"/>
  <g class="p">
    <path class="q" d="M44,340.9H77.69V262.2H44Z"/>
  </g>
  <g class="p">
    <path class="r" d="M86.1,340.9h33.65V251.21H86.1Z"/>
  </g>
  <g class="p">
    <path class="s" d="M128.17,340.9h33.65V225.11H128.17Z"/>
  </g>
  <path class="m" d="M39.82,340.9V219.32"/>
  <path class="m" d="M166,340.9V219.32"/>
  <path class="m" d="M39.82,340.9H166"/>
  <path class="m" d="M39.82,219.32H166"/>
  <path class="e" d="M12,196.42h3.6a10.25,10.25,0,0,1,1.59.09,2.35,2.35,0,0,1,.94.37,2.42,2.42,0,0,1,.69.76,2.06,2.06,0,0,1,.28,1.05,2.16,2.16,0,0,1-1.27,1.95,2.37,2.37,0,0,1,1.27.82,2.16,2.16,0,0,1,.44,1.35,2.72,2.72,0,0,1-.29,1.2,2.45,2.45,0,0,1-.78.93,2.53,2.53,0,0,1-1.22.42q-.45.06-2.19.06H12Zm1.82,1.5V200H15q1.06,0,1.32,0a1.15,1.15,0,0,0,.73-.32.94.94,0,0,0,.27-.7,1,1,0,0,0-.23-.68,1,1,0,0,0-.69-.32c-.18,0-.7,0-1.55,0Zm0,3.58v2.41h1.68a7.47,7.47,0,0,0,1.24-.06,1.13,1.13,0,0,0,.66-.36,1.09,1.09,0,0,0,.26-.76,1.19,1.19,0,0,0-.2-.69,1.06,1.06,0,0,0-.57-.41,5.91,5.91,0,0,0-1.61-.13Z"/>
  <path class="b" d="M208,340.9h126.2V219.32H208Z"/>
  <g>
    <g>
      <path class="e" d="M206.62,357.44v-5.52h.61v.52a1.54,1.54,0,0,1,.5-.46,1.34,1.34,0,0,1,.66-.15,1.61,1.61,0,0,1,.9.26,1.64,1.64,0,0,1,.59.75,2.86,2.86,0,0,1,0,2.15,1.67,1.67,0,0,1-1.52,1,1.25,1.25,0,0,1-.61-.14,1.39,1.39,0,0,1-.44-.36v1.94Zm.61-3.5a1.74,1.74,0,0,0,.31,1.14,1,1,0,0,0,1.53,0,1.86,1.86,0,0,0,.32-1.19,1.74,1.74,0,0,0-.31-1.14,1,1,0,0,0-.75-.38,1,1,0,0,0-.77.41A1.79,1.79,0,0,0,207.23,353.94Z"/>
      <path class="e" d="M210.64,354.26v-.68h2.07v.68Z"/>
      <path class="e" d="M212.94,355.91l2.12-5.51h.79l2.25,5.51h-.83l-.64-1.67h-2.31l-.6,1.67Zm1.6-2.26h1.86l-.57-1.53a11.16,11.16,0,0,1-.39-1.14,6.59,6.59,0,0,1-.3,1Z"/>
      <path class="e" d="M219.22,355.91h-.62V350.4h.67v2a1.35,1.35,0,0,1,1.1-.54,1.65,1.65,0,0,1,.69.15,1.41,1.41,0,0,1,.54.42,1.83,1.83,0,0,1,.34.65,2.64,2.64,0,0,1,.12.81,2.26,2.26,0,0,1-.51,1.58,1.56,1.56,0,0,1-1.22.56,1.26,1.26,0,0,1-1.11-.59Zm0-2a2.11,2.11,0,0,0,.19,1,1,1,0,0,0,.87.52,1,1,0,0,0,.76-.39,1.72,1.72,0,0,0,.33-1.15,1.82,1.82,0,0,0-.31-1.15,1,1,0,0,0-.75-.37,1,1,0,0,0-.77.38A1.68,1.68,0,0,0,219.22,353.89Z"/>
      <path class="e" d="M225.5,355.91v-.58a1.47,1.47,0,0,1-1.27.67,1.65,1.65,0,0,1-.66-.13,1.07,1.07,0,0,1-.45-.34,1.33,1.33,0,0,1-.21-.5,3.39,3.39,0,0,1,0-.64v-2.47h.67v2.22a4.83,4.83,0,0,0,0,.71.77.77,0,0,0,.27.42.86.86,0,0,0,.52.15,1.16,1.16,0,0,0,.57-.15.93.93,0,0,0,.38-.43,2.23,2.23,0,0,0,.11-.78v-2.14h.67v4Z"/>
      <path class="e" d="M227.16,355.91v-4h.61v.57a1.44,1.44,0,0,1,1.27-.66,1.63,1.63,0,0,1,.67.13,1.07,1.07,0,0,1,.45.34,1.33,1.33,0,0,1,.21.5,3.43,3.43,0,0,1,0,.66v2.45h-.68v-2.43a1.83,1.83,0,0,0-.08-.61.6.6,0,0,0-.28-.33.89.89,0,0,0-.47-.12,1.11,1.11,0,0,0-.75.27,1.35,1.35,0,0,0-.31,1v2.18Z"/>
      <path class="e" d="M234,355.91v-.5a1.24,1.24,0,0,1-1.12.59,1.54,1.54,0,0,1-.88-.26,1.71,1.71,0,0,1-.62-.73,2.53,2.53,0,0,1-.22-1.09,2.85,2.85,0,0,1,.2-1.08,1.51,1.51,0,0,1,.6-.75,1.6,1.6,0,0,1,.89-.26,1.34,1.34,0,0,1,.64.15,1.37,1.37,0,0,1,.46.4v-2h.67v5.51Zm-2.14-2a1.73,1.73,0,0,0,.32,1.15,1,1,0,0,0,.76.38,1,1,0,0,0,.76-.36,1.75,1.75,0,0,0,.31-1.11,1.85,1.85,0,0,0-.32-1.2,1,1,0,0,0-.78-.39.92.92,0,0,0-.75.37A1.81,1.81,0,0,0,231.9,353.92Z"/>
      <path class="e" d="M238.33,355.42a2.64,2.64,0,0,1-.72.45,2,2,0,0,1-.75.13,1.44,1.44,0,0,1-1-.32,1.14,1.14,0,0,1-.22-1.35,1,1,0,0,1,.35-.39,1.69,1.69,0,0,1,.49-.23l.6-.1a5.89,5.89,0,0,0,1.21-.23v-.18a.74.74,0,0,0-.19-.58,1.14,1.14,0,0,0-.77-.23,1.24,1.24,0,0,0-.71.17,1,1,0,0,0-.33.59l-.66-.09a1.67,1.67,0,0,1,.29-.69,1.41,1.41,0,0,1,.6-.4,2.76,2.76,0,0,1,.91-.14,2.43,2.43,0,0,1,.83.12,1.12,1.12,0,0,1,.47.3,1.14,1.14,0,0,1,.21.46,4.44,4.44,0,0,1,0,.63v.9c0,.63,0,1,0,1.2a1.43,1.43,0,0,0,.18.47h-.71A1.41,1.41,0,0,1,238.33,355.42Zm-.05-1.51a5.06,5.06,0,0,1-1.11.26,2.66,2.66,0,0,0-.59.13.64.64,0,0,0-.27.22.59.59,0,0,0-.09.32.57.57,0,0,0,.21.45.86.86,0,0,0,.6.18,1.31,1.31,0,0,0,.69-.17,1.07,1.07,0,0,0,.45-.47,1.63,1.63,0,0,0,.11-.67Z"/>
      <path class="e" d="M240,355.91v-4h.61v.57a1.43,1.43,0,0,1,1.27-.66,1.59,1.59,0,0,1,.66.13,1,1,0,0,1,.46.34,1.33,1.33,0,0,1,.21.5,4.54,4.54,0,0,1,0,.66v2.45h-.68v-2.43a1.83,1.83,0,0,0-.08-.61.64.64,0,0,0-.28-.33.89.89,0,0,0-.47-.12,1.11,1.11,0,0,0-.75.27,1.35,1.35,0,0,0-.31,1v2.18Z"/>
      <path class="e" d="M246.9,354.45l.66.09a1.71,1.71,0,0,1-.55,1.08,1.68,1.68,0,0,1-1.11.38,1.73,1.73,0,0,1-1.32-.53,2.19,2.19,0,0,1-.49-1.54,2.81,2.81,0,0,1,.21-1.13,1.5,1.5,0,0,1,.65-.73,2,2,0,0,1,1-.24,1.66,1.66,0,0,1,1.06.33,1.5,1.5,0,0,1,.53.93l-.66.11a1.09,1.09,0,0,0-.33-.61.89.89,0,0,0-.58-.2,1.05,1.05,0,0,0-.83.36,2.31,2.31,0,0,0,0,2.33,1,1,0,0,0,.8.37.93.93,0,0,0,.67-.25A1.2,1.2,0,0,0,246.9,354.45Z"/>
      <path class="e" d="M250.88,354.63l.7.08a1.74,1.74,0,0,1-.62,1,2.11,2.11,0,0,1-2.53-.2,2.13,2.13,0,0,1-.51-1.52,2.18,2.18,0,0,1,.52-1.56,1.74,1.74,0,0,1,1.34-.56,1.69,1.69,0,0,1,1.31.55,2.14,2.14,0,0,1,.51,1.53v.18h-3a1.54,1.54,0,0,0,.37,1,1.11,1.11,0,0,0,.83.35,1.06,1.06,0,0,0,.64-.2A1.41,1.41,0,0,0,250.88,354.63Zm-2.23-1.1h2.23a1.36,1.36,0,0,0-.25-.75,1.12,1.12,0,0,0-1.62-.08A1.25,1.25,0,0,0,248.65,353.53Z"/>
    </g>
    <g>
      <path class="e" d="M265.66,355.91V350.4h1.1l1.31,3.9c.12.37.21.64.26.82.06-.2.16-.49.29-.88l1.32-3.84h1v5.51h-.7V351.3l-1.6,4.61H268l-1.59-4.69v4.69Z"/>
      <path class="e" d="M272,351.18v-.78h.68v.78Zm0,4.73v-4h.68v4Z"/>
      <path class="e" d="M273.27,355.91l1.46-2.07-1.35-1.92h.85l.61.94c.12.17.21.32.28.44l.3-.43.68-.95h.81l-1.38,1.88,1.48,2.11h-.83l-.82-1.24-.22-.33-1.05,1.57Z"/>
    </g>
    <g>
      <path class="e" d="M296.16,354.24l.68-.06a1.66,1.66,0,0,0,.23.68,1.31,1.31,0,0,0,.56.42,2.07,2.07,0,0,0,.84.17,1.88,1.88,0,0,0,.74-.13.94.94,0,0,0,.47-.34.74.74,0,0,0,.16-.47.72.72,0,0,0-.15-.45,1.15,1.15,0,0,0-.5-.33c-.14-.05-.47-.14-1-.27a4.86,4.86,0,0,1-1.06-.34,1.57,1.57,0,0,1-.59-.51,1.28,1.28,0,0,1-.19-.69,1.45,1.45,0,0,1,.23-.78,1.53,1.53,0,0,1,.69-.55,2.92,2.92,0,0,1,2.1,0,1.6,1.6,0,0,1,.72.58,1.65,1.65,0,0,1,.27.87l-.7.05a1.17,1.17,0,0,0-.38-.79,1.48,1.48,0,0,0-1-.26,1.57,1.57,0,0,0-1,.24.72.72,0,0,0-.3.58.64.64,0,0,0,.21.49,2.83,2.83,0,0,0,1.1.39,7.71,7.71,0,0,1,1.22.35,1.66,1.66,0,0,1,.71.57,1.3,1.3,0,0,1,.23.78,1.49,1.49,0,0,1-.25.83,1.73,1.73,0,0,1-.72.61,2.61,2.61,0,0,1-1.06.21,3.13,3.13,0,0,1-1.26-.22,1.69,1.69,0,0,1-.79-.65A1.86,1.86,0,0,1,296.16,354.24Z"/>
      <path class="e" d="M304.19,354.72l.7.09a1.71,1.71,0,0,1-.62.95,1.8,1.8,0,0,1-1.14.34,1.83,1.83,0,0,1-1.39-.54,2.12,2.12,0,0,1-.51-1.51,2.19,2.19,0,0,1,.52-1.57,1.74,1.74,0,0,1,1.34-.56,1.72,1.72,0,0,1,1.31.55,2.14,2.14,0,0,1,.51,1.53v.18h-3a1.52,1.52,0,0,0,.37,1,1.11,1.11,0,0,0,.83.35,1.05,1.05,0,0,0,.64-.19A1.32,1.32,0,0,0,304.19,354.72ZM302,353.63h2.22a1.36,1.36,0,0,0-.25-.76,1.05,1.05,0,0,0-.84-.39,1.1,1.1,0,0,0-.78.31A1.2,1.2,0,0,0,302,353.63Z"/>
      <path class="e" d="M308.28,357.54v-2a1.16,1.16,0,0,1-.44.37,1.27,1.27,0,0,1-.6.15,1.59,1.59,0,0,1-1.23-.57,2.26,2.26,0,0,1-.51-1.56,2.59,2.59,0,0,1,.21-1.07,1.62,1.62,0,0,1,.6-.73,1.69,1.69,0,0,1,.87-.25,1.33,1.33,0,0,1,1.17.63V352H309v5.53ZM306.19,354a1.76,1.76,0,0,0,.33,1.16,1,1,0,0,0,.77.38,1,1,0,0,0,.75-.36,1.76,1.76,0,0,0,.31-1.12,1.87,1.87,0,0,0-.33-1.2,1,1,0,0,0-.77-.4.93.93,0,0,0-.75.37A1.86,1.86,0,0,0,306.19,354Z"/>
      <path class="e" d="M312.64,356v-.59a1.49,1.49,0,0,1-1.27.68,1.59,1.59,0,0,1-.66-.14,1,1,0,0,1-.46-.34,1.35,1.35,0,0,1-.21-.5,4.26,4.26,0,0,1,0-.63V352h.68v2.22a3.71,3.71,0,0,0,0,.71.68.68,0,0,0,.27.42.86.86,0,0,0,.51.16,1.11,1.11,0,0,0,.57-.16.84.84,0,0,0,.38-.43,2,2,0,0,0,.11-.78V352h.68v4Z"/>
      <path class="e" d="M317,354.72l.7.09a1.7,1.7,0,0,1-.61.95,2.07,2.07,0,0,1-2.53-.2,2.13,2.13,0,0,1-.52-1.51,2.23,2.23,0,0,1,.52-1.57,1.78,1.78,0,0,1,1.35-.56,1.73,1.73,0,0,1,1.31.55,2.14,2.14,0,0,1,.51,1.53s0,.1,0,.18h-3a1.52,1.52,0,0,0,.38,1,1.11,1.11,0,0,0,.83.35,1.05,1.05,0,0,0,.64-.19A1.31,1.31,0,0,0,317,354.72Zm-2.22-1.09H317a1.36,1.36,0,0,0-.25-.76,1.05,1.05,0,0,0-.84-.39,1.14,1.14,0,0,0-.79.31A1.24,1.24,0,0,0,314.81,353.63Z"/>
      <path class="e" d="M318.58,356v-4h.61v.57a1.44,1.44,0,0,1,1.27-.66,1.86,1.86,0,0,1,.67.13,1.07,1.07,0,0,1,.45.34,1.4,1.4,0,0,1,.21.5,3.43,3.43,0,0,1,0,.66V356h-.68v-2.43a1.89,1.89,0,0,0-.08-.62.64.64,0,0,0-.28-.33.89.89,0,0,0-.47-.12,1.08,1.08,0,0,0-.75.28,1.35,1.35,0,0,0-.31,1V356Z"/>
      <path class="e" d="M325.47,354.54l.67.09a1.77,1.77,0,0,1-.56,1.08,1.64,1.64,0,0,1-1.11.39,1.7,1.7,0,0,1-1.31-.54,2.12,2.12,0,0,1-.5-1.53,2.81,2.81,0,0,1,.21-1.13,1.5,1.5,0,0,1,.65-.73,2,2,0,0,1,1-.25,1.64,1.64,0,0,1,1.06.33,1.45,1.45,0,0,1,.53.94l-.66.1a1.09,1.09,0,0,0-.33-.61.89.89,0,0,0-.58-.2,1,1,0,0,0-.83.37,1.75,1.75,0,0,0-.32,1.16,1.86,1.86,0,0,0,.31,1.17,1,1,0,0,0,.81.36,1,1,0,0,0,.66-.24A1.25,1.25,0,0,0,325.47,354.54Z"/>
      <path class="e" d="M329.45,354.72l.7.09a1.75,1.75,0,0,1-.61.95,2.08,2.08,0,0,1-2.54-.2,2.12,2.12,0,0,1-.51-1.51,2.19,2.19,0,0,1,.52-1.57,1.74,1.74,0,0,1,1.34-.56,1.72,1.72,0,0,1,1.31.55,2.14,2.14,0,0,1,.51,1.53v.18h-3a1.52,1.52,0,0,0,.37,1,1.12,1.12,0,0,0,.84.35,1,1,0,0,0,.63-.19A1.25,1.25,0,0,0,329.45,354.72Zm-2.22-1.09h2.23a1.36,1.36,0,0,0-.26-.76,1,1,0,0,0-.84-.39,1.1,1.1,0,0,0-.78.31A1.24,1.24,0,0,0,327.23,353.63Z"/>
    </g>
    <g>
      <path class="e" d="M260.27,367.55v-6h1.19l1.43,4.25c.13.4.22.7.28.9l.32-1,1.44-4.18H266v6h-.76v-5l-1.75,5h-.72L261,362.43v5.12Z"/>
      <path class="e" d="M266.92,365.37a2.25,2.25,0,0,1,.67-1.79,2,2,0,0,1,1.37-.48,1.93,1.93,0,0,1,1.47.59,2.22,2.22,0,0,1,.57,1.62,2.85,2.85,0,0,1-.25,1.32,1.73,1.73,0,0,1-.74.75,2.11,2.11,0,0,1-1.05.27,2,2,0,0,1-1.48-.59A2.36,2.36,0,0,1,266.92,365.37Zm.76,0a1.89,1.89,0,0,0,.36,1.26,1.2,1.2,0,0,0,.92.41,1.18,1.18,0,0,0,.92-.42,1.89,1.89,0,0,0,.36-1.27,1.79,1.79,0,0,0-.37-1.23,1.18,1.18,0,0,0-.91-.41,1.2,1.2,0,0,0-.92.41A1.88,1.88,0,0,0,267.68,365.37Z"/>
      <path class="e" d="M274.69,367.55V367a1.36,1.36,0,0,1-1.22.65,1.77,1.77,0,0,1-1-.29,1.89,1.89,0,0,1-.67-.8,2.76,2.76,0,0,1-.24-1.18,3.23,3.23,0,0,1,.21-1.19,1.77,1.77,0,0,1,.66-.81,1.72,1.72,0,0,1,1-.28,1.45,1.45,0,0,1,.7.16,1.5,1.5,0,0,1,.5.43v-2.15h.74v6Zm-2.33-2.17a1.88,1.88,0,0,0,.35,1.25,1.07,1.07,0,0,0,.83.41,1,1,0,0,0,.82-.39,1.82,1.82,0,0,0,.34-1.21,2,2,0,0,0-.34-1.31,1.06,1.06,0,0,0-.85-.42,1,1,0,0,0-.82.4A2,2,0,0,0,272.36,365.38Z"/>
      <path class="e" d="M279.52,366.15l.76.09a1.84,1.84,0,0,1-.67,1,2,2,0,0,1-1.24.37,2,2,0,0,1-1.52-.59,2.3,2.3,0,0,1-.56-1.65,2.42,2.42,0,0,1,.57-1.71,1.9,1.9,0,0,1,1.46-.6,1.84,1.84,0,0,1,1.43.59,2.36,2.36,0,0,1,.56,1.67c0,.05,0,.11,0,.2h-3.25a1.7,1.7,0,0,0,.41,1.1,1.22,1.22,0,0,0,.91.38,1.13,1.13,0,0,0,.69-.21A1.41,1.41,0,0,0,279.52,366.15Zm-2.43-1.2h2.44a1.55,1.55,0,0,0-.28-.82,1.16,1.16,0,0,0-.92-.43,1.19,1.19,0,0,0-.85.34A1.39,1.39,0,0,0,277.09,365Z"/>
      <path class="e" d="M281.19,367.55v-6h.74v6Z"/>
    </g>
  </g>
  <g>
    <g class="t">
      <path class="d" d="M208,335.38h126.2"/>
    </g>
    <path class="e" d="M194.52,335.41a4.87,4.87,0,0,1,.2-1.57,2,2,0,0,1,.59-.92,1.58,1.58,0,0,1,1-.32,1.61,1.61,0,0,1,.78.18,1.49,1.49,0,0,1,.55.51,2.94,2.94,0,0,1,.35.82,5.62,5.62,0,0,1,.12,1.3,5.17,5.17,0,0,1-.2,1.57,1.9,1.9,0,0,1-.6.92,1.65,1.65,0,0,1-2.25-.25A3.63,3.63,0,0,1,194.52,335.41Zm.69,0a3.47,3.47,0,0,0,.32,1.81.93.93,0,0,0,.78.45,1,1,0,0,0,.79-.45,3.5,3.5,0,0,0,.31-1.81,3.45,3.45,0,0,0-.31-1.8,1,1,0,0,0-.8-.45.87.87,0,0,0-.74.39A3.54,3.54,0,0,0,195.21,335.41Z"/>
  </g>
  <g>
    <g class="t">
      <path class="d" d="M208,309h126.2"/>
    </g>
    <g>
      <path class="e" d="M193.79,311.13v.65h-3.64a1.09,1.09,0,0,1,.08-.47,2.62,2.62,0,0,1,.44-.74,6.86,6.86,0,0,1,.89-.83,7.18,7.18,0,0,0,1.21-1.17,1.4,1.4,0,0,0,.32-.81.91.91,0,0,0-.29-.68,1.05,1.05,0,0,0-.75-.28,1,1,0,0,0-.78.3,1.06,1.06,0,0,0-.3.81l-.7-.07a1.73,1.73,0,0,1,.54-1.19,1.84,1.84,0,0,1,1.25-.41,1.77,1.77,0,0,1,1.26.44,1.45,1.45,0,0,1,.46,1.09,1.64,1.64,0,0,1-.13.65,2.49,2.49,0,0,1-.45.68,11.45,11.45,0,0,1-1,1q-.6.51-.78.69a1.9,1.9,0,0,0-.28.37Z"/>
      <path class="e" d="M194.52,309.06a4.83,4.83,0,0,1,.2-1.57,1.91,1.91,0,0,1,.59-.92,1.53,1.53,0,0,1,1-.33,1.61,1.61,0,0,1,.78.18,1.44,1.44,0,0,1,.55.52,2.7,2.7,0,0,1,.35.82,5.56,5.56,0,0,1,.12,1.3,5.17,5.17,0,0,1-.2,1.57,2,2,0,0,1-.6.92,1.54,1.54,0,0,1-1,.32,1.51,1.51,0,0,1-1.25-.57A3.67,3.67,0,0,1,194.52,309.06Zm.69,0a3.5,3.5,0,0,0,.32,1.81.93.93,0,0,0,.78.45.94.94,0,0,0,.79-.46,5.41,5.41,0,0,0,0-3.61,1,1,0,0,0-.8-.45.88.88,0,0,0-.74.4A3.49,3.49,0,0,0,195.21,309.06Z"/>
    </g>
  </g>
  <g>
    <g class="t">
      <path class="d" d="M208,282.67h126.2"/>
    </g>
    <g>
      <path class="e" d="M192.4,285.42V284.1H190v-.62l2.52-3.57h.55v3.57h.74v.62h-.74v1.32Zm0-1.94V281l-1.72,2.48Z"/>
      <path class="e" d="M194.52,282.71a4.9,4.9,0,0,1,.2-1.58,2,2,0,0,1,.59-.92,1.58,1.58,0,0,1,1-.32,1.61,1.61,0,0,1,.78.18,1.49,1.49,0,0,1,.55.51,2.94,2.94,0,0,1,.35.82,5.66,5.66,0,0,1,.12,1.31,5.14,5.14,0,0,1-.2,1.56,1.86,1.86,0,0,1-.6.92,1.49,1.49,0,0,1-1,.33,1.51,1.51,0,0,1-1.25-.57A3.67,3.67,0,0,1,194.52,282.71Zm.69,0a3.45,3.45,0,0,0,.32,1.8.93.93,0,0,0,.78.45,1,1,0,0,0,.79-.45,5.41,5.41,0,0,0,0-3.61,1,1,0,0,0-.8-.45.87.87,0,0,0-.74.39A3.56,3.56,0,0,0,195.21,282.71Z"/>
    </g>
  </g>
  <g>
    <g class="t">
      <path class="d" d="M208,256.31h126.2"/>
    </g>
    <g>
      <path class="e" d="M193.74,254.91l-.67.05a1.26,1.26,0,0,0-.25-.58,1,1,0,0,0-1.25-.11,1.55,1.55,0,0,0-.5.68,3.35,3.35,0,0,0-.19,1.28,1.53,1.53,0,0,1,1.34-.74,1.55,1.55,0,0,1,1.15.5,1.81,1.81,0,0,1,.47,1.29,2.05,2.05,0,0,1-.22,1,1.6,1.6,0,0,1-.62.69,1.72,1.72,0,0,1-.88.23,1.7,1.7,0,0,1-1.38-.62,3.11,3.11,0,0,1-.54-2.05,3.69,3.69,0,0,1,.59-2.32,1.71,1.71,0,0,1,1.39-.63,1.59,1.59,0,0,1,1.07.36A1.54,1.54,0,0,1,193.74,254.91ZM191,257.28a1.53,1.53,0,0,0,.15.67,1.12,1.12,0,0,0,.41.49,1.08,1.08,0,0,0,.57.17,1,1,0,0,0,.73-.35,1.33,1.33,0,0,0,.31-.94,1.29,1.29,0,0,0-.3-.9,1,1,0,0,0-.77-.33,1,1,0,0,0-.78.33A1.2,1.2,0,0,0,191,257.28Z"/>
      <path class="e" d="M194.52,256.35a4.87,4.87,0,0,1,.2-1.57,1.91,1.91,0,0,1,.59-.92,1.52,1.52,0,0,1,1-.32,1.73,1.73,0,0,1,.78.17,1.52,1.52,0,0,1,.55.52,2.81,2.81,0,0,1,.35.82,5.62,5.62,0,0,1,.12,1.3,5.17,5.17,0,0,1-.2,1.57,2,2,0,0,1-.6.92,1.48,1.48,0,0,1-1,.32,1.51,1.51,0,0,1-1.25-.57A3.65,3.65,0,0,1,194.52,256.35Zm.69,0a3.47,3.47,0,0,0,.32,1.81.93.93,0,0,0,.78.45,1,1,0,0,0,.79-.45,5.44,5.44,0,0,0,0-3.62,1,1,0,0,0-.8-.44.87.87,0,0,0-.74.39A3.54,3.54,0,0,0,195.21,256.35Z"/>
    </g>
  </g>
  <g>
    <g class="t">
      <path class="d" d="M208,230h126.2"/>
    </g>
    <g>
      <path class="e" d="M191.27,229.73a1.34,1.34,0,0,1-.62-.44,1.19,1.19,0,0,1-.2-.69,1.32,1.32,0,0,1,.43-1,1.81,1.81,0,0,1,2.31,0,1.33,1.33,0,0,1,.44,1,1.15,1.15,0,0,1-.2.67,1.31,1.31,0,0,1-.61.44,1.41,1.41,0,0,1,1,1.41,1.6,1.6,0,0,1-.5,1.19,1.83,1.83,0,0,1-1.32.48,1.81,1.81,0,0,1-1.31-.48,1.59,1.59,0,0,1-.5-1.21,1.46,1.46,0,0,1,.27-.9A1.33,1.33,0,0,1,191.27,229.73Zm-.13-1.15a.86.86,0,0,0,.25.64.89.89,0,0,0,.66.25.86.86,0,0,0,.64-.25.82.82,0,0,0,.25-.6.86.86,0,0,0-.26-.63.87.87,0,0,0-.64-.25.9.9,0,0,0-.65.25A.78.78,0,0,0,191.14,228.58Zm-.22,2.55a1.25,1.25,0,0,0,.14.56,1,1,0,0,0,.41.42,1.27,1.27,0,0,0,.58.14,1.09,1.09,0,0,0,.8-.31,1.15,1.15,0,0,0,0-1.6A1.13,1.13,0,0,0,192,230a1.08,1.08,0,0,0-1.11,1.11Z"/>
      <path class="e" d="M194.52,230a4.94,4.94,0,0,1,.2-1.58,1.93,1.93,0,0,1,.59-.91,1.53,1.53,0,0,1,1-.33,1.61,1.61,0,0,1,.78.18,1.44,1.44,0,0,1,.55.52,2.7,2.7,0,0,1,.35.82,5.56,5.56,0,0,1,.12,1.3,5.1,5.1,0,0,1-.2,1.56,1.93,1.93,0,0,1-.6.93,1.54,1.54,0,0,1-1,.32,1.51,1.51,0,0,1-1.25-.57A3.67,3.67,0,0,1,194.52,230Zm.69,0a3.5,3.5,0,0,0,.32,1.81.94.94,0,0,0,.78.44,1,1,0,0,0,.79-.45,5.41,5.41,0,0,0,0-3.61,1,1,0,0,0-.8-.45.86.86,0,0,0-.74.4A3.49,3.49,0,0,0,195.21,230Z"/>
    </g>
  </g>
  <g class="t">
    <path class="u" d="M212.18,309.23h33.66V284.45H212.18Z"/>
  </g>
  <g class="t">
    <path class="v" d="M254.25,292.65h33.66V268.79H254.25Z"/>
  </g>
  <g class="t">
    <path class="w" d="M296.32,269.84H330V241.78H296.32Z"/>
  </g>
  <g class="t">
    <path class="x" d="M229,309.23v8"/>
  </g>
  <g class="t">
    <path class="x" d="M229,284.45V266.31"/>
  </g>
  <g class="t">
    <path class="x" d="M220.6,317.22h16.83"/>
  </g>
  <g class="t">
    <path class="x" d="M220.6,266.31h16.83"/>
  </g>
  <g class="t">
    <path class="x" d="M271.08,292.65v4.54"/>
  </g>
  <g class="t">
    <path class="x" d="M271.08,268.79V239.72"/>
  </g>
  <g class="t">
    <path class="x" d="M262.67,297.19h16.82"/>
  </g>
  <g class="t">
    <path class="x" d="M262.67,239.72h16.82"/>
  </g>
  <g class="t">
    <path class="x" d="M313.15,269.84v26"/>
  </g>
  <g class="t">
    <path class="x" d="M313.15,241.78V224.85"/>
  </g>
  <g class="t">
    <path class="x" d="M304.74,295.85h16.82"/>
  </g>
  <g class="t">
    <path class="x" d="M304.74,224.85h16.82"/>
  </g>
  <g class="t">
    <path class="x" d="M212.18,299.78h33.66"/>
  </g>
  <g class="t">
    <path class="x" d="M254.25,276.28h33.66"/>
  </g>
  <g class="t">
    <path class="x" d="M296.32,259.12H330"/>
  </g>
  <path class="m" d="M208,340.9V219.32"/>
  <path class="m" d="M334.18,340.9V219.32"/>
  <path class="m" d="M208,340.9h126.2"/>
  <path class="m" d="M208,219.32h126.2"/>
  <g>
    <g class="t">
      <path class="y" d="M230.27,302.61a2.47,2.47,0,0,0,1.76-.73,2.49,2.49,0,0,0,0-3.54,2.5,2.5,0,0,0-3.53,0,2.5,2.5,0,0,0,1.77,4.27Z"/>
    </g>
    <g class="t">
      <path class="y" d="M230.82,312.91a2.51,2.51,0,1,0-1.76-.73A2.49,2.49,0,0,0,230.82,312.91Z"/>
    </g>
    <g class="t">
      <path class="y" d="M230.38,282.11a2.51,2.51,0,0,0,1.77-.73,2.51,2.51,0,0,0,0-3.54,2.5,2.5,0,1,0-1.77,4.27Z"/>
    </g>
    <g class="t">
      <path class="y" d="M225.32,280.53a2.49,2.49,0,1,0-1.77-.73A2.51,2.51,0,0,0,225.32,280.53Z"/>
    </g>
    <g class="t">
      <path class="y" d="M231.59,319.72a2.51,2.51,0,1,0-1.76-.73A2.49,2.49,0,0,0,231.59,319.72Z"/>
    </g>
    <g class="t">
      <path class="y" d="M230.29,312.05a2.52,2.52,0,0,0,1.77-.74,2.5,2.5,0,0,0,0-3.53,2.5,2.5,0,0,0-4.27,1.77,2.47,2.47,0,0,0,.73,1.76A2.52,2.52,0,0,0,230.29,312.05Z"/>
    </g>
    <g class="t">
      <path class="y" d="M225.44,301.41a2.49,2.49,0,1,0-1.77-.73A2.51,2.51,0,0,0,225.44,301.41Z"/>
    </g>
    <g class="t">
      <path class="y" d="M225,289.67a2.5,2.5,0,0,0,1.77-4.27,2.5,2.5,0,0,0-3.53,0,2.5,2.5,0,0,0,1.76,4.27Z"/>
    </g>
    <g class="t">
      <path class="y" d="M229.42,310.78a2.52,2.52,0,0,0,1.77-.74,2.5,2.5,0,0,0,0-3.53,2.5,2.5,0,0,0-4.27,1.77,2.47,2.47,0,0,0,.73,1.76A2.52,2.52,0,0,0,229.42,310.78Z"/>
    </g>
    <g class="t">
      <path class="y" d="M227.61,315.54a2.5,2.5,0,1,0-1.77-4.27,2.51,2.51,0,0,0,0,3.54A2.51,2.51,0,0,0,227.61,315.54Z"/>
    </g>
    <g class="t">
      <path class="y" d="M231.79,241.94a2.48,2.48,0,0,0,1.76-.73,2.49,2.49,0,0,0,0-3.54,2.5,2.5,0,1,0-1.76,4.27Z"/>
    </g>
    <g class="t">
      <path class="y" d="M232.5,302a2.5,2.5,0,0,0,1.76-4.27,2.5,2.5,0,0,0-3.53,3.54A2.53,2.53,0,0,0,232.5,302Z"/>
    </g>
    <g class="t">
      <path class="y" d="M230.51,318.49a2.5,2.5,0,0,0,1.77-4.27,2.51,2.51,0,0,0-3.54,0,2.5,2.5,0,0,0,1.77,4.27Z"/>
    </g>
    <g class="t">
      <path class="y" d="M229.68,302.9a2.5,2.5,0,1,0-1.76-4.27,2.49,2.49,0,0,0,0,3.54A2.47,2.47,0,0,0,229.68,302.9Z"/>
    </g>
    <g class="t">
      <path class="y" d="M230,286.41a2.52,2.52,0,0,0,1.77-.74,2.5,2.5,0,0,0-3.54-3.53,2.51,2.51,0,0,0,1.77,4.27Z"/>
    </g>
    <g class="t">
      <path class="y" d="M228.62,288.58a2.5,2.5,0,0,0,1.77-4.27,2.5,2.5,0,1,0-1.77,4.27Z"/>
    </g>
    <g class="t">
      <path class="y" d="M225.36,307.47a2.5,2.5,0,0,0,1.77-4.27,2.5,2.5,0,0,0-3.54,3.54A2.51,2.51,0,0,0,225.36,307.47Z"/>
    </g>
    <g class="t">
      <path class="y" d="M224.84,298.61a2.5,2.5,0,1,0-1.77-4.27,2.51,2.51,0,0,0,0,3.54A2.51,2.51,0,0,0,224.84,298.61Z"/>
    </g>
    <g class="t">
      <path class="y" d="M232.24,309.22a2.49,2.49,0,0,0,2.5-2.5,2.5,2.5,0,0,0-5,0,2.51,2.51,0,0,0,2.5,2.5Z"/>
    </g>
    <g class="t">
      <path class="y" d="M230.48,312.72a2.51,2.51,0,1,0-1.77-.74A2.47,2.47,0,0,0,230.48,312.72Z"/>
    </g>
    <g class="t">
      <path class="y" d="M231.52,268.81a2.49,2.49,0,1,0-1.77-.73A2.51,2.51,0,0,0,231.52,268.81Z"/>
    </g>
    <g class="t">
      <path class="y" d="M225.61,294a2.52,2.52,0,0,0,1.77-.74,2.5,2.5,0,0,0-3.54-3.53,2.51,2.51,0,0,0,1.77,4.27Z"/>
    </g>
    <g class="t">
      <path class="y" d="M232.1,271.55a2.47,2.47,0,0,0,1.76-.73,2.5,2.5,0,1,0-1.76.73Z"/>
    </g>
    <g class="t">
      <path class="y" d="M230.37,299.91a2.52,2.52,0,0,0,1.77-.74,2.5,2.5,0,0,0,0-3.53,2.5,2.5,0,0,0-4.27,1.77,2.47,2.47,0,0,0,.73,1.76A2.52,2.52,0,0,0,230.37,299.91Z"/>
    </g>
    <g class="t">
      <path class="y" d="M232.72,316.63a2.51,2.51,0,0,0,1.77-.73,2.51,2.51,0,0,0,0-3.54,2.5,2.5,0,1,0-1.77,4.27Z"/>
    </g>
    <g class="t">
      <path class="y" d="M228.13,283.39a2.52,2.52,0,0,0,1.77-.74,2.5,2.5,0,1,0-3.54,0A2.52,2.52,0,0,0,228.13,283.39Z"/>
    </g>
    <g class="t">
      <path class="y" d="M225.34,285.76a2.48,2.48,0,0,0,1.76-.73,2.49,2.49,0,0,0,0-3.54,2.5,2.5,0,1,0-1.76,4.27Z"/>
    </g>
    <g class="t">
      <path class="y" d="M226.67,305.54a2.47,2.47,0,0,0,1.76-.73,2.49,2.49,0,0,0,0-3.54,2.5,2.5,0,0,0-3.53,0,2.5,2.5,0,0,0,1.77,4.27Z"/>
    </g>
    <g class="t">
      <path class="y" d="M227.92,313.82a2.5,2.5,0,0,0,1.77-.74,2.5,2.5,0,0,0-3.53-3.53,2.51,2.51,0,0,0,1.76,4.27Z"/>
    </g>
    <g class="t">
      <path class="y" d="M226.45,304.85a2.51,2.51,0,0,0,2.5-2.5,2.5,2.5,0,1,0-4.27,1.77A2.53,2.53,0,0,0,226.45,304.85Z"/>
    </g>
  </g>
  <g>
    <g class="t">
      <path class="z" d="M271.55,272.85a2.5,2.5,0,0,0,0-5,2.5,2.5,0,1,0,0,5Z"/>
    </g>
    <g class="t">
      <path class="z" d="M271.67,271.37a2.52,2.52,0,0,0,1.77-.74,2.5,2.5,0,0,0,0-3.53,2.5,2.5,0,0,0-4.27,1.77,2.47,2.47,0,0,0,.73,1.76A2.52,2.52,0,0,0,271.67,271.37Z"/>
    </g>
    <g class="t">
      <path class="z" d="M268.59,275a2.51,2.51,0,0,0,1.77-.73,2.51,2.51,0,0,0,0-3.54,2.5,2.5,0,1,0-1.77,4.27Z"/>
    </g>
    <g class="t">
      <path class="z" d="M272,263.87a2.48,2.48,0,0,0,1.76-.73,2.49,2.49,0,0,0,0-3.54,2.5,2.5,0,1,0-1.76,4.27Z"/>
    </g>
    <g class="t">
      <path class="z" d="M267.27,271.27a2.49,2.49,0,1,0-1.77-.73A2.51,2.51,0,0,0,267.27,271.27Z"/>
    </g>
    <g class="t">
      <path class="z" d="M273.1,299.69a2.5,2.5,0,1,0-1.77-4.27,2.51,2.51,0,0,0,0,3.54A2.51,2.51,0,0,0,273.1,299.69Z"/>
    </g>
    <g class="t">
      <path class="z" d="M274.25,294a2.47,2.47,0,0,0,1.76-.73,2.49,2.49,0,0,0,0-3.54,2.5,2.5,0,0,0-3.53,0,2.5,2.5,0,0,0,1.77,4.27Z"/>
    </g>
    <g class="t">
      <path class="z" d="M275.08,263.43a2.51,2.51,0,0,0,1.77-.73,2.51,2.51,0,0,0,0-3.54,2.5,2.5,0,1,0-1.77,4.27Z"/>
    </g>
    <g class="t">
      <path class="z" d="M271.12,280.18a2.49,2.49,0,0,0,2.5-2.5,2.47,2.47,0,0,0-.73-1.76,2.5,2.5,0,1,0-1.77,4.26Z"/>
    </g>
    <g class="t">
      <path class="z" d="M271.6,285.22a2.52,2.52,0,0,0,1.77-.74,2.5,2.5,0,0,0,0-3.53,2.5,2.5,0,0,0-4.27,1.77,2.47,2.47,0,0,0,.73,1.76A2.52,2.52,0,0,0,271.6,285.22Z"/>
    </g>
    <g class="t">
      <path class="z" d="M272,295.53a2.5,2.5,0,1,0-1.76-4.27,2.49,2.49,0,0,0,0,3.54A2.48,2.48,0,0,0,272,295.53Z"/>
    </g>
    <g class="t">
      <path class="z" d="M272.11,242.22a2.49,2.49,0,1,0-1.77-.73A2.51,2.51,0,0,0,272.11,242.22Z"/>
    </g>
    <g class="t">
      <path class="z" d="M267.7,248a2.5,2.5,0,0,0,0-5,2.5,2.5,0,1,0,0,5Z"/>
    </g>
    <g class="t">
      <path class="z" d="M271,256a2.52,2.52,0,0,0,1.77-.74,2.5,2.5,0,1,0-3.54,0A2.52,2.52,0,0,0,271,256Z"/>
    </g>
    <g class="t">
      <path class="z" d="M268.32,295.7a2.5,2.5,0,0,0,1.77-4.27,2.51,2.51,0,0,0-3.54,0,2.5,2.5,0,0,0,1.77,4.27Z"/>
    </g>
    <g class="t">
      <path class="z" d="M275.26,257.43a2.49,2.49,0,1,0-1.77-.73A2.51,2.51,0,0,0,275.26,257.43Z"/>
    </g>
    <g class="t">
      <path class="z" d="M268.41,279.2a2.51,2.51,0,1,0-1.77-.74A2.47,2.47,0,0,0,268.41,279.2Z"/>
    </g>
    <g class="t">
      <path class="z" d="M269,277a2.5,2.5,0,0,0,1.76-4.27,2.5,2.5,0,0,0-3.53,3.54A2.53,2.53,0,0,0,269,277Z"/>
    </g>
    <g class="t">
      <path class="z" d="M275.17,263.43a2.49,2.49,0,0,0,2.5-2.5,2.47,2.47,0,0,0-.73-1.76,2.49,2.49,0,0,0-3.54,0,2.5,2.5,0,0,0,0,3.53A2.51,2.51,0,0,0,275.17,263.43Z"/>
    </g>
    <g class="t">
      <path class="z" d="M270.12,276.74a2.51,2.51,0,0,0,1.77-.73,2.5,2.5,0,0,0-3.54-3.54,2.5,2.5,0,0,0,1.77,4.27Z"/>
    </g>
    <g class="t">
      <path class="z" d="M274.79,278.7a2.5,2.5,0,0,0,1.77-4.27,2.5,2.5,0,1,0-1.77,4.27Z"/>
    </g>
    <g class="t">
      <path class="z" d="M273,274.83a2.55,2.55,0,0,0,1.77-.73,2.5,2.5,0,1,0-3.54,0A2.55,2.55,0,0,0,273,274.83Z"/>
    </g>
    <g class="t">
      <path class="z" d="M269.3,278.86a2.49,2.49,0,1,0-1.77-.73A2.51,2.51,0,0,0,269.3,278.86Z"/>
    </g>
    <g class="t">
      <path class="z" d="M267.8,280.9a2.49,2.49,0,1,0-1.77-.73A2.51,2.51,0,0,0,267.8,280.9Z"/>
    </g>
    <g class="t">
      <path class="z" d="M269,299.44a2.52,2.52,0,0,0,1.77-.74,2.5,2.5,0,0,0,0-3.53,2.5,2.5,0,1,0-1.77,4.27Z"/>
    </g>
    <g class="t">
      <path class="z" d="M274.87,288.41a2.5,2.5,0,0,0,1.77-4.27,2.51,2.51,0,0,0-3.54,0,2.5,2.5,0,0,0,1.77,4.27Z"/>
    </g>
    <g class="t">
      <path class="z" d="M268.25,295.85a2.49,2.49,0,1,0-1.77-.73A2.51,2.51,0,0,0,268.25,295.85Z"/>
    </g>
    <g class="t">
      <path class="z" d="M271.08,337.88a2.51,2.51,0,1,0-1.77-.74A2.49,2.49,0,0,0,271.08,337.88Z"/>
    </g>
    <g class="t">
      <path class="z" d="M273.29,337.88a2.5,2.5,0,1,0-1.77-4.27,2.5,2.5,0,0,0,0,3.53A2.52,2.52,0,0,0,273.29,337.88Z"/>
    </g>
    <g class="t">
      <path class="z" d="M270.59,337.88a2.53,2.53,0,1,0-1.76-.74A2.5,2.5,0,0,0,270.59,337.88Z"/>
    </g>
  </g>
  <g>
    <g class="t">
      <path class="aa" d="M309.46,229.81a2.5,2.5,0,1,0-1.77-4.27,2.51,2.51,0,0,0,0,3.54A2.51,2.51,0,0,0,309.46,229.81Z"/>
    </g>
    <g class="t">
      <path class="aa" d="M310.36,260.27a2.55,2.55,0,0,0,1.77-.73,2.5,2.5,0,1,0-3.54,0A2.55,2.55,0,0,0,310.36,260.27Z"/>
    </g>
    <g class="t">
      <path class="aa" d="M316,256.83a2.5,2.5,0,1,0-1.76-4.27,2.49,2.49,0,0,0,0,3.54A2.47,2.47,0,0,0,316,256.83Z"/>
    </g>
    <g class="t">
      <path class="aa" d="M311.75,274.77a2.5,2.5,0,1,0-1.77-4.26,2.5,2.5,0,0,0,0,3.53A2.51,2.51,0,0,0,311.75,274.77Z"/>
    </g>
    <g class="t">
      <path class="aa" d="M313.29,259.05a2.55,2.55,0,0,0,1.77-.73,2.5,2.5,0,1,0-3.54,0A2.55,2.55,0,0,0,313.29,259.05Z"/>
    </g>
    <g class="t">
      <path class="aa" d="M311.62,227.35a2.53,2.53,0,1,0-1.76-.74A2.5,2.5,0,0,0,311.62,227.35Z"/>
    </g>
    <g class="t">
      <path class="aa" d="M317.17,270.81a2.49,2.49,0,1,0-1.77-.73A2.51,2.51,0,0,0,317.17,270.81Z"/>
    </g>
    <g class="t">
      <path class="aa" d="M315.59,272.47a2.49,2.49,0,1,0-1.77-.73A2.51,2.51,0,0,0,315.59,272.47Z"/>
    </g>
    <g class="t">
      <path class="aa" d="M313.92,263.43a2.5,2.5,0,0,0,1.77-.74,2.5,2.5,0,0,0-1.77-4.26,2.5,2.5,0,0,0,0,5Z"/>
    </g>
    <g class="t">
      <path class="aa" d="M314.83,241.33a2.5,2.5,0,0,0,1.77-.74,2.5,2.5,0,0,0-1.77-4.26,2.5,2.5,0,0,0,0,5Z"/>
    </g>
    <g class="t">
      <path class="aa" d="M314.38,265a2.49,2.49,0,0,0,2.5-2.5,2.5,2.5,0,0,0-5,0,2.51,2.51,0,0,0,2.5,2.5Z"/>
    </g>
    <g class="t">
      <path class="aa" d="M311.49,263a2.51,2.51,0,0,0,1.77-.73,2.51,2.51,0,0,0,0-3.54,2.5,2.5,0,1,0-1.77,4.27Z"/>
    </g>
    <g class="t">
      <path class="aa" d="M315.89,282.88a2.51,2.51,0,1,0-1.77-.74A2.47,2.47,0,0,0,315.89,282.88Z"/>
    </g>
    <g class="t">
      <path class="aa" d="M309.78,256.24a2.48,2.48,0,0,0,1.76-.73,2.5,2.5,0,1,0-3.53,0A2.49,2.49,0,0,0,309.78,256.24Z"/>
    </g>
    <g class="t">
      <path class="aa" d="M313.09,271.94a2.52,2.52,0,0,0,1.77-.74,2.5,2.5,0,0,0,0-3.53,2.5,2.5,0,0,0-4.27,1.77,2.47,2.47,0,0,0,.73,1.76A2.52,2.52,0,0,0,313.09,271.94Z"/>
    </g>
    <g class="t">
      <path class="aa" d="M316.14,336.54a2.49,2.49,0,0,0,2.5-2.5,2.5,2.5,0,0,0-5,0,2.51,2.51,0,0,0,2.5,2.5Z"/>
    </g>
    <g class="t">
      <path class="aa" d="M311,228.72a2.51,2.51,0,1,0-1.76-.73A2.49,2.49,0,0,0,311,228.72Z"/>
    </g>
    <g class="t">
      <path class="aa" d="M310.89,258.58a2.51,2.51,0,1,0-1.77-.74A2.47,2.47,0,0,0,310.89,258.58Z"/>
    </g>
    <g class="t">
      <path class="aa" d="M309.27,298.35a2.5,2.5,0,1,0-1.77-4.27,2.51,2.51,0,0,0,1.77,4.27Z"/>
    </g>
    <g class="t">
      <path class="aa" d="M310.7,263.59a2.51,2.51,0,1,0-1.77-.74A2.47,2.47,0,0,0,310.7,263.59Z"/>
    </g>
    <g class="t">
      <path class="aa" d="M315.15,229.31a2.51,2.51,0,0,0,2.5-2.5,2.5,2.5,0,1,0-4.27,1.77A2.53,2.53,0,0,0,315.15,229.31Z"/>
    </g>
    <g class="t">
      <path class="aa" d="M309.86,244.65a2.49,2.49,0,1,0-1.77-.73A2.51,2.51,0,0,0,309.86,244.65Z"/>
    </g>
    <g class="t">
      <path class="aa" d="M313.5,244.16a2.51,2.51,0,0,0,1.77-.73,2.51,2.51,0,0,0,0-3.54,2.5,2.5,0,1,0-1.77,4.27Z"/>
    </g>
    <g class="t">
      <path class="aa" d="M313.61,259a2.5,2.5,0,0,0,1.77-4.27,2.51,2.51,0,0,0-3.54,0,2.5,2.5,0,0,0,1.77,4.27Z"/>
    </g>
    <g class="t">
      <path class="aa" d="M315.85,274.45a2.5,2.5,0,0,0,1.77-4.27,2.51,2.51,0,0,0-4.27,1.77,2.5,2.5,0,0,0,.74,1.77A2.47,2.47,0,0,0,315.85,274.45Z"/>
    </g>
    <g class="t">
      <path class="aa" d="M309.38,239.87a2.51,2.51,0,1,0-1.76-.73A2.49,2.49,0,0,0,309.38,239.87Z"/>
    </g>
    <g class="t">
      <path class="aa" d="M313,267a2.49,2.49,0,1,0-1.77-.73A2.51,2.51,0,0,0,313,267Z"/>
    </g>
    <g class="t">
      <path class="aa" d="M309.57,238.22A2.5,2.5,0,1,0,307.8,234a2.5,2.5,0,0,0,0,3.53A2.52,2.52,0,0,0,309.57,238.22Z"/>
    </g>
    <g class="t">
      <path class="aa" d="M317,337.88a2.5,2.5,0,1,0,0-5,2.47,2.47,0,0,0-1.76.73,2.51,2.51,0,0,0,1.76,4.27Z"/>
    </g>
    <g class="t">
      <path class="aa" d="M316.91,337.88a2.5,2.5,0,1,0,0-5,2.47,2.47,0,0,0-1.76.73,2.51,2.51,0,0,0,1.76,4.27Z"/>
    </g>
  </g>
  <path class="e" d="M186.57,201.88l1.7.54a3.8,3.8,0,0,1-1.3,2.12,4.09,4.09,0,0,1-5.16-.5,4.5,4.5,0,0,1-1.12-3.23,4.76,4.76,0,0,1,1.12-3.38,3.85,3.85,0,0,1,2.95-1.2,3.63,3.63,0,0,1,2.6.94,3.43,3.43,0,0,1,.89,1.6l-1.74.42a1.8,1.8,0,0,0-1.83-1.46,2,2,0,0,0-1.58.69,3.44,3.44,0,0,0-.6,2.25,3.7,3.7,0,0,0,.59,2.36,2,2,0,0,0,1.55.7,1.72,1.72,0,0,0,1.2-.45A2.59,2.59,0,0,0,186.57,201.88Z"/>
  <text class="ab" transform="translate(47.52 201.8)">Cumulative phospho-signal<tspan x="10" y="10.8">MSE of 2000 peptides</tspan></text>
  <g>
    <path d="M206,201.43l.86.22a2.86,2.86,0,0,1-1,1.6,2.63,2.63,0,0,1-1.7.55,3.1,3.1,0,0,1-1.7-.42,2.77,2.77,0,0,1-1-1.23,4.34,4.34,0,0,1-.34-1.73,3.77,3.77,0,0,1,.39-1.76,2.64,2.64,0,0,1,1.09-1.13,3.17,3.17,0,0,1,1.56-.39,2.48,2.48,0,0,1,2.55,1.87l-.84.2a2,2,0,0,0-.65-1,1.73,1.73,0,0,0-1.08-.32,2.16,2.16,0,0,0-1.24.35,2,2,0,0,0-.7,1,4,4,0,0,0-.2,1.24,3.93,3.93,0,0,0,.24,1.43,1.85,1.85,0,0,0,.74.92,2.14,2.14,0,0,0,1.1.3,1.85,1.85,0,0,0,1.21-.41A2.11,2.11,0,0,0,206,201.43Z"/>
    <path d="M210.9,203.69V203a1.69,1.69,0,0,1-1.48.79,2,2,0,0,1-.77-.15,1.26,1.26,0,0,1-.53-.4,1.36,1.36,0,0,1-.24-.59,3.36,3.36,0,0,1,0-.74V199h.79v2.59a4,4,0,0,0,0,.84.85.85,0,0,0,.31.49,1,1,0,0,0,.6.17,1.32,1.32,0,0,0,.67-.18,1,1,0,0,0,.44-.5,2.37,2.37,0,0,0,.13-.91V199h.79v4.67Z"/>
    <path d="M212.85,203.69V199h.71v.66a1.53,1.53,0,0,1,.58-.55,1.65,1.65,0,0,1,.83-.21,1.55,1.55,0,0,1,.85.21,1.21,1.21,0,0,1,.47.6,1.68,1.68,0,0,1,1.44-.81,1.4,1.4,0,0,1,1.07.38,1.65,1.65,0,0,1,.37,1.19v3.2h-.78v-2.94a2.15,2.15,0,0,0-.08-.68.62.62,0,0,0-.28-.34.81.81,0,0,0-.47-.13,1.11,1.11,0,0,0-.82.33,1.44,1.44,0,0,0-.33,1v2.71h-.79v-3a1.32,1.32,0,0,0-.19-.79.72.72,0,0,0-.63-.27,1.12,1.12,0,0,0-.62.18,1,1,0,0,0-.41.51,2.79,2.79,0,0,0-.13,1v2.42Z"/>
    <path d="M223.41,203.69V203a1.71,1.71,0,0,1-1.48.79,2,2,0,0,1-.78-.15,1.32,1.32,0,0,1-.53-.4,1.66,1.66,0,0,1-.24-.59,4.14,4.14,0,0,1,0-.74V199h.79v2.59a4.93,4.93,0,0,0,0,.84.82.82,0,0,0,.32.49,1,1,0,0,0,.59.17,1.32,1.32,0,0,0,.67-.18,1,1,0,0,0,.44-.5,2.37,2.37,0,0,0,.13-.91V199h.79v4.67Z"/>
    <path d="M225.34,203.69v-6.44h.79v6.44Z"/>
    <path d="M230.4,203.11a2.87,2.87,0,0,1-.85.53,2.49,2.49,0,0,1-.87.15,1.69,1.69,0,0,1-1.18-.37,1.23,1.23,0,0,1-.42-1,1.34,1.34,0,0,1,.16-.63,1.19,1.19,0,0,1,.41-.45,1.85,1.85,0,0,1,.57-.26,6.05,6.05,0,0,1,.7-.12,8,8,0,0,0,1.41-.27c0-.11,0-.18,0-.21a.87.87,0,0,0-.23-.68,1.31,1.31,0,0,0-.9-.27,1.37,1.37,0,0,0-.82.2,1.21,1.21,0,0,0-.4.69l-.77-.11a2,2,0,0,1,.35-.8,1.52,1.52,0,0,1,.7-.47,3.07,3.07,0,0,1,1.06-.16,2.69,2.69,0,0,1,1,.14,1.28,1.28,0,0,1,.55.35,1.22,1.22,0,0,1,.24.54,4,4,0,0,1,0,.73v1a12.19,12.19,0,0,0,.05,1.4,2,2,0,0,0,.2.56h-.82A1.46,1.46,0,0,1,230.4,203.11Zm-.07-1.76a6.91,6.91,0,0,1-1.29.3,3.06,3.06,0,0,0-.69.15.72.72,0,0,0-.31.26.63.63,0,0,0-.11.38.66.66,0,0,0,.24.52,1,1,0,0,0,.7.21,1.67,1.67,0,0,0,.81-.19,1.25,1.25,0,0,0,.52-.55,1.82,1.82,0,0,0,.13-.79Z"/>
    <path d="M234.08,203l.12.7a2.7,2.7,0,0,1-.6.07,1.26,1.26,0,0,1-.67-.14.79.79,0,0,1-.33-.35,2.69,2.69,0,0,1-.1-.94v-2.68h-.58V199h.58v-1.15l.79-.48V199h.79v.62h-.79v2.73a1.3,1.3,0,0,0,0,.43.31.31,0,0,0,.14.16.62.62,0,0,0,.27,0Z"/>
    <path d="M234.86,198.16v-.91h.79v.91Zm0,5.53V199h.79v4.67Z"/>
    <path d="M238.15,203.69,236.38,199h.83l1,2.8c.1.3.2.61.29.94.07-.25.17-.54.3-.89l1-2.85h.81l-1.77,4.67Z"/>
    <path d="M244.55,202.19l.82.1a2,2,0,0,1-.72,1.11,2.44,2.44,0,0,1-3-.24,2.45,2.45,0,0,1-.6-1.76,2.59,2.59,0,0,1,.61-1.83,2,2,0,0,1,1.57-.65,2,2,0,0,1,1.53.63,2.54,2.54,0,0,1,.6,1.8,2,2,0,0,1,0,.21h-3.48a1.83,1.83,0,0,0,.44,1.18,1.28,1.28,0,0,0,1,.4,1.25,1.25,0,0,0,.75-.22A1.61,1.61,0,0,0,244.55,202.19ZM242,200.91h2.6a1.51,1.51,0,0,0-.3-.89,1.22,1.22,0,0,0-1-.45,1.24,1.24,0,0,0-.91.36A1.4,1.4,0,0,0,242,200.91Z"/>
    <path d="M248.67,201.62l.81-.07a1.89,1.89,0,0,0,.26.79,1.4,1.4,0,0,0,.65.5,2.46,2.46,0,0,0,1,.19,2.28,2.28,0,0,0,.86-.14,1.21,1.21,0,0,0,.56-.4.93.93,0,0,0,.18-.55.88.88,0,0,0-.17-.53,1.36,1.36,0,0,0-.58-.38,11.27,11.27,0,0,0-1.15-.31,6.18,6.18,0,0,1-1.25-.41,1.75,1.75,0,0,1-.68-.6,1.44,1.44,0,0,1-.23-.8,1.6,1.6,0,0,1,.28-.91,1.64,1.64,0,0,1,.81-.64,3,3,0,0,1,1.18-.22,3.08,3.08,0,0,1,1.26.23,1.74,1.74,0,0,1,.84.68,1.86,1.86,0,0,1,.32,1l-.82.06a1.32,1.32,0,0,0-.44-.92,1.75,1.75,0,0,0-1.13-.31,1.77,1.77,0,0,0-1.12.28.85.85,0,0,0-.36.69.76.76,0,0,0,.25.57,3.54,3.54,0,0,0,1.29.46,7.46,7.46,0,0,1,1.42.41,1.88,1.88,0,0,1,.83.65,1.61,1.61,0,0,1,.27.92,1.8,1.8,0,0,1-.29,1,2,2,0,0,1-.85.71,3.08,3.08,0,0,1-1.24.25,3.67,3.67,0,0,1-1.46-.26,2,2,0,0,1-.93-.76A2.21,2.21,0,0,1,248.67,201.62Z"/>
    <path d="M258.06,202.19l.82.1a2,2,0,0,1-.72,1.11,2.16,2.16,0,0,1-1.33.39,2.14,2.14,0,0,1-1.63-.63,2.45,2.45,0,0,1-.6-1.76,2.59,2.59,0,0,1,.61-1.83,2,2,0,0,1,1.57-.65,2,2,0,0,1,1.53.63,2.54,2.54,0,0,1,.59,1.8v.21h-3.48a1.78,1.78,0,0,0,.44,1.18,1.28,1.28,0,0,0,1,.4,1.2,1.2,0,0,0,.74-.22A1.54,1.54,0,0,0,258.06,202.19Zm-2.6-1.28h2.61a1.59,1.59,0,0,0-.3-.89,1.22,1.22,0,0,0-1-.45,1.28,1.28,0,0,0-.92.36A1.5,1.5,0,0,0,255.46,200.91Z"/>
    <path d="M262.85,205.48v-2.29a1.38,1.38,0,0,1-.52.43,1.45,1.45,0,0,1-.7.17,1.89,1.89,0,0,1-1.44-.66,2.66,2.66,0,0,1-.59-1.82,3.15,3.15,0,0,1,.24-1.26,1.85,1.85,0,0,1,1.72-1.13,1.56,1.56,0,0,1,1.37.73V199h.71v6.46Zm-2.44-4.14a2,2,0,0,0,.38,1.35,1.14,1.14,0,0,0,.9.45,1.11,1.11,0,0,0,.87-.42,2,2,0,0,0,.37-1.31,2.14,2.14,0,0,0-.39-1.4,1.16,1.16,0,0,0-.9-.47,1.08,1.08,0,0,0-.87.44A2.11,2.11,0,0,0,260.41,201.34Z"/>
    <path d="M267.94,203.69V203a1.72,1.72,0,0,1-1.49.79,2,2,0,0,1-.77-.15,1.32,1.32,0,0,1-.53-.4,1.5,1.5,0,0,1-.24-.59,4.14,4.14,0,0,1-.05-.74V199h.79v2.59a4.93,4.93,0,0,0,.05.84.82.82,0,0,0,.32.49,1,1,0,0,0,.59.17,1.32,1.32,0,0,0,.67-.18,1,1,0,0,0,.44-.5,2.37,2.37,0,0,0,.13-.91V199h.79v4.67Z"/>
    <path d="M273.08,202.19l.82.1a2,2,0,0,1-.72,1.11,2.19,2.19,0,0,1-1.34.39,2.13,2.13,0,0,1-1.62-.63,2.45,2.45,0,0,1-.6-1.76,2.55,2.55,0,0,1,.61-1.83,2.2,2.2,0,0,1,3.1,0,2.58,2.58,0,0,1,.59,1.8v.21h-3.48a1.83,1.83,0,0,0,.43,1.18,1.3,1.3,0,0,0,1,.4,1.22,1.22,0,0,0,.74-.22A1.62,1.62,0,0,0,273.08,202.19Zm-2.6-1.28h2.61a1.67,1.67,0,0,0-.3-.89,1.22,1.22,0,0,0-1-.45,1.27,1.27,0,0,0-.92.36A1.45,1.45,0,0,0,270.48,200.91Z"/>
    <path d="M274.89,203.69V199h.71v.67a1.66,1.66,0,0,1,1.49-.77,2,2,0,0,1,.77.15,1.17,1.17,0,0,1,.53.4,1.53,1.53,0,0,1,.25.58,4.58,4.58,0,0,1,0,.77v2.87h-.79v-2.84a2.17,2.17,0,0,0-.09-.72.72.72,0,0,0-.33-.38,1,1,0,0,0-.55-.15,1.28,1.28,0,0,0-.87.32,1.57,1.57,0,0,0-.37,1.22v2.55Z"/>
    <path d="M282.94,202l.78.1a2,2,0,0,1-.66,1.26,1.91,1.91,0,0,1-1.29.45,2,2,0,0,1-1.54-.62,2.59,2.59,0,0,1-.58-1.8,3.21,3.21,0,0,1,.25-1.32,1.76,1.76,0,0,1,.76-.85,2.3,2.3,0,0,1,1.12-.28,1.89,1.89,0,0,1,1.24.38,1.78,1.78,0,0,1,.62,1.09l-.77.12a1.26,1.26,0,0,0-.39-.71,1,1,0,0,0-.67-.23,1.21,1.21,0,0,0-1,.43,2,2,0,0,0-.38,1.35,2.12,2.12,0,0,0,.36,1.37,1.21,1.21,0,0,0,.95.42,1.07,1.07,0,0,0,.77-.28A1.42,1.42,0,0,0,282.94,202Z"/>
    <path d="M287.59,202.19l.82.1a2,2,0,0,1-.72,1.11,2.17,2.17,0,0,1-1.34.39,2.13,2.13,0,0,1-1.62-.63,2.45,2.45,0,0,1-.6-1.76,2.55,2.55,0,0,1,.61-1.83,2.2,2.2,0,0,1,3.1,0,2.58,2.58,0,0,1,.59,1.8v.21H285a1.83,1.83,0,0,0,.43,1.18,1.3,1.3,0,0,0,1,.4,1.2,1.2,0,0,0,.74-.22A1.54,1.54,0,0,0,287.59,202.19Zm-2.6-1.28h2.61a1.67,1.67,0,0,0-.3-.89,1.22,1.22,0,0,0-1-.45,1.27,1.27,0,0,0-.92.36A1.45,1.45,0,0,0,285,200.91Z"/>
    <path d="M292,203.69v-6.44h4.66V198h-3.81v2h3.56v.76h-3.56v2.19h4v.76Z"/>
    <path d="M297.9,203.69V199h.71v.67a1.68,1.68,0,0,1,1.49-.77,2,2,0,0,1,.78.15,1.14,1.14,0,0,1,.52.4,1.53,1.53,0,0,1,.25.58,4.58,4.58,0,0,1,0,.77v2.87h-.79v-2.84a2.17,2.17,0,0,0-.09-.72.72.72,0,0,0-.33-.38,1,1,0,0,0-.55-.15,1.3,1.3,0,0,0-.87.32,1.61,1.61,0,0,0-.37,1.22v2.55Z"/>
    <path d="M302.9,203.69V199h.71v.71a1.88,1.88,0,0,1,.5-.65.88.88,0,0,1,.51-.16,1.5,1.5,0,0,1,.81.25l-.27.74a1.07,1.07,0,0,0-.58-.18.76.76,0,0,0-.46.16.84.84,0,0,0-.3.43,3,3,0,0,0-.13.93v2.44Z"/>
    <path d="M305.91,198.16v-.91h.79v.91Zm0,5.53V199h.79v4.67Z"/>
    <path d="M311,202l.78.1a2,2,0,0,1-.66,1.26,1.91,1.91,0,0,1-1.29.45,2,2,0,0,1-1.54-.62,2.59,2.59,0,0,1-.58-1.8,3.38,3.38,0,0,1,.25-1.32,1.73,1.73,0,0,1,.77-.85,2.23,2.23,0,0,1,1.11-.28,1.89,1.89,0,0,1,1.24.38,1.73,1.73,0,0,1,.62,1.09l-.77.12a1.26,1.26,0,0,0-.39-.71,1,1,0,0,0-.67-.23,1.21,1.21,0,0,0-1,.43,2,2,0,0,0-.37,1.35,2.12,2.12,0,0,0,.36,1.37,1.17,1.17,0,0,0,.94.42,1.07,1.07,0,0,0,.77-.28A1.42,1.42,0,0,0,311,202Z"/>
    <path d="M312.4,203.69v-6.44h.79v2.31a1.77,1.77,0,0,1,1.4-.64,1.93,1.93,0,0,1,.9.2,1.21,1.21,0,0,1,.55.57,2.55,2.55,0,0,1,.17,1v3h-.8v-3a1.23,1.23,0,0,0-.25-.86,1,1,0,0,0-.73-.27,1.31,1.31,0,0,0-.66.18,1,1,0,0,0-.44.49,2.25,2.25,0,0,0-.14.87v2.55Z"/>
    <path d="M317.41,203.69V199h.71v.66a1.53,1.53,0,0,1,.58-.55,1.63,1.63,0,0,1,.83-.21,1.55,1.55,0,0,1,.85.21,1.21,1.21,0,0,1,.47.6,1.68,1.68,0,0,1,1.44-.81,1.4,1.4,0,0,1,1.07.38,1.65,1.65,0,0,1,.37,1.19v3.2H323v-2.94a2.15,2.15,0,0,0-.08-.68.62.62,0,0,0-.28-.34.81.81,0,0,0-.47-.13,1.11,1.11,0,0,0-.82.33,1.44,1.44,0,0,0-.33,1v2.71h-.79v-3a1.32,1.32,0,0,0-.19-.79.72.72,0,0,0-.63-.27,1.12,1.12,0,0,0-.62.18,1,1,0,0,0-.41.51,2.79,2.79,0,0,0-.13,1v2.42Z"/>
    <path d="M328.1,202.19l.82.1a2,2,0,0,1-.72,1.11,2.16,2.16,0,0,1-1.33.39,2.14,2.14,0,0,1-1.63-.63,2.45,2.45,0,0,1-.6-1.76,2.55,2.55,0,0,1,.61-1.83,2,2,0,0,1,1.57-.65,2,2,0,0,1,1.53.63,2.54,2.54,0,0,1,.59,1.8v.21h-3.48a1.78,1.78,0,0,0,.44,1.18,1.28,1.28,0,0,0,1,.4,1.2,1.2,0,0,0,.74-.22A1.54,1.54,0,0,0,328.1,202.19Zm-2.6-1.28h2.61a1.59,1.59,0,0,0-.3-.89,1.22,1.22,0,0,0-1-.45,1.28,1.28,0,0,0-.92.36A1.5,1.5,0,0,0,325.5,200.91Z"/>
    <path d="M329.91,203.69V199h.71v.67a1.68,1.68,0,0,1,1.49-.77,2,2,0,0,1,.78.15,1.14,1.14,0,0,1,.52.4,1.53,1.53,0,0,1,.25.58,4.58,4.58,0,0,1,0,.77v2.87h-.79v-2.84a2.17,2.17,0,0,0-.09-.72.72.72,0,0,0-.33-.38,1,1,0,0,0-.55-.15,1.32,1.32,0,0,0-.87.32,1.61,1.61,0,0,0-.37,1.22v2.55Z"/>
    <path d="M336.65,203l.11.7a2.7,2.7,0,0,1-.6.07,1.26,1.26,0,0,1-.67-.14.79.79,0,0,1-.33-.35,3,3,0,0,1-.1-.94v-2.68h-.58V199h.58v-1.15l.79-.48V199h.8v.62h-.8v2.73a1.3,1.3,0,0,0,0,.43.31.31,0,0,0,.14.16.62.62,0,0,0,.27,0Z"/>
    <path d="M229.67,213.91a3,3,0,0,1-.85.53,2.49,2.49,0,0,1-.87.15,1.69,1.69,0,0,1-1.18-.37,1.31,1.31,0,0,1-.26-1.59,1.19,1.19,0,0,1,.41-.45,1.85,1.85,0,0,1,.57-.26,6.05,6.05,0,0,1,.7-.12,8,8,0,0,0,1.41-.27c0-.11,0-.18,0-.21a.87.87,0,0,0-.23-.68,1.31,1.31,0,0,0-.9-.27,1.37,1.37,0,0,0-.82.2,1.21,1.21,0,0,0-.4.69l-.77-.11a2,2,0,0,1,.35-.8,1.54,1.54,0,0,1,.69-.47,3.15,3.15,0,0,1,1.06-.16,2.71,2.71,0,0,1,1,.14,1.12,1.12,0,0,1,.79.89,4,4,0,0,1,0,.73v1.05a12.19,12.19,0,0,0,0,1.4,1.71,1.71,0,0,0,.2.56h-.83A1.65,1.65,0,0,1,229.67,213.91Zm-.07-1.76a6.91,6.91,0,0,1-1.29.3,3.06,3.06,0,0,0-.69.15.67.67,0,0,0-.31.26.63.63,0,0,0-.11.38.66.66,0,0,0,.24.52,1,1,0,0,0,.7.22,1.68,1.68,0,0,0,.81-.2,1.25,1.25,0,0,0,.52-.55,1.82,1.82,0,0,0,.13-.79Z"/>
    <path d="M234.67,212.78l.78.1a2,2,0,0,1-.65,1.26,1.91,1.91,0,0,1-1.29.45A2,2,0,0,1,232,214a2.55,2.55,0,0,1-.59-1.8,3.2,3.2,0,0,1,.26-1.32,1.71,1.71,0,0,1,.76-.85,2.23,2.23,0,0,1,1.11-.28,1.94,1.94,0,0,1,1.25.38,1.77,1.77,0,0,1,.61,1.09l-.76.12a1.39,1.39,0,0,0-.39-.71,1.05,1.05,0,0,0-.68-.23,1.21,1.21,0,0,0-1,.43,2,2,0,0,0-.37,1.35,2.12,2.12,0,0,0,.36,1.37,1.17,1.17,0,0,0,.94.42,1.12,1.12,0,0,0,.78-.28A1.44,1.44,0,0,0,234.67,212.78Z"/>
    <path d="M236.12,214.49v-4.67h.71v.71a1.88,1.88,0,0,1,.5-.65.88.88,0,0,1,.51-.16,1.5,1.5,0,0,1,.81.25l-.27.74a1.09,1.09,0,0,0-.58-.18.81.81,0,0,0-.47.16.89.89,0,0,0-.29.43,3,3,0,0,0-.13.93v2.44Z"/>
    <path d="M238.83,212.16a2.39,2.39,0,0,1,.72-1.92,2.15,2.15,0,0,1,1.47-.52,2.09,2.09,0,0,1,1.57.63,2.38,2.38,0,0,1,.61,1.74,3.12,3.12,0,0,1-.27,1.42,1.9,1.9,0,0,1-.79.8,2.27,2.27,0,0,1-1.12.28,2.1,2.1,0,0,1-1.59-.62A2.53,2.53,0,0,1,238.83,212.16Zm.81,0a2,2,0,0,0,.39,1.34,1.24,1.24,0,0,0,1,.44,1.27,1.27,0,0,0,1-.44,2.05,2.05,0,0,0,.39-1.37,1.88,1.88,0,0,0-.4-1.31,1.23,1.23,0,0,0-1-.45,1.25,1.25,0,0,0-1,.45A2,2,0,0,0,239.64,212.16Z"/>
    <path d="M243.81,213.1l.78-.13a1.09,1.09,0,0,0,.37.72,1.26,1.26,0,0,0,.84.25,1.21,1.21,0,0,0,.81-.22.66.66,0,0,0,.27-.52.47.47,0,0,0-.24-.42,3.56,3.56,0,0,0-.81-.27,6.32,6.32,0,0,1-1.2-.38,1.11,1.11,0,0,1-.51-.44,1.19,1.19,0,0,1,0-1.21,1.26,1.26,0,0,1,.39-.44,1.56,1.56,0,0,1,.5-.23,2.48,2.48,0,0,1,.68-.09,2.63,2.63,0,0,1,1,.16,1.28,1.28,0,0,1,.61.42,1.69,1.69,0,0,1,.27.73l-.77.1a.85.85,0,0,0-.31-.56,1.06,1.06,0,0,0-.71-.2,1.32,1.32,0,0,0-.78.18.53.53,0,0,0-.23.42.44.44,0,0,0,.1.28.72.72,0,0,0,.3.21l.7.2A8.77,8.77,0,0,1,247,212a1.18,1.18,0,0,1,.52.41,1.14,1.14,0,0,1,.19.68,1.34,1.34,0,0,1-.23.74,1.44,1.44,0,0,1-.67.54,2.38,2.38,0,0,1-1,.19,2.21,2.21,0,0,1-1.39-.37A1.79,1.79,0,0,1,243.81,213.1Z"/>
    <path d="M248.31,213.1l.78-.13a1.09,1.09,0,0,0,.37.72,1.26,1.26,0,0,0,.84.25,1.21,1.21,0,0,0,.81-.22.66.66,0,0,0,.27-.52.47.47,0,0,0-.24-.42,3.56,3.56,0,0,0-.81-.27,6.32,6.32,0,0,1-1.2-.38,1.11,1.11,0,0,1-.51-.44,1.19,1.19,0,0,1,0-1.21A1.26,1.26,0,0,1,249,210a1.56,1.56,0,0,1,.5-.23,2.48,2.48,0,0,1,.68-.09,2.63,2.63,0,0,1,1,.16,1.28,1.28,0,0,1,.61.42,1.69,1.69,0,0,1,.27.73l-.77.1a.85.85,0,0,0-.31-.56,1.06,1.06,0,0,0-.71-.2,1.32,1.32,0,0,0-.78.18.53.53,0,0,0-.23.42.44.44,0,0,0,.1.28.72.72,0,0,0,.3.21l.7.2a8.77,8.77,0,0,1,1.17.37,1.18,1.18,0,0,1,.52.41,1.14,1.14,0,0,1,.19.68,1.34,1.34,0,0,1-.23.74,1.44,1.44,0,0,1-.67.54,2.38,2.38,0,0,1-1,.19,2.21,2.21,0,0,1-1.39-.37A1.79,1.79,0,0,1,248.31,213.1Z"/>
    <path d="M258.67,212.78l.78.1a2,2,0,0,1-.65,1.26,1.91,1.91,0,0,1-1.29.45A2,2,0,0,1,256,214a2.55,2.55,0,0,1-.58-1.8,3.21,3.21,0,0,1,.25-1.32,1.76,1.76,0,0,1,.76-.85,2.23,2.23,0,0,1,1.11-.28,1.92,1.92,0,0,1,1.25.38,1.78,1.78,0,0,1,.62,1.09l-.77.12a1.26,1.26,0,0,0-.39-.71,1,1,0,0,0-.67-.23,1.23,1.23,0,0,0-1,.43,2,2,0,0,0-.37,1.35,2.12,2.12,0,0,0,.36,1.37,1.17,1.17,0,0,0,.94.42,1.12,1.12,0,0,0,.78-.28A1.39,1.39,0,0,0,258.67,212.78Z"/>
    <path d="M260.11,214.49v-6.44h.79v6.44Z"/>
    <path d="M265.19,214.49v-.69a1.71,1.71,0,0,1-1.48.79,1.92,1.92,0,0,1-.77-.15,1.36,1.36,0,0,1-.54-.4,1.66,1.66,0,0,1-.24-.59,4.14,4.14,0,0,1-.05-.74v-2.89h.79v2.59a4.93,4.93,0,0,0,.05.84.87.87,0,0,0,.32.49,1,1,0,0,0,.59.17,1.32,1.32,0,0,0,.67-.18,1,1,0,0,0,.44-.5,2.37,2.37,0,0,0,.13-.91v-2.5h.8v4.67Z"/>
    <path d="M266.82,213.1l.78-.13a1.05,1.05,0,0,0,.37.72,1.26,1.26,0,0,0,.84.25,1.24,1.24,0,0,0,.81-.22.68.68,0,0,0,.26-.52.48.48,0,0,0-.23-.42,3.56,3.56,0,0,0-.81-.27,6.76,6.76,0,0,1-1.21-.38,1.22,1.22,0,0,1-.51-.44,1.24,1.24,0,0,1-.17-.63,1.27,1.27,0,0,1,.14-.58,1.49,1.49,0,0,1,.39-.44,1.56,1.56,0,0,1,.5-.23,2.84,2.84,0,0,1,1.65.07,1.31,1.31,0,0,1,.62.42,1.69,1.69,0,0,1,.27.73l-.78.1a.8.8,0,0,0-.3-.56,1.09,1.09,0,0,0-.71-.2,1.28,1.28,0,0,0-.78.18.52.52,0,0,0-.24.42.5.5,0,0,0,.1.28.88.88,0,0,0,.3.21l.7.2A8.77,8.77,0,0,1,270,212a1.1,1.1,0,0,1,.71,1.09,1.27,1.27,0,0,1-.23.74,1.37,1.37,0,0,1-.66.54,2.4,2.4,0,0,1-1,.19,2.18,2.18,0,0,1-1.38-.37A1.79,1.79,0,0,1,266.82,213.1Z"/>
    <path d="M273.36,213.78l.12.7a2.84,2.84,0,0,1-.6.07,1.5,1.5,0,0,1-.67-.13.81.81,0,0,1-.33-.36,2.69,2.69,0,0,1-.1-.94v-2.68h-.58v-.62h.58v-1.15l.79-.48v1.63h.79v.62h-.79v2.73a1.3,1.3,0,0,0,0,.43.28.28,0,0,0,.13.15.54.54,0,0,0,.27.06Z"/>
    <path d="M277.33,213l.82.1a2,2,0,0,1-.72,1.11,2.17,2.17,0,0,1-1.34.39,2.13,2.13,0,0,1-1.62-.63,2.45,2.45,0,0,1-.6-1.76,2.55,2.55,0,0,1,.61-1.83,2.2,2.2,0,0,1,3.1,0,2.54,2.54,0,0,1,.59,1.8v.21h-3.48a1.83,1.83,0,0,0,.43,1.18,1.3,1.3,0,0,0,1,.4,1.2,1.2,0,0,0,.74-.22A1.54,1.54,0,0,0,277.33,213Zm-2.6-1.28h2.61a1.7,1.7,0,0,0-.3-.89,1.22,1.22,0,0,0-1-.45,1.28,1.28,0,0,0-.92.36A1.52,1.52,0,0,0,274.73,211.71Z"/>
    <path d="M279.13,214.49v-4.67h.71v.71a1.88,1.88,0,0,1,.51-.65.83.83,0,0,1,.5-.16,1.56,1.56,0,0,1,.82.25l-.28.74a1.07,1.07,0,0,0-.58-.18.78.78,0,0,0-.46.16.84.84,0,0,0-.3.43,3.37,3.37,0,0,0-.13.93v2.44Z"/>
    <path d="M284.74,214.49v-6.44h2.43a6,6,0,0,1,1,.06,1.81,1.81,0,0,1,.79.3,1.52,1.52,0,0,1,.52.62,2.07,2.07,0,0,1-.33,2.27,2.51,2.51,0,0,1-1.89.57h-1.65v2.62Zm.85-3.38h1.67a1.73,1.73,0,0,0,1.17-.31,1.09,1.09,0,0,0,.35-.86,1.18,1.18,0,0,0-.21-.7,1,1,0,0,0-.54-.38,4.33,4.33,0,0,0-.79-.05h-1.65Z"/>
    <path d="M290.45,212.42l.81-.07a1.64,1.64,0,0,0,.26.79,1.4,1.4,0,0,0,.65.5,2.4,2.4,0,0,0,1,.19,2.32,2.32,0,0,0,.86-.14,1.27,1.27,0,0,0,.56-.4.93.93,0,0,0,.18-.55.83.83,0,0,0-.18-.53,1.25,1.25,0,0,0-.58-.38,10.13,10.13,0,0,0-1.14-.31,6,6,0,0,1-1.25-.41,1.71,1.71,0,0,1-.69-.6,1.44,1.44,0,0,1-.22-.8,1.67,1.67,0,0,1,.27-.91,1.74,1.74,0,0,1,.81-.64,3,3,0,0,1,1.19-.22,3.15,3.15,0,0,1,1.26.23,1.83,1.83,0,0,1,.84.68,2,2,0,0,1,.32,1l-.82.06a1.29,1.29,0,0,0-.45-.92,1.7,1.7,0,0,0-1.12-.31,1.81,1.81,0,0,0-1.13.28.87.87,0,0,0-.35.69.72.72,0,0,0,.25.57,3.39,3.39,0,0,0,1.29.46,7.7,7.7,0,0,1,1.42.41,1.93,1.93,0,0,1,.83.65,1.61,1.61,0,0,1,.27.92,1.8,1.8,0,0,1-.29,1,2,2,0,0,1-.85.71,3.08,3.08,0,0,1-1.24.25,3.72,3.72,0,0,1-1.47-.26,2,2,0,0,1-.92-.76A2.12,2.12,0,0,1,290.45,212.42Z"/>
    <path d="M296.45,212.42l.81-.07a1.76,1.76,0,0,0,.27.79,1.32,1.32,0,0,0,.64.5,2.46,2.46,0,0,0,1,.19,2.28,2.28,0,0,0,.86-.14,1.21,1.21,0,0,0,.56-.4.93.93,0,0,0,.18-.55.88.88,0,0,0-.17-.53,1.3,1.3,0,0,0-.58-.38,11.27,11.27,0,0,0-1.15-.31,6.18,6.18,0,0,1-1.25-.41,1.75,1.75,0,0,1-.68-.6,1.44,1.44,0,0,1-.23-.8,1.6,1.6,0,0,1,.28-.91,1.64,1.64,0,0,1,.81-.64,3,3,0,0,1,1.18-.22,3.08,3.08,0,0,1,1.26.23,1.74,1.74,0,0,1,.84.68,2,2,0,0,1,.32,1l-.82.06a1.32,1.32,0,0,0-.44-.92,1.75,1.75,0,0,0-1.13-.31,1.77,1.77,0,0,0-1.12.28.85.85,0,0,0-.36.69.76.76,0,0,0,.25.57,3.46,3.46,0,0,0,1.29.46,7.46,7.46,0,0,1,1.42.41,2,2,0,0,1,.84.65,1.68,1.68,0,0,1,.26.92,1.8,1.8,0,0,1-.29,1,2,2,0,0,1-.85.71,3.08,3.08,0,0,1-1.24.25,3.67,3.67,0,0,1-1.46-.26,2,2,0,0,1-.93-.76A2.21,2.21,0,0,1,296.45,212.42Z"/>
    <path d="M302.72,214.49v-6.44H304l1.53,4.56.31.95c.07-.23.18-.58.34-1l1.54-4.48h1.15v6.44h-.82V209.1l-1.87,5.39h-.77L303.54,209v5.49Z"/>
    <path d="M309.83,213.1l.78-.13a1.05,1.05,0,0,0,.37.72,1.26,1.26,0,0,0,.84.25,1.24,1.24,0,0,0,.81-.22.68.68,0,0,0,.26-.52.48.48,0,0,0-.23-.42,3.56,3.56,0,0,0-.81-.27,6.76,6.76,0,0,1-1.21-.38,1.22,1.22,0,0,1-.51-.44,1.24,1.24,0,0,1-.17-.63,1.27,1.27,0,0,1,.14-.58,1.49,1.49,0,0,1,.39-.44,1.56,1.56,0,0,1,.5-.23,2.56,2.56,0,0,1,.69-.09,2.61,2.61,0,0,1,1,.16,1.23,1.23,0,0,1,.61.42,1.57,1.57,0,0,1,.28.73l-.78.1a.8.8,0,0,0-.3-.56,1.1,1.1,0,0,0-.72-.2,1.26,1.26,0,0,0-.77.18.52.52,0,0,0-.24.42.5.5,0,0,0,.1.28.79.79,0,0,0,.3.21l.7.2A8.77,8.77,0,0,1,313,212a1.1,1.1,0,0,1,.71,1.09,1.27,1.27,0,0,1-.23.74,1.37,1.37,0,0,1-.66.54,2.4,2.4,0,0,1-1,.19,2.18,2.18,0,0,1-1.38-.37A1.75,1.75,0,0,1,309.83,213.1Z"/>
  </g>
  <text class="ab" transform="translate(46.53 18.11)">Predictive Performance of Logistic Regression by Sequenc<tspan class="ac" x="234.62" y="0">e</tspan><tspan x="239.27" y="0"> </tspan><tspan class="ad" x="241.77" y="0">W</tspan><tspan x="250.1" y="0">eight</tspan></text>
  <text class="ae" transform="translate(8.55 155.26)">Sequence <tspan class="af" x="4.74" y="8.4">W</tspan><tspan x="11.22" y="8.4">eight:</tspan></text>
  <g>
    <path class="e" d="M315.67,151.91l-.55,0a1.08,1.08,0,0,0-.21-.48.74.74,0,0,0-.56-.24.78.78,0,0,0-.47.15,1.34,1.34,0,0,0-.41.56,2.91,2.91,0,0,0-.16,1.06,1.26,1.26,0,0,1,.49-.46,1.34,1.34,0,0,1,.61-.15,1.28,1.28,0,0,1,.95.41,1.49,1.49,0,0,1,.39,1.06,1.8,1.8,0,0,1-.18.8,1.32,1.32,0,0,1-.51.56,1.38,1.38,0,0,1-.73.2,1.43,1.43,0,0,1-1.14-.52,2.59,2.59,0,0,1-.44-1.69,3,3,0,0,1,.49-1.91,1.38,1.38,0,0,1,1.14-.52,1.29,1.29,0,0,1,.88.3A1.23,1.23,0,0,1,315.67,151.91Zm-2.27,2a1.33,1.33,0,0,0,.12.55.89.89,0,0,0,.34.4.88.88,0,0,0,.46.14.79.79,0,0,0,.61-.29,1.12,1.12,0,0,0,.25-.77,1,1,0,0,0-.25-.74.81.81,0,0,0-.63-.28.83.83,0,0,0-.64.28A.94.94,0,0,0,313.4,153.87Z"/>
    <g>
      <path class="e" d="M307.14,160.65h-.68v-4.31a3.21,3.21,0,0,1-.64.46,3.55,3.55,0,0,1-.71.35v-.65a3.86,3.86,0,0,0,1-.65,2.35,2.35,0,0,0,.6-.73h.44Z"/>
      <path class="e" d="M308.87,157.93a4.84,4.84,0,0,1,.21-1.57,2,2,0,0,1,.59-.92,1.52,1.52,0,0,1,1-.32,1.61,1.61,0,0,1,.78.18,1.41,1.41,0,0,1,.55.51,2.56,2.56,0,0,1,.34.82,5.05,5.05,0,0,1,.13,1.3,5.17,5.17,0,0,1-.2,1.57,1.9,1.9,0,0,1-.6.92,1.68,1.68,0,0,1-2.25-.25A3.64,3.64,0,0,1,308.87,157.93Zm.7,0a3.47,3.47,0,0,0,.32,1.81.9.9,0,0,0,1.56,0,5.28,5.28,0,0,0,0-3.62.94.94,0,0,0-.79-.44.86.86,0,0,0-.74.39A3.54,3.54,0,0,0,309.57,157.93Z"/>
    </g>
  </g>
  <text class="ag" transform="translate(31.76 178.76)">p-Abundance<tspan x="14.4" y="8.4">Only</tspan></text>
  <text class="ag" transform="translate(276.31 178.76)">Sequence Information<tspan x="27.24" y="8.4">Only</tspan></text>
  <g>
    <line class="ah" x1="52.67" y1="167.19" x2="52.67" y2="172.98"/>
    <polygon class="ai" points="50.82 168.59 52.67 167.81 54.52 168.59 52.67 164.21 50.82 168.59"/>
  </g>
  <g>
    <line class="ah" x1="309.7" y1="167.19" x2="309.7" y2="172.98"/>
    <polygon class="ai" points="307.85 168.59 309.7 167.81 311.55 168.59 309.7 164.21 307.85 168.59"/>
  </g>
  <rect class="aj" x="104.22" y="40.11" width="5" height="5.05" rx="2.5"/>
  <rect class="aj" x="265.03" y="62.46" width="5" height="5.05" rx="2.5"/>
  <rect class="aj" x="211.65" y="104.99" width="5" height="5.05" rx="2.5"/>
  <text class="ak" transform="translate(63.68 36.94)">Best Weights</text>
</svg>
